CSLSans-MediumItalic.ufo
<glyph name="percent" format="2">
  <advance width="918"/>
  <unicode hex="0025"/>
  <outline>
    <contour>
      <point x="236" y="314" type="qcurve" smooth="yes"/>
      <point x="172" y="314"/>
      <point x="98" y="391"/>
      <point x="98" y="465" type="qcurve" smooth="yes"/>
      <point x="98" y="567"/>
      <point x="209" y="710"/>
      <point x="293" y="710" type="qcurve" smooth="yes"/>
      <point x="357" y="710"/>
      <point x="431" y="633"/>
      <point x="431" y="559" type="qcurve" smooth="yes"/>
      <point x="431" y="457"/>
      <point x="320" y="314"/>
    </contour>
    <contour>
      <point x="130" y="0" type="line"/>
      <point x="717" y="698" type="line"/>
      <point x="816" y="698" type="line"/>
      <point x="229" y="0" type="line"/>
    </contour>
    <contour>
      <point x="242" y="380" type="qcurve" smooth="yes"/>
      <point x="275" y="380"/>
      <point x="314" y="432"/>
      <point x="325" y="482" type="qcurve" smooth="yes"/>
      <point x="338" y="543" type="line"/>
      <point x="342" y="565"/>
      <point x="342" y="581" type="qcurve"/>
      <point x="340" y="644"/>
      <point x="287" y="644" type="qcurve" smooth="yes"/>
      <point x="254" y="644"/>
      <point x="215" y="592"/>
      <point x="204" y="542" type="qcurve" smooth="yes"/>
      <point x="191" y="481" type="line" smooth="yes"/>
      <point x="187" y="460"/>
      <point x="187" y="443" type="qcurve"/>
      <point x="190" y="380"/>
    </contour>
    <contour>
      <point x="652" y="-12" type="qcurve" smooth="yes"/>
      <point x="588" y="-12"/>
      <point x="514" y="65"/>
      <point x="514" y="139" type="qcurve" smooth="yes"/>
      <point x="514" y="241"/>
      <point x="625" y="384"/>
      <point x="709" y="384" type="qcurve" smooth="yes"/>
      <point x="773" y="384"/>
      <point x="847" y="307"/>
      <point x="847" y="233" type="qcurve" smooth="yes"/>
      <point x="847" y="131"/>
      <point x="736" y="-12"/>
    </contour>
    <contour>
      <point x="658" y="54" type="qcurve" smooth="yes"/>
      <point x="691" y="54"/>
      <point x="730" y="106"/>
      <point x="741" y="156" type="qcurve" smooth="yes"/>
      <point x="754" y="217" type="line"/>
      <point x="758" y="239"/>
      <point x="758" y="255" type="qcurve"/>
      <point x="756" y="318"/>
      <point x="703" y="318" type="qcurve" smooth="yes"/>
      <point x="670" y="318"/>
      <point x="631" y="266"/>
      <point x="620" y="216" type="qcurve" smooth="yes"/>
      <point x="607" y="155" type="line" smooth="yes"/>
      <point x="603" y="134"/>
      <point x="603" y="117" type="qcurve"/>
      <point x="606" y="54"/>
    </contour>
  </outline>
</glyph>
<glyph name="comma" format="2">
  <advance width="300"/>
  <unicode hex="002C"/>
  <outline>
    <contour>
      <point x="-40" y="-138" type="line"/>
      <point x="36" y="-76"/>
      <point x="70" y="-7" type="qcurve"/>
      <point x="29" y="2"/>
      <point x="29" y="39" type="qcurve" smooth="yes"/>
      <point x="29" y="56"/>
      <point x="34" y="76" type="qcurve"/>
      <point x="47" y="139"/>
      <point x="112" y="139" type="qcurve" smooth="yes"/>
      <point x="144" y="139"/>
      <point x="174" y="110"/>
      <point x="174" y="88" type="qcurve" smooth="yes"/>
      <point x="174" y="71"/>
      <point x="169" y="52" type="qcurve"/>
      <point x="158" y="4"/>
      <point x="97" y="-99"/>
      <point x="43" y="-138" type="qcurve"/>
    </contour>
  </outline>
</glyph>
<glyph name="hyphen" format="2">
  <advance width="391"/>
  <unicode hex="002D"/>
  <outline>
    <contour>
      <point x="59" y="252" type="line"/>
      <point x="80" y="357" type="line"/>
      <point x="350" y="357" type="line"/>
      <point x="329" y="252" type="line"/>
    </contour>
  </outline>
</glyph>
<glyph name="one" format="2">
  <advance width="600"/>
  <unicode hex="0031"/>
  <outline>
    <contour>
      <point x="343" y="0" type="line"/>
      <point x="236" y="0" type="line"/>
      <point x="356" y="592" type="line"/>
      <point x="188" y="502" type="line"/>
      <point x="210" y="612" type="line"/>
      <point x="365" y="698" type="line"/>
      <point x="483" y="698" type="line"/>
    </contour>
  </outline>
</glyph>
<glyph name="two" format="2">
  <advance width="600"/>
  <unicode hex="0032"/>
  <outline>
    <contour>
      <point x="25" y="0" type="line"/>
      <point x="47" y="109" type="line"/>
      <point x="302" y="307" type="line" smooth="yes"/>
      <point x="427" y="407"/>
      <point x="438" y="483" type="qcurve"/>
      <point x="442" y="498"/>
      <point x="442" y="522" type="qcurve" smooth="yes"/>
      <point x="442" y="554"/>
      <point x="399" y="614"/>
      <point x="349" y="614" type="qcurve" smooth="yes"/>
      <point x="296" y="614"/>
      <point x="229" y="554"/>
      <point x="208" y="502" type="qcurve"/>
      <point x="115" y="541" type="line"/>
      <point x="149" y="617"/>
      <point x="270" y="710"/>
      <point x="358" y="710" type="qcurve" smooth="yes"/>
      <point x="450" y="710"/>
      <point x="505" y="659" type="qcurve"/>
      <point x="559" y="606"/>
      <point x="559" y="528" type="qcurve" smooth="yes"/>
      <point x="559" y="444"/>
      <point x="450" y="305"/>
      <point x="261" y="165"/>
      <point x="166" y="94" type="qcurve"/>
      <point x="497" y="94" type="line"/>
      <point x="478" y="0" type="line"/>
    </contour>
  </outline>
</glyph>
<glyph name="three" format="2">
  <advance width="600"/>
  <unicode hex="0033"/>
  <outline>
    <contour>
      <point x="245" y="-12" type="qcurve" smooth="yes"/>
      <point x="154" y="-12"/>
      <point x="101" y="27" type="qcurve"/>
      <point x="47" y="64"/>
      <point x="28" y="115" type="qcurve"/>
      <point x="111" y="173" type="line"/>
      <point x="126" y="131"/>
      <point x="191" y="81"/>
      <point x="253" y="81" type="qcurve" smooth="yes"/>
      <point x="316" y="81"/>
      <point x="380" y="138"/>
      <point x="391" y="193" type="qcurve"/>
      <point x="395" y="209"/>
      <point x="395" y="225" type="qcurve" smooth="yes"/>
      <point x="395" y="267"/>
      <point x="339" y="316"/>
      <point x="285" y="316" type="qcurve" smooth="yes"/>
      <point x="212" y="316" type="line"/>
      <point x="231" y="410" type="line"/>
      <point x="299" y="410" type="line" smooth="yes"/>
      <point x="415" y="410"/>
      <point x="433" y="509" type="qcurve" smooth="yes"/>
      <point x="436" y="525"/>
      <point x="436" y="535" type="qcurve" smooth="yes"/>
      <point x="436" y="575"/>
      <point x="386" y="617"/>
      <point x="341" y="617" type="qcurve" smooth="yes"/>
      <point x="296" y="617"/>
      <point x="224" y="577"/>
      <point x="194" y="532" type="qcurve"/>
      <point x="128" y="599" type="line"/>
      <point x="166" y="648"/>
      <point x="275" y="710"/>
      <point x="358" y="710" type="qcurve" smooth="yes"/>
      <point x="444" y="710"/>
      <point x="553" y="622"/>
      <point x="553" y="551" type="qcurve" smooth="yes"/>
      <point x="553" y="479"/>
      <point x="463" y="382"/>
      <point x="393" y="368" type="qcurve"/>
      <point x="392" y="363" type="line"/>
      <point x="444" y="354"/>
      <point x="506" y="278"/>
      <point x="506" y="218" type="qcurve" smooth="yes"/>
      <point x="506" y="118"/>
      <point x="367" y="-12"/>
    </contour>
  </outline>
</glyph>
<glyph name="nine" format="2">
  <advance width="600"/>
  <unicode hex="0039"/>
  <outline>
    <contour>
      <point x="320" y="346" type="qcurve" smooth="yes"/>
      <point x="380" y="346"/>
      <point x="451" y="413"/>
      <point x="463" y="471" type="qcurve" smooth="yes"/>
      <point x="467" y="491"/>
      <point x="467" y="510" type="qcurve" smooth="yes"/>
      <point x="466" y="619"/>
      <point x="359" y="619" type="qcurve" smooth="yes"/>
      <point x="300" y="619"/>
      <point x="227" y="552"/>
      <point x="216" y="494" type="qcurve" smooth="yes"/>
      <point x="212" y="475"/>
      <point x="212" y="455" type="qcurve"/>
      <point x="214" y="346"/>
    </contour>
    <contour>
      <point x="93" y="0" type="line"/>
      <point x="226" y="79"/>
      <point x="406" y="255"/>
      <point x="441" y="357" type="qcurve"/>
      <point x="435" y="359" type="line"/>
      <point x="406" y="311"/>
      <point x="331" y="256"/>
      <point x="277" y="256" type="qcurve" smooth="yes"/>
      <point x="196" y="256"/>
      <point x="101" y="359"/>
      <point x="101" y="447" type="qcurve" smooth="yes"/>
      <point x="101" y="557"/>
      <point x="174" y="634" type="qcurve"/>
      <point x="249" y="710"/>
      <point x="366" y="710" type="qcurve" smooth="yes"/>
      <point x="466" y="710"/>
      <point x="573" y="592"/>
      <point x="573" y="487" type="qcurve" smooth="yes"/>
      <point x="573" y="343"/>
      <point x="472" y="203" type="qcurve" smooth="yes"/>
      <point x="376" y="73"/>
      <point x="246" y="0" type="qcurve"/>
    </contour>
  </outline>
</glyph>
<glyph name="colon" format="2">
  <advance width="300"/>
  <unicode hex="003A"/>
  <outline>
    <contour>
      <point x="100" y="-12" type="qcurve" smooth="yes"/>
      <point x="68" y="-12"/>
      <point x="38" y="16"/>
      <point x="38" y="37" type="qcurve" smooth="yes"/>
      <point x="38" y="139"/>
      <point x="122" y="139" type="qcurve" smooth="yes"/>
      <point x="154" y="139"/>
      <point x="184" y="111"/>
      <point x="184" y="90" type="qcurve" smooth="yes"/>
      <point x="184" y="72"/>
      <point x="179" y="51" type="qcurve"/>
      <point x="168" y="-12"/>
    </contour>
    <contour>
      <point x="178" y="378" type="qcurve" smooth="yes"/>
      <point x="146" y="378"/>
      <point x="116" y="406"/>
      <point x="116" y="427" type="qcurve" smooth="yes"/>
      <point x="116" y="529"/>
      <point x="200" y="529" type="qcurve" smooth="yes"/>
      <point x="232" y="529"/>
      <point x="262" y="501"/>
      <point x="262" y="480" type="qcurve" smooth="yes"/>
      <point x="262" y="462"/>
      <point x="257" y="441" type="qcurve"/>
      <point x="246" y="378"/>
    </contour>
  </outline>
</glyph>
<glyph name="semicolon" format="2">
  <advance width="300"/>
  <unicode hex="003B"/>
  <outline>
    <contour>
      <point x="-30" y="-138" type="line"/>
      <point x="46" y="-76"/>
      <point x="80" y="-7" type="qcurve"/>
      <point x="39" y="2"/>
      <point x="39" y="39" type="qcurve" smooth="yes"/>
      <point x="39" y="56"/>
      <point x="44" y="76" type="qcurve"/>
      <point x="57" y="139"/>
      <point x="122" y="139" type="qcurve" smooth="yes"/>
      <point x="154" y="139"/>
      <point x="184" y="110"/>
      <point x="184" y="88" type="qcurve" smooth="yes"/>
      <point x="184" y="71"/>
      <point x="179" y="52" type="qcurve"/>
      <point x="168" y="4"/>
      <point x="107" y="-99"/>
      <point x="53" y="-138" type="qcurve"/>
    </contour>
    <contour>
      <point x="178" y="378" type="qcurve" smooth="yes"/>
      <point x="146" y="378"/>
      <point x="116" y="406"/>
      <point x="116" y="427" type="qcurve" smooth="yes"/>
      <point x="116" y="529"/>
      <point x="200" y="529" type="qcurve" smooth="yes"/>
      <point x="232" y="529"/>
      <point x="262" y="501"/>
      <point x="262" y="480" type="qcurve" smooth="yes"/>
      <point x="262" y="462"/>
      <point x="257" y="441" type="qcurve"/>
      <point x="246" y="378"/>
    </contour>
  </outline>
</glyph>
<glyph name="question" format="2">
  <advance width="478"/>
  <unicode hex="003F"/>
  <outline>
    <contour>
      <point x="172" y="-12" type="qcurve" smooth="yes"/>
      <point x="140" y="-12"/>
      <point x="110" y="16"/>
      <point x="110" y="37" type="qcurve" smooth="yes"/>
      <point x="110" y="139"/>
      <point x="194" y="139" type="qcurve" smooth="yes"/>
      <point x="226" y="139"/>
      <point x="256" y="111"/>
      <point x="256" y="90" type="qcurve" smooth="yes"/>
      <point x="256" y="72"/>
      <point x="251" y="51" type="qcurve"/>
      <point x="240" y="-12"/>
    </contour>
    <contour>
      <point x="160" y="219" type="line"/>
      <point x="193" y="379" type="line"/>
      <point x="357" y="394"/>
      <point x="382" y="498" type="qcurve"/>
      <point x="386" y="511"/>
      <point x="386" y="535" type="qcurve" smooth="yes"/>
      <point x="386" y="574"/>
      <point x="337" y="617"/>
      <point x="295" y="617" type="qcurve" smooth="yes"/>
      <point x="244" y="617"/>
      <point x="181" y="559"/>
      <point x="163" y="510" type="qcurve"/>
      <point x="76" y="548" type="line"/>
      <point x="142" y="710"/>
      <point x="307" y="710" type="qcurve" smooth="yes"/>
      <point x="395" y="710"/>
      <point x="497" y="622"/>
      <point x="497" y="546" type="qcurve" smooth="yes"/>
      <point x="497" y="464"/>
      <point x="379" y="333"/>
      <point x="281" y="313" type="qcurve"/>
      <point x="262" y="219" type="line"/>
    </contour>
  </outline>
</glyph>
<glyph name="B" format="2">
  <advance width="637"/>
  <unicode hex="0042"/>
  <outline>
    <contour>
      <point x="344" y="95" type="line" smooth="yes"/>
      <point x="438" y="95"/>
      <point x="457" y="186" type="qcurve"/>
      <point x="465" y="230" type="line"/>
      <point x="466" y="244" type="line"/>
      <point x="466" y="275"/>
      <point x="425" y="311"/>
      <point x="384" y="311" type="qcurve" smooth="yes"/>
      <point x="202" y="311" type="line"/>
      <point x="159" y="95" type="line"/>
    </contour>
    <contour>
      <point x="377" y="401" type="line" smooth="yes"/>
      <point x="476" y="401"/>
      <point x="493" y="485" type="qcurve" smooth="yes"/>
      <point x="497" y="503" type="line" smooth="yes"/>
      <point x="501" y="523"/>
      <point x="501" y="540" type="qcurve" smooth="yes"/>
      <point x="501" y="603"/>
      <point x="427" y="603" type="qcurve" smooth="yes"/>
      <point x="261" y="603" type="line"/>
      <point x="220" y="401" type="line"/>
    </contour>
    <contour>
      <point x="32" y="0" type="line"/>
      <point x="172" y="698" type="line"/>
      <point x="446" y="698" type="line" smooth="yes"/>
      <point x="525" y="698"/>
      <point x="616" y="622"/>
      <point x="616" y="552" type="qcurve" smooth="yes"/>
      <point x="616" y="486"/>
      <point x="581" y="434" type="qcurve"/>
      <point x="545" y="384"/>
      <point x="477" y="365" type="qcurve"/>
      <point x="476" y="360" type="line"/>
      <point x="578" y="335"/>
      <point x="578" y="231" type="qcurve" smooth="yes"/>
      <point x="578" y="134"/>
      <point x="452" y="0"/>
      <point x="345" y="0" type="qcurve" smooth="yes"/>
    </contour>
  </outline>
</glyph>
<glyph name="E" format="2">
  <advance width="571"/>
  <unicode hex="0045"/>
  <outline>
    <contour>
      <point x="32" y="0" type="line"/>
      <point x="172" y="698" type="line"/>
      <point x="599" y="698" type="line"/>
      <point x="579" y="602" type="line"/>
      <point x="261" y="602" type="line"/>
      <point x="221" y="400" type="line"/>
      <point x="505" y="400" type="line"/>
      <point x="486" y="304" type="line"/>
      <point x="202" y="304" type="line"/>
      <point x="160" y="96" type="line"/>
      <point x="492" y="96" type="line"/>
      <point x="473" y="0" type="line"/>
    </contour>
  </outline>
</glyph>
<glyph name="o" format="2">
  <advance width="548"/>
  <unicode hex="006F"/>
  <outline>
    <contour>
      <point x="246" y="76" type="qcurve" smooth="yes"/>
      <point x="295" y="76"/>
      <point x="367" y="148"/>
      <point x="382" y="217" type="qcurve" smooth="yes"/>
      <point x="399" y="300" type="line"/>
      <point x="403" y="317"/>
      <point x="403" y="339" type="qcurve" smooth="yes"/>
      <point x="403" y="387"/>
      <point x="352" y="444"/>
      <point x="302" y="444" type="qcurve" smooth="yes"/>
      <point x="253" y="444"/>
      <point x="181" y="372"/>
      <point x="166" y="303" type="qcurve" smooth="yes"/>
      <point x="149" y="220" type="line"/>
      <point x="145" y="204"/>
      <point x="145" y="181" type="qcurve" smooth="yes"/>
      <point x="145" y="133"/>
      <point x="196" y="76"/>
    </contour>
    <contour>
      <point x="238" y="-12" type="qcurve" smooth="yes"/>
      <point x="150" y="-12"/>
      <point x="42" y="98"/>
      <point x="42" y="203" type="qcurve" smooth="yes"/>
      <point x="42" y="337"/>
      <point x="118" y="435" type="qcurve" smooth="yes"/>
      <point x="153" y="480"/>
      <point x="251" y="532"/>
      <point x="310" y="532" type="qcurve" smooth="yes"/>
      <point x="398" y="532"/>
      <point x="506" y="422"/>
      <point x="506" y="317" type="qcurve" smooth="yes"/>
      <point x="506" y="181"/>
      <point x="354" y="-12"/>
    </contour>
  </outline>
</glyph>
<glyph name="q" format="2">
  <advance width="576"/>
  <unicode hex="0071"/>
  <outline>
    <contour>
      <point x="302" y="-200" type="line"/>
      <point x="365" y="116" type="line"/>
      <point x="361" y="116" type="line"/>
      <point x="330" y="52"/>
      <point x="252" y="-12"/>
      <point x="192" y="-12" type="qcurve" smooth="yes"/>
      <point x="120" y="-12"/>
      <point x="42" y="92"/>
      <point x="42" y="179" type="qcurve" smooth="yes"/>
      <point x="42" y="316"/>
      <point x="109" y="424" type="qcurve"/>
      <point x="141" y="473"/>
      <point x="233" y="532"/>
      <point x="291" y="532" type="qcurve" smooth="yes"/>
      <point x="342" y="532"/>
      <point x="415" y="479"/>
      <point x="424" y="433" type="qcurve"/>
      <point x="429" y="433" type="line"/>
      <point x="446" y="520" type="line"/>
      <point x="550" y="520" type="line"/>
      <point x="406" y="-200" type="line"/>
    </contour>
    <contour>
      <point x="234" y="77" type="qcurve" smooth="yes"/>
      <point x="288" y="77"/>
      <point x="333" y="127" type="qcurve" smooth="yes"/>
      <point x="376" y="173"/>
      <point x="390" y="242" type="qcurve" smooth="yes"/>
      <point x="409" y="337" type="line"/>
      <point x="411" y="349"/>
      <point x="411" y="360" type="qcurve" smooth="yes"/>
      <point x="411" y="391"/>
      <point x="393" y="413" type="qcurve" smooth="yes"/>
      <point x="368" y="443"/>
      <point x="309" y="443" type="qcurve" smooth="yes"/>
      <point x="197" y="443"/>
      <point x="169" y="303" type="qcurve" smooth="yes"/>
      <point x="154" y="230" type="line" smooth="yes"/>
      <point x="149" y="202"/>
      <point x="149" y="176" type="qcurve" smooth="yes"/>
      <point x="149" y="132"/>
      <point x="191" y="77"/>
    </contour>
  </outline>
</glyph>
<glyph name="section" format="2">
  <advance width="556"/>
  <unicode hex="00A7"/>
  <outline>
    <contour>
      <point x="328" y="163" type="qcurve"/>
      <point x="401" y="208"/>
      <point x="401" y="272" type="qcurve" smooth="yes"/>
      <point x="401" y="340"/>
      <point x="320" y="362" type="qcurve"/>
      <point x="257" y="381" type="line"/>
      <point x="242" y="386"/>
      <point x="232" y="392" type="qcurve"/>
      <point x="158" y="352"/>
      <point x="158" y="283" type="qcurve" smooth="yes"/>
      <point x="158" y="248"/>
      <point x="195" y="207"/>
      <point x="239" y="193" type="qcurve" smooth="yes"/>
      <point x="321" y="167"/>
    </contour>
    <contour>
      <point x="201" y="-158" type="qcurve" smooth="yes"/>
      <point x="147" y="-158"/>
      <point x="53" y="-126"/>
      <point x="20" y="-92" type="qcurve"/>
      <point x="85" y="-28" type="line"/>
      <point x="127" y="-76"/>
      <point x="211" y="-76" type="qcurve" smooth="yes"/>
      <point x="255" y="-76"/>
      <point x="318" y="-26"/>
      <point x="318" y="15" type="qcurve" smooth="yes"/>
      <point x="318" y="74"/>
      <point x="244" y="95" type="qcurve"/>
      <point x="181" y="115" type="line" smooth="yes"/>
      <point x="61" y="154"/>
      <point x="61" y="246" type="qcurve" smooth="yes"/>
      <point x="61" y="365"/>
      <point x="194" y="403" type="qcurve"/>
      <point x="196" y="412" type="line"/>
      <point x="142" y="455"/>
      <point x="142" y="524" type="qcurve" smooth="yes"/>
      <point x="142" y="608"/>
      <point x="267" y="710"/>
      <point x="358" y="710" type="qcurve" smooth="yes"/>
      <point x="476" y="710"/>
      <point x="539" y="643" type="qcurve"/>
      <point x="474" y="580" type="line"/>
      <point x="432" y="628"/>
      <point x="348" y="628" type="qcurve" smooth="yes"/>
      <point x="305" y="628"/>
      <point x="241" y="581"/>
      <point x="241" y="540" type="qcurve" smooth="yes"/>
      <point x="241" y="482"/>
      <point x="315" y="460" type="qcurve"/>
      <point x="378" y="440" type="line" smooth="yes"/>
      <point x="499" y="401"/>
      <point x="499" y="308" type="qcurve" smooth="yes"/>
      <point x="499" y="250"/>
      <point x="429" y="168"/>
      <point x="365" y="152" type="qcurve"/>
      <point x="364" y="142" type="line"/>
      <point x="417" y="100"/>
      <point x="417" y="30" type="qcurve" smooth="yes"/>
      <point x="417" y="-54"/>
      <point x="293" y="-158"/>
    </contour>
  </outline>
</glyph>
<glyph name="copyright" format="2">
  <advance width="778"/>
  <unicode hex="00A9"/>
  <outline>
    <contour>
      <point x="381" y="145" type="qcurve" smooth="yes"/>
      <point x="312" y="145"/>
      <point x="231" y="231"/>
      <point x="231" y="305" type="qcurve" smooth="yes"/>
      <point x="231" y="406"/>
      <point x="288" y="479" type="qcurve" smooth="yes"/>
      <point x="315" y="512"/>
      <point x="390" y="552"/>
      <point x="435" y="552" type="qcurve" smooth="yes"/>
      <point x="498" y="552"/>
      <point x="567" y="492"/>
      <point x="579" y="448" type="qcurve"/>
      <point x="504" y="416" type="line"/>
      <point x="492" y="474"/>
      <point x="433" y="474" type="qcurve" smooth="yes"/>
      <point x="395" y="474"/>
      <point x="350" y="424"/>
      <point x="342" y="384" type="qcurve" smooth="yes"/>
      <point x="329" y="318" type="line" smooth="yes"/>
      <point x="326" y="303"/>
      <point x="326" y="291" type="qcurve" smooth="yes"/>
      <point x="326" y="261"/>
      <point x="360" y="223"/>
      <point x="392" y="223" type="qcurve" smooth="yes"/>
      <point x="442" y="223"/>
      <point x="484" y="284" type="qcurve"/>
      <point x="550" y="243" type="line"/>
      <point x="490" y="145"/>
    </contour>
    <contour>
      <point x="358" y="48" type="qcurve" smooth="yes"/>
      <point x="472" y="48"/>
      <point x="559" y="121" type="qcurve" smooth="yes"/>
      <point x="643" y="190"/>
      <point x="665" y="297" type="qcurve" smooth="yes"/>
      <point x="680" y="368"/>
      <point x="680" y="405" type="qcurve" smooth="yes"/>
      <point x="680" y="515"/>
      <point x="554" y="648"/>
      <point x="453" y="648" type="qcurve" smooth="yes"/>
      <point x="339" y="648"/>
      <point x="169" y="506"/>
      <point x="146" y="401" type="qcurve" smooth="yes"/>
      <point x="131" y="331"/>
      <point x="131" y="293" type="qcurve" smooth="yes"/>
      <point x="131" y="181"/>
      <point x="258" y="48"/>
    </contour>
    <contour>
      <point x="354" y="-12" type="qcurve" smooth="yes"/>
      <point x="222" y="-12"/>
      <point x="63" y="157"/>
      <point x="63" y="293" type="qcurve" smooth="yes"/>
      <point x="63" y="382"/>
      <point x="123" y="534"/>
      <point x="176" y="590" type="qcurve" smooth="yes"/>
      <point x="289" y="708"/>
      <point x="457" y="708" type="qcurve" smooth="yes"/>
      <point x="589" y="708"/>
      <point x="748" y="539"/>
      <point x="748" y="405" type="qcurve" smooth="yes"/>
      <point x="748" y="315"/>
      <point x="689" y="163"/>
      <point x="636" y="107" type="qcurve" smooth="yes"/>
      <point x="522" y="-12"/>
    </contour>
  </outline>
</glyph>
<glyph name="softhyphen" format="2">
  <advance width="391"/>
  <unicode hex="00AD"/>
  <outline>
    <contour>
      <point x="59" y="252" type="line"/>
      <point x="80" y="357" type="line"/>
      <point x="350" y="357" type="line"/>
      <point x="329" y="252" type="line"/>
    </contour>
  </outline>
</glyph>
<glyph name="macron" format="2">
  <advance width="591"/>
  <unicode hex="00AF"/>
  <outline>
    <contour>
      <point x="173" y="632" type="line"/>
      <point x="190" y="714" type="line"/>
      <point x="465" y="714" type="line"/>
      <point x="448" y="632" type="line"/>
    </contour>
  </outline>
</glyph>
<glyph name="u00B2" format="2">
  <advance width="339"/>
  <unicode hex="00B2"/>
  <outline>
    <contour>
      <point x="42" y="329" type="line"/>
      <point x="56" y="400" type="line"/>
      <point x="196" y="496" type="line" smooth="yes"/>
      <point x="230" y="520"/>
      <point x="268" y="557"/>
      <point x="273" y="582" type="qcurve"/>
      <point x="275" y="598" type="line"/>
      <point x="275" y="618"/>
      <point x="246" y="639"/>
      <point x="225" y="639" type="qcurve" smooth="yes"/>
      <point x="175" y="639"/>
      <point x="153" y="585" type="qcurve"/>
      <point x="88" y="611" type="line"/>
      <point x="130" y="704"/>
      <point x="231" y="704" type="qcurve" smooth="yes"/>
      <point x="284" y="704"/>
      <point x="357" y="652"/>
      <point x="357" y="603" type="qcurve" smooth="yes"/>
      <point x="357" y="554"/>
      <point x="317" y="513" type="qcurve" smooth="yes"/>
      <point x="279" y="476"/>
      <point x="228" y="447" type="qcurve"/>
      <point x="144" y="391" type="line"/>
      <point x="324" y="391" type="line"/>
      <point x="312" y="329" type="line"/>
    </contour>
  </outline>
</glyph>
<glyph name="threequarters" format="2">
  <advance width="849"/>
  <unicode hex="00BE"/>
  <outline>
    <contour>
      <point x="674" y="282" type="line"/>
      <point x="669" y="282" type="line"/>
      <point x="533" y="129" type="line"/>
      <point x="643" y="129" type="line"/>
    </contour>
    <contour>
      <point x="618" y="0" type="line"/>
      <point x="632" y="72" type="line"/>
      <point x="455" y="72" type="line"/>
      <point x="468" y="137" type="line"/>
      <point x="674" y="369" type="line"/>
      <point x="764" y="369" type="line"/>
      <point x="716" y="129" type="line"/>
      <point x="765" y="129" type="line"/>
      <point x="753" y="72" type="line"/>
      <point x="705" y="72" type="line"/>
      <point x="691" y="0" type="line"/>
    </contour>
    <contour>
      <point x="174" y="323" type="qcurve" smooth="yes"/>
      <point x="116" y="323"/>
      <point x="52" y="365"/>
      <point x="40" y="394" type="qcurve"/>
      <point x="95" y="433" type="line"/>
      <point x="116" y="384"/>
      <point x="175" y="384" type="qcurve" smooth="yes"/>
      <point x="237" y="384"/>
      <point x="247" y="436" type="qcurve" smooth="yes"/>
      <point x="249" y="448" type="line"/>
      <point x="249" y="489"/>
      <point x="190" y="489" type="qcurve" smooth="yes"/>
      <point x="148" y="489" type="line"/>
      <point x="160" y="550" type="line"/>
      <point x="202" y="550" type="line" smooth="yes"/>
      <point x="267" y="550"/>
      <point x="273" y="593" type="qcurve" smooth="yes"/>
      <point x="275" y="608" type="line"/>
      <point x="275" y="622"/>
      <point x="249" y="644"/>
      <point x="226" y="644" type="qcurve" smooth="yes"/>
      <point x="177" y="644"/>
      <point x="140" y="598" type="qcurve"/>
      <point x="97" y="643" type="line"/>
      <point x="121" y="671"/>
      <point x="186" y="704"/>
      <point x="234" y="704" type="qcurve" smooth="yes"/>
      <point x="291" y="704"/>
      <point x="353" y="653"/>
      <point x="353" y="614" type="qcurve" smooth="yes"/>
      <point x="353" y="577"/>
      <point x="305" y="529"/>
      <point x="265" y="520" type="qcurve"/>
      <point x="265" y="518" type="line"/>
      <point x="327" y="506"/>
      <point x="327" y="444" type="qcurve" smooth="yes"/>
      <point x="327" y="392"/>
      <point x="246" y="323"/>
    </contour>
    <contour>
      <point x="80" y="0" type="line"/>
      <point x="710" y="698" type="line"/>
      <point x="800" y="698" type="line"/>
      <point x="171" y="0" type="line"/>
    </contour>
  </outline>
</glyph>
<glyph name="Aacute" format="2">
  <advance width="638"/>
  <unicode hex="00C1"/>
  <outline>
    <contour>
      <point x="365" y="783" type="line"/>
      <point x="475" y="962" type="line"/>
      <point x="562" y="916" type="line"/>
      <point x="429" y="749" type="line"/>
    </contour>
    <contour>
      <point x="455" y="0" type="line"/>
      <point x="433" y="189" type="line"/>
      <point x="183" y="189" type="line"/>
      <point x="86" y="0" type="line"/>
      <point x="-30" y="0" type="line"/>
      <point x="337" y="698" type="line"/>
      <point x="477" y="698" type="line"/>
      <point x="565" y="0" type="line"/>
    </contour>
    <contour>
      <point x="391" y="598" type="line"/>
      <point x="384" y="598" type="line"/>
      <point x="228" y="283" type="line"/>
      <point x="424" y="283" type="line"/>
    </contour>
  </outline>
</glyph>
<glyph name="Acircumflex" format="2">
  <advance width="638"/>
  <unicode hex="00C2"/>
  <outline>
    <contour>
      <point x="246" y="794" type="line"/>
      <point x="392" y="944" type="line"/>
      <point x="498" y="944" type="line"/>
      <point x="588" y="794" type="line"/>
      <point x="531" y="752" type="line"/>
      <point x="436" y="867" type="line"/>
      <point x="299" y="751" type="line"/>
    </contour>
    <contour>
      <point x="455" y="0" type="line"/>
      <point x="433" y="189" type="line"/>
      <point x="183" y="189" type="line"/>
      <point x="86" y="0" type="line"/>
      <point x="-30" y="0" type="line"/>
      <point x="337" y="698" type="line"/>
      <point x="477" y="698" type="line"/>
      <point x="565" y="0" type="line"/>
    </contour>
    <contour>
      <point x="391" y="598" type="line"/>
      <point x="384" y="598" type="line"/>
      <point x="228" y="283" type="line"/>
      <point x="424" y="283" type="line"/>
    </contour>
  </outline>
</glyph>
<glyph name="Igrave" format="2">
  <advance width="276"/>
  <unicode hex="00CC"/>
  <outline>
    <contour>
      <point x="130" y="918" type="line"/>
      <point x="222" y="961" type="line"/>
      <point x="287" y="778" type="line"/>
      <point x="223" y="749" type="line"/>
    </contour>
    <contour>
      <point x="32" y="0" type="line"/>
      <point x="172" y="698" type="line"/>
      <point x="280" y="698" type="line"/>
      <point x="140" y="0" type="line"/>
    </contour>
  </outline>
</glyph>
<glyph name="Icircumflex" format="2">
  <advance width="276"/>
  <unicode hex="00CE"/>
  <outline>
    <contour>
      <point x="68" y="794" type="line"/>
      <point x="214" y="944" type="line"/>
      <point x="320" y="944" type="line"/>
      <point x="410" y="794" type="line"/>
      <point x="353" y="752" type="line"/>
      <point x="258" y="867" type="line"/>
      <point x="121" y="751" type="line"/>
    </contour>
    <contour>
      <point x="32" y="0" type="line"/>
      <point x="172" y="698" type="line"/>
      <point x="280" y="698" type="line"/>
      <point x="140" y="0" type="line"/>
    </contour>
  </outline>
</glyph>
<glyph name="Oslash" format="2">
  <advance width="687"/>
  <unicode hex="00D8"/>
  <outline>
    <contour>
      <point x="3" y="2" type="line"/>
      <point x="92" y="106" type="line"/>
      <point x="56" y="168"/>
      <point x="56" y="265" type="qcurve" smooth="yes"/>
      <point x="56" y="441"/>
      <point x="154" y="576" type="qcurve"/>
      <point x="201" y="638"/>
      <point x="332" y="710"/>
      <point x="413" y="710" type="qcurve" smooth="yes"/>
      <point x="503" y="710"/>
      <point x="570" y="657" type="qcurve"/>
      <point x="650" y="750" type="line"/>
      <point x="712" y="696" type="line"/>
      <point x="623" y="592" type="line"/>
      <point x="659" y="531"/>
      <point x="659" y="433" type="qcurve" smooth="yes"/>
      <point x="659" y="258"/>
      <point x="562" y="123" type="qcurve"/>
      <point x="515" y="61"/>
      <point x="383" y="-12"/>
      <point x="302" y="-12" type="qcurve" smooth="yes"/>
      <point x="212" y="-12"/>
      <point x="145" y="41" type="qcurve"/>
      <point x="65" y="-52" type="line"/>
    </contour>
    <contour>
      <point x="508" y="577" type="line"/>
      <point x="469" y="614"/>
      <point x="404" y="614" type="qcurve" smooth="yes"/>
      <point x="236" y="614"/>
      <point x="190" y="405" type="qcurve" smooth="yes"/>
      <point x="169" y="301" type="line" smooth="yes"/>
      <point x="162" y="267"/>
      <point x="162" y="238" type="qcurve" smooth="yes"/>
      <point x="162" y="210"/>
      <point x="169" y="187" type="qcurve"/>
    </contour>
    <contour>
      <point x="311" y="84" type="qcurve" smooth="yes"/>
      <point x="479" y="84"/>
      <point x="525" y="293" type="qcurve" smooth="yes"/>
      <point x="546" y="397" type="line" smooth="yes"/>
      <point x="553" y="432"/>
      <point x="553" y="460" type="qcurve" smooth="yes"/>
      <point x="553" y="489"/>
      <point x="546" y="511" type="qcurve"/>
      <point x="207" y="121" type="line"/>
      <point x="247" y="84"/>
    </contour>
  </outline>
</glyph>
<glyph name="ecircumflex" format="2">
  <advance width="512"/>
  <unicode hex="00EA"/>
  <outline>
    <contour>
      <point x="160" y="288" type="line"/>
      <point x="299" y="294"/>
      <point x="347" y="317" type="qcurve" smooth="yes"/>
      <point x="372" y="329"/>
      <point x="390" y="363"/>
      <point x="390" y="385" type="qcurve" smooth="yes"/>
      <point x="390" y="423"/>
      <point x="365" y="437" type="qcurve"/>
      <point x="340" y="449"/>
      <point x="310" y="449" type="qcurve" smooth="yes"/>
      <point x="256" y="449"/>
      <point x="178" y="377"/>
      <point x="165" y="314" type="qcurve" smooth="yes"/>
    </contour>
    <contour>
      <point x="248" y="-12" type="qcurve" smooth="yes"/>
      <point x="147" y="-12"/>
      <point x="42" y="103"/>
      <point x="42" y="208" type="qcurve" smooth="yes"/>
      <point x="42" y="336"/>
      <point x="117" y="434" type="qcurve" smooth="yes"/>
      <point x="153" y="480"/>
      <point x="255" y="532"/>
      <point x="318" y="532" type="qcurve" smooth="yes"/>
      <point x="388" y="532"/>
      <point x="437" y="499" type="qcurve" smooth="yes"/>
      <point x="493" y="461"/>
      <point x="493" y="390" type="qcurve" smooth="yes"/>
      <point x="493" y="308"/>
      <point x="326" y="220"/>
      <point x="148" y="215" type="qcurve"/>
      <point x="145" y="196"/>
      <point x="145" y="182" type="qcurve" smooth="yes"/>
      <point x="145" y="134"/>
      <point x="198" y="76"/>
      <point x="255" y="76" type="qcurve" smooth="yes"/>
      <point x="341" y="76"/>
      <point x="400" y="154" type="qcurve"/>
      <point x="466" y="99" type="line"/>
      <point x="417" y="39"/>
      <point x="309" y="-12"/>
    </contour>
    <contour>
      <point x="354" y="701" type="line"/>
      <point x="217" y="586" type="line"/>
      <point x="165" y="629" type="line"/>
      <point x="310" y="778" type="line"/>
      <point x="416" y="778" type="line"/>
      <point x="506" y="628" type="line"/>
      <point x="449" y="585" type="line"/>
    </contour>
  </outline>
</glyph>
<glyph name="iacute" format="2">
  <advance width="271"/>
  <unicode hex="00ED"/>
  <outline>
    <contour>
      <point x="121" y="0" type="line" smooth="yes"/>
      <point x="83" y="0"/>
      <point x="43" y="39"/>
      <point x="43" y="71" type="qcurve" smooth="yes"/>
      <point x="43" y="82"/>
      <point x="45" y="93" type="qcurve" smooth="yes"/>
      <point x="131" y="520" type="line"/>
      <point x="235" y="520" type="line"/>
      <point x="148" y="87" type="line"/>
      <point x="215" y="87" type="line"/>
      <point x="198" y="0" type="line"/>
    </contour>
    <contour>
      <point x="151" y="616" type="line"/>
      <point x="261" y="795" type="line"/>
      <point x="348" y="749" type="line"/>
      <point x="214" y="582" type="line"/>
    </contour>
  </outline>
</glyph>
<glyph name="eth" format="2">
  <advance width="567"/>
  <unicode hex="00F0"/>
  <outline>
    <contour>
      <point x="250" y="73" type="qcurve" smooth="yes"/>
      <point x="302" y="73"/>
      <point x="372" y="148"/>
      <point x="387" y="213" type="qcurve"/>
      <point x="399" y="270" type="line" smooth="yes"/>
      <point x="404" y="294"/>
      <point x="404" y="313" type="qcurve" smooth="yes"/>
      <point x="404" y="362"/>
      <point x="348" y="417"/>
      <point x="299" y="417" type="qcurve" smooth="yes"/>
      <point x="247" y="417"/>
      <point x="177" y="342"/>
      <point x="162" y="277" type="qcurve"/>
      <point x="150" y="220" type="line" smooth="yes"/>
      <point x="145" y="197"/>
      <point x="145" y="177" type="qcurve" smooth="yes"/>
      <point x="145" y="128"/>
      <point x="201" y="73"/>
    </contour>
    <contour>
      <point x="239" y="-12" type="qcurve" smooth="yes"/>
      <point x="145" y="-12"/>
      <point x="41" y="104"/>
      <point x="41" y="204" type="qcurve" smooth="yes"/>
      <point x="41" y="326"/>
      <point x="178" y="502"/>
      <point x="278" y="502" type="qcurve" smooth="yes"/>
      <point x="331" y="502"/>
      <point x="399" y="452"/>
      <point x="413" y="407" type="qcurve"/>
      <point x="420" y="408" type="line"/>
      <point x="405" y="516"/>
      <point x="345" y="601" type="qcurve"/>
      <point x="248" y="545" type="line"/>
      <point x="219" y="597" type="line"/>
      <point x="306" y="648" type="line"/>
      <point x="251" y="706"/>
      <point x="191" y="740" type="qcurve"/>
      <point x="340" y="740" type="line"/>
      <point x="365" y="721"/>
      <point x="389" y="695" type="qcurve"/>
      <point x="484" y="752" type="line"/>
      <point x="514" y="699" type="line"/>
      <point x="429" y="649" type="line"/>
      <point x="521" y="530"/>
      <point x="521" y="351" type="qcurve" smooth="yes"/>
      <point x="521" y="179"/>
      <point x="439" y="81" type="qcurve"/>
      <point x="358" y="-12"/>
    </contour>
  </outline>
</glyph>
<glyph name="ntilde" format="2">
  <advance width="573"/>
  <unicode hex="00F1"/>
  <outline>
    <contour>
      <point x="433" y="607" type="qcurve" smooth="yes"/>
      <point x="411" y="607"/>
      <point x="379" y="620"/>
      <point x="363" y="628" type="qcurve"/>
      <point x="358" y="631" type="line" smooth="yes"/>
      <point x="319" y="654"/>
      <point x="290" y="654" type="qcurve" smooth="yes"/>
      <point x="273" y="654"/>
      <point x="248" y="641"/>
      <point x="231" y="628" type="qcurve"/>
      <point x="196" y="679" type="line"/>
      <point x="216" y="704"/>
      <point x="267" y="736"/>
      <point x="302" y="736" type="qcurve" smooth="yes"/>
      <point x="325" y="736"/>
      <point x="360" y="722"/>
      <point x="377" y="713" type="qcurve"/>
      <point x="417" y="690"/>
      <point x="445" y="690" type="qcurve" smooth="yes"/>
      <point x="462" y="690"/>
      <point x="487" y="703"/>
      <point x="504" y="716" type="qcurve"/>
      <point x="539" y="664" type="line"/>
      <point x="519" y="639"/>
      <point x="468" y="607"/>
    </contour>
    <contour>
      <point x="425" y="0" type="line"/>
      <point x="353" y="2"/>
      <point x="353" y="66" type="qcurve" smooth="yes"/>
      <point x="353" y="80"/>
      <point x="354" y="85" type="qcurve" smooth="yes"/>
      <point x="400" y="315" type="line" smooth="yes"/>
      <point x="406" y="345"/>
      <point x="406" y="370" type="qcurve" smooth="yes"/>
      <point x="406" y="442"/>
      <point x="338" y="442" type="qcurve" smooth="yes"/>
      <point x="278" y="442"/>
      <point x="197" y="335"/>
      <point x="187" y="280" type="qcurve"/>
      <point x="131" y="0" type="line"/>
      <point x="27" y="0" type="line"/>
      <point x="131" y="520" type="line"/>
      <point x="235" y="520" type="line"/>
      <point x="213" y="409" type="line"/>
      <point x="218" y="409" type="line"/>
      <point x="247" y="469"/>
      <point x="325" y="532"/>
      <point x="383" y="532" type="qcurve" smooth="yes"/>
      <point x="448" y="532"/>
      <point x="513" y="458"/>
      <point x="513" y="392" type="qcurve" smooth="yes"/>
      <point x="513" y="358"/>
      <point x="505" y="322" type="qcurve"/>
      <point x="458" y="87" type="line"/>
      <point x="521" y="87" type="line"/>
      <point x="504" y="0" type="line"/>
    </contour>
  </outline>
</glyph>
<glyph name="otilde" format="2">
  <advance width="548"/>
  <unicode hex="00F5"/>
  <outline>
    <contour>
      <point x="246" y="76" type="qcurve" smooth="yes"/>
      <point x="295" y="76"/>
      <point x="367" y="148"/>
      <point x="382" y="217" type="qcurve" smooth="yes"/>
      <point x="399" y="300" type="line"/>
      <point x="403" y="317"/>
      <point x="403" y="339" type="qcurve" smooth="yes"/>
      <point x="403" y="387"/>
      <point x="352" y="444"/>
      <point x="302" y="444" type="qcurve" smooth="yes"/>
      <point x="253" y="444"/>
      <point x="181" y="372"/>
      <point x="166" y="303" type="qcurve" smooth="yes"/>
      <point x="149" y="220" type="line"/>
      <point x="145" y="204"/>
      <point x="145" y="181" type="qcurve" smooth="yes"/>
      <point x="145" y="133"/>
      <point x="196" y="76"/>
    </contour>
    <contour>
      <point x="238" y="-12" type="qcurve" smooth="yes"/>
      <point x="150" y="-12"/>
      <point x="42" y="98"/>
      <point x="42" y="203" type="qcurve" smooth="yes"/>
      <point x="42" y="337"/>
      <point x="118" y="435" type="qcurve" smooth="yes"/>
      <point x="153" y="480"/>
      <point x="251" y="532"/>
      <point x="310" y="532" type="qcurve" smooth="yes"/>
      <point x="398" y="532"/>
      <point x="506" y="422"/>
      <point x="506" y="317" type="qcurve" smooth="yes"/>
      <point x="506" y="181"/>
      <point x="354" y="-12"/>
    </contour>
    <contour>
      <point x="410" y="607" type="qcurve" smooth="yes"/>
      <point x="388" y="607"/>
      <point x="356" y="620"/>
      <point x="340" y="628" type="qcurve"/>
      <point x="335" y="631" type="line" smooth="yes"/>
      <point x="296" y="654"/>
      <point x="267" y="654" type="qcurve" smooth="yes"/>
      <point x="250" y="654"/>
      <point x="225" y="641"/>
      <point x="208" y="628" type="qcurve"/>
      <point x="173" y="679" type="line"/>
      <point x="193" y="704"/>
      <point x="244" y="736"/>
      <point x="279" y="736" type="qcurve" smooth="yes"/>
      <point x="302" y="736"/>
      <point x="337" y="722"/>
      <point x="354" y="713" type="qcurve"/>
      <point x="394" y="690"/>
      <point x="422" y="690" type="qcurve" smooth="yes"/>
      <point x="439" y="690"/>
      <point x="464" y="703"/>
      <point x="481" y="716" type="qcurve"/>
      <point x="516" y="664" type="line"/>
      <point x="496" y="639"/>
      <point x="445" y="607"/>
    </contour>
  </outline>
</glyph>
<glyph name="odieresis" format="2">
  <advance width="548"/>
  <unicode hex="00F6"/>
  <outline>
    <contour>
      <point x="239" y="610" type="qcurve" smooth="yes"/>
      <point x="213" y="610"/>
      <point x="188" y="632"/>
      <point x="188" y="650" type="qcurve" smooth="yes"/>
      <point x="188" y="658"/>
      <point x="198" y="703"/>
      <point x="213" y="719" type="qcurve"/>
      <point x="230" y="734"/>
      <point x="263" y="734" type="qcurve" smooth="yes"/>
      <point x="312" y="734"/>
      <point x="312" y="694" type="qcurve" smooth="yes"/>
      <point x="312" y="688"/>
      <point x="308" y="664" type="qcurve"/>
      <point x="297" y="610"/>
    </contour>
    <contour>
      <point x="428" y="610" type="qcurve" smooth="yes"/>
      <point x="402" y="610"/>
      <point x="377" y="632"/>
      <point x="377" y="650" type="qcurve" smooth="yes"/>
      <point x="377" y="658"/>
      <point x="387" y="703"/>
      <point x="402" y="719" type="qcurve"/>
      <point x="419" y="734"/>
      <point x="452" y="734" type="qcurve" smooth="yes"/>
      <point x="501" y="734"/>
      <point x="501" y="694" type="qcurve" smooth="yes"/>
      <point x="501" y="688"/>
      <point x="497" y="664" type="qcurve"/>
      <point x="486" y="610"/>
    </contour>
    <contour>
      <point x="238" y="-12" type="qcurve" smooth="yes"/>
      <point x="150" y="-12"/>
      <point x="42" y="98"/>
      <point x="42" y="203" type="qcurve" smooth="yes"/>
      <point x="42" y="337"/>
      <point x="118" y="435" type="qcurve" smooth="yes"/>
      <point x="153" y="480"/>
      <point x="251" y="532"/>
      <point x="310" y="532" type="qcurve" smooth="yes"/>
      <point x="398" y="532"/>
      <point x="506" y="422"/>
      <point x="506" y="317" type="qcurve" smooth="yes"/>
      <point x="506" y="181"/>
      <point x="354" y="-12"/>
    </contour>
    <contour>
      <point x="246" y="76" type="qcurve" smooth="yes"/>
      <point x="295" y="76"/>
      <point x="367" y="148"/>
      <point x="382" y="217" type="qcurve" smooth="yes"/>
      <point x="399" y="300" type="line"/>
      <point x="403" y="317"/>
      <point x="403" y="339" type="qcurve" smooth="yes"/>
      <point x="403" y="387"/>
      <point x="352" y="444"/>
      <point x="302" y="444" type="qcurve" smooth="yes"/>
      <point x="253" y="444"/>
      <point x="181" y="372"/>
      <point x="166" y="303" type="qcurve" smooth="yes"/>
      <point x="149" y="220" type="line"/>
      <point x="145" y="204"/>
      <point x="145" y="181" type="qcurve" smooth="yes"/>
      <point x="145" y="133"/>
      <point x="196" y="76"/>
    </contour>
  </outline>
</glyph>
<glyph name="divide" format="2">
  <advance width="600"/>
  <unicode hex="00F7"/>
  <outline>
    <contour>
      <point x="260" y="42" type="qcurve" smooth="yes"/>
      <point x="199" y="42"/>
      <point x="199" y="85" type="qcurve" smooth="yes"/>
      <point x="199" y="105"/>
      <point x="203" y="120" type="qcurve"/>
      <point x="215" y="179"/>
      <point x="281" y="179" type="qcurve" smooth="yes"/>
      <point x="342" y="179"/>
      <point x="342" y="135" type="qcurve" smooth="yes"/>
      <point x="342" y="115"/>
      <point x="338" y="100" type="qcurve"/>
      <point x="326" y="42"/>
    </contour>
    <contour>
      <point x="337" y="431" type="qcurve" smooth="yes"/>
      <point x="276" y="431"/>
      <point x="276" y="475" type="qcurve" smooth="yes"/>
      <point x="276" y="495"/>
      <point x="280" y="510" type="qcurve"/>
      <point x="292" y="568"/>
      <point x="358" y="568" type="qcurve" smooth="yes"/>
      <point x="419" y="568"/>
      <point x="419" y="525" type="qcurve" smooth="yes"/>
      <point x="419" y="505"/>
      <point x="415" y="490" type="qcurve"/>
      <point x="403" y="431"/>
    </contour>
    <contour>
      <point x="72" y="262" type="line"/>
      <point x="90" y="350" type="line"/>
      <point x="546" y="350" type="line"/>
      <point x="528" y="262" type="line"/>
    </contour>
  </outline>
</glyph>
<glyph name="Aogonek" format="2">
  <advance width="638"/>
  <unicode hex="0104"/>
  <outline>
    <contour>
      <point x="391" y="598" type="line"/>
      <point x="384" y="598" type="line"/>
      <point x="228" y="283" type="line"/>
      <point x="424" y="283" type="line"/>
    </contour>
    <contour>
      <point x="470" y="-209" type="qcurve" smooth="yes"/>
      <point x="428" y="-209"/>
      <point x="364" y="-171"/>
      <point x="364" y="-131" type="qcurve" smooth="yes"/>
      <point x="364" y="-51"/>
      <point x="494" y="-5" type="qcurve"/>
      <point x="493" y="0" type="line"/>
      <point x="455" y="0" type="line"/>
      <point x="433" y="189" type="line"/>
      <point x="183" y="189" type="line"/>
      <point x="86" y="0" type="line"/>
      <point x="-30" y="0" type="line"/>
      <point x="337" y="698" type="line"/>
      <point x="477" y="698" type="line"/>
      <point x="565" y="0" type="line"/>
      <point x="488" y="-51"/>
      <point x="466" y="-76" type="qcurve" smooth="yes"/>
      <point x="447" y="-98"/>
      <point x="447" y="-117" type="qcurve" smooth="yes"/>
      <point x="447" y="-147"/>
      <point x="480" y="-147" type="qcurve" smooth="yes"/>
      <point x="513" y="-147"/>
      <point x="534" y="-120" type="qcurve"/>
      <point x="578" y="-167" type="line"/>
      <point x="541" y="-209"/>
    </contour>
  </outline>
</glyph>
<glyph name="ccaron" format="2">
  <advance width="491"/>
  <unicode hex="010D"/>
  <outline>
    <contour>
      <point x="269" y="594" type="line"/>
      <point x="179" y="744" type="line"/>
      <point x="236" y="786" type="line"/>
      <point x="328" y="670" type="line"/>
      <point x="467" y="786" type="line"/>
      <point x="521" y="744" type="line"/>
      <point x="376" y="594" type="line"/>
    </contour>
    <contour>
      <point x="237" y="-12" type="qcurve" smooth="yes"/>
      <point x="150" y="-12"/>
      <point x="42" y="99"/>
      <point x="42" y="206" type="qcurve" smooth="yes"/>
      <point x="42" y="343"/>
      <point x="190" y="532"/>
      <point x="306" y="532" type="qcurve" smooth="yes"/>
      <point x="378" y="532"/>
      <point x="471" y="463"/>
      <point x="484" y="405" type="qcurve"/>
      <point x="397" y="370" type="line"/>
      <point x="386" y="405"/>
      <point x="343" y="444"/>
      <point x="301" y="444" type="qcurve" smooth="yes"/>
      <point x="193" y="444"/>
      <point x="167" y="313" type="qcurve" smooth="yes"/>
      <point x="150" y="227" type="line" smooth="yes"/>
      <point x="145" y="203"/>
      <point x="145" y="183" type="qcurve" smooth="yes"/>
      <point x="145" y="135"/>
      <point x="195" y="76"/>
      <point x="247" y="76" type="qcurve" smooth="yes"/>
      <point x="285" y="76"/>
      <point x="341" y="121"/>
      <point x="367" y="169" type="qcurve"/>
      <point x="447" y="131" type="line"/>
      <point x="380" y="-12"/>
    </contour>
  </outline>
</glyph>
<glyph name="Dcaron" format="2">
  <advance width="665"/>
  <unicode hex="010E"/>
  <outline>
    <contour>
      <point x="345" y="760" type="line"/>
      <point x="254" y="910" type="line"/>
      <point x="311" y="953" type="line"/>
      <point x="404" y="837" type="line"/>
      <point x="543" y="953" type="line"/>
      <point x="597" y="910" type="line"/>
      <point x="451" y="760" type="line"/>
    </contour>
    <contour>
      <point x="32" y="0" type="line"/>
      <point x="172" y="698" type="line"/>
      <point x="385" y="698" type="line" smooth="yes"/>
      <point x="502" y="698"/>
      <point x="636" y="563"/>
      <point x="636" y="431" type="qcurve" smooth="yes"/>
      <point x="636" y="259"/>
      <point x="544" y="130" type="qcurve" smooth="yes"/>
      <point x="499" y="69"/>
      <point x="366" y="0"/>
      <point x="281" y="0" type="qcurve" smooth="yes"/>
    </contour>
    <contour>
      <point x="287" y="97" type="line" smooth="yes"/>
      <point x="368" y="97"/>
      <point x="478" y="195"/>
      <point x="499" y="292" type="qcurve" smooth="yes"/>
      <point x="519" y="392" type="line"/>
      <point x="525" y="430"/>
      <point x="525" y="454" type="qcurve" smooth="yes"/>
      <point x="525" y="529"/>
      <point x="450" y="601"/>
      <point x="387" y="601" type="qcurve" smooth="yes"/>
      <point x="261" y="601" type="line"/>
      <point x="160" y="97" type="line"/>
    </contour>
  </outline>
</glyph>
<glyph name="Dcroat" format="2">
  <advance width="669"/>
  <unicode hex="0110"/>
  <outline>
    <contour>
      <point x="291" y="97" type="line" smooth="yes"/>
      <point x="372" y="97"/>
      <point x="482" y="195"/>
      <point x="503" y="292" type="qcurve" smooth="yes"/>
      <point x="523" y="392" type="line"/>
      <point x="529" y="430"/>
      <point x="529" y="454" type="qcurve" smooth="yes"/>
      <point x="529" y="529"/>
      <point x="454" y="601"/>
      <point x="390" y="601" type="qcurve" smooth="yes"/>
      <point x="265" y="601" type="line"/>
      <point x="226" y="403" type="line"/>
      <point x="350" y="403" type="line"/>
      <point x="333" y="319" type="line"/>
      <point x="209" y="319" type="line"/>
      <point x="164" y="97" type="line"/>
    </contour>
    <contour>
      <point x="36" y="0" type="line"/>
      <point x="100" y="319" type="line"/>
      <point x="25" y="319" type="line"/>
      <point x="42" y="403" type="line"/>
      <point x="117" y="403" type="line"/>
      <point x="176" y="698" type="line"/>
      <point x="389" y="698" type="line" smooth="yes"/>
      <point x="506" y="698"/>
      <point x="640" y="563"/>
      <point x="640" y="431" type="qcurve" smooth="yes"/>
      <point x="640" y="259"/>
      <point x="548" y="130" type="qcurve"/>
      <point x="502" y="69"/>
      <point x="369" y="0"/>
      <point x="284" y="0" type="qcurve" smooth="yes"/>
    </contour>
  </outline>
</glyph>
<glyph name="Ebreve" format="2">
  <advance width="571"/>
  <unicode hex="0114"/>
  <outline>
    <contour>
      <point x="397" y="755" type="qcurve" smooth="yes"/>
      <point x="326" y="755"/>
      <point x="288" y="805" type="qcurve"/>
      <point x="255" y="852"/>
      <point x="249" y="905" type="qcurve"/>
      <point x="309" y="934" type="line"/>
      <point x="323" y="903" type="line" smooth="yes"/>
      <point x="337" y="870"/>
      <point x="371" y="833"/>
      <point x="401" y="833" type="qcurve" smooth="yes"/>
      <point x="455" y="833"/>
      <point x="500" y="904" type="qcurve"/>
      <point x="522" y="934" type="line"/>
      <point x="585" y="903" type="line"/>
      <point x="561" y="848"/>
      <point x="517" y="804" type="qcurve" smooth="yes"/>
      <point x="467" y="755"/>
    </contour>
    <contour>
      <point x="32" y="0" type="line"/>
      <point x="172" y="698" type="line"/>
      <point x="599" y="698" type="line"/>
      <point x="579" y="602" type="line"/>
      <point x="261" y="602" type="line"/>
      <point x="221" y="400" type="line"/>
      <point x="505" y="400" type="line"/>
      <point x="486" y="304" type="line"/>
      <point x="202" y="304" type="line"/>
      <point x="160" y="96" type="line"/>
      <point x="492" y="96" type="line"/>
      <point x="473" y="0" type="line"/>
    </contour>
  </outline>
</glyph>
<glyph name="Edotaccent" format="2">
  <advance width="571"/>
  <unicode hex="0116"/>
  <outline>
    <contour>
      <point x="32" y="0" type="line"/>
      <point x="172" y="698" type="line"/>
      <point x="599" y="698" type="line"/>
      <point x="579" y="602" type="line"/>
      <point x="261" y="602" type="line"/>
      <point x="221" y="400" type="line"/>
      <point x="505" y="400" type="line"/>
      <point x="486" y="304" type="line"/>
      <point x="202" y="304" type="line"/>
      <point x="160" y="96" type="line"/>
      <point x="492" y="96" type="line"/>
      <point x="473" y="0" type="line"/>
    </contour>
    <contour>
      <point x="397" y="772" type="qcurve" smooth="yes"/>
      <point x="341" y="772"/>
      <point x="341" y="817" type="qcurve" smooth="yes"/>
      <point x="341" y="822"/>
      <point x="343" y="831"/>
      <point x="344" y="841"/>
      <point x="346" y="848" type="qcurve"/>
      <point x="351" y="874"/>
      <point x="383" y="904"/>
      <point x="418" y="904" type="qcurve" smooth="yes"/>
      <point x="474" y="904"/>
      <point x="474" y="859" type="qcurve" smooth="yes"/>
      <point x="474" y="855"/>
      <point x="472" y="845"/>
      <point x="471" y="835"/>
      <point x="469" y="828" type="qcurve"/>
      <point x="464" y="802"/>
      <point x="432" y="772"/>
    </contour>
  </outline>
</glyph>
<glyph name="Ecaron" format="2">
  <advance width="571"/>
  <unicode hex="011A"/>
  <outline>
    <contour>
      <point x="341" y="760" type="line"/>
      <point x="250" y="910" type="line"/>
      <point x="307" y="953" type="line"/>
      <point x="400" y="837" type="line"/>
      <point x="539" y="953" type="line"/>
      <point x="593" y="910" type="line"/>
      <point x="447" y="760" type="line"/>
    </contour>
    <contour>
      <point x="32" y="0" type="line"/>
      <point x="172" y="698" type="line"/>
      <point x="599" y="698" type="line"/>
      <point x="579" y="602" type="line"/>
      <point x="261" y="602" type="line"/>
      <point x="221" y="400" type="line"/>
      <point x="505" y="400" type="line"/>
      <point x="486" y="304" type="line"/>
      <point x="202" y="304" type="line"/>
      <point x="160" y="96" type="line"/>
      <point x="492" y="96" type="line"/>
      <point x="473" y="0" type="line"/>
    </contour>
  </outline>
</glyph>
<glyph name="gcircumflex" format="2">
  <advance width="566"/>
  <unicode hex="011D"/>
  <outline>
    <contour>
      <point x="235" y="83" type="qcurve" smooth="yes"/>
      <point x="289" y="83"/>
      <point x="334" y="133" type="qcurve" smooth="yes"/>
      <point x="377" y="179"/>
      <point x="391" y="248" type="qcurve" smooth="yes"/>
      <point x="410" y="348"/>
      <point x="410" y="358" type="qcurve" smooth="yes"/>
      <point x="410" y="387"/>
      <point x="370" y="443"/>
      <point x="310" y="443" type="qcurve" smooth="yes"/>
      <point x="199" y="443"/>
      <point x="170" y="303" type="qcurve" smooth="yes"/>
      <point x="156" y="236" type="line"/>
      <point x="151" y="208"/>
      <point x="151" y="182" type="qcurve" smooth="yes"/>
      <point x="151" y="139"/>
      <point x="193" y="83"/>
    </contour>
    <contour>
      <point x="202" y="-212" type="qcurve" smooth="yes"/>
      <point x="66" y="-212"/>
      <point x="3" y="-121" type="qcurve"/>
      <point x="73" y="-59" type="line"/>
      <point x="114" y="-125"/>
      <point x="201" y="-125" type="qcurve" smooth="yes"/>
      <point x="317" y="-125"/>
      <point x="344" y="12" type="qcurve" smooth="yes"/>
      <point x="366" y="122" type="line"/>
      <point x="362" y="122" type="line"/>
      <point x="332" y="58"/>
      <point x="252" y="-6"/>
      <point x="193" y="-6" type="qcurve" smooth="yes"/>
      <point x="122" y="-6"/>
      <point x="44" y="99"/>
      <point x="44" y="185" type="qcurve" smooth="yes"/>
      <point x="44" y="276"/>
      <point x="103" y="434"/>
      <point x="214" y="532"/>
      <point x="291" y="532" type="qcurve" smooth="yes"/>
      <point x="341" y="532"/>
      <point x="415" y="479"/>
      <point x="424" y="433" type="qcurve"/>
      <point x="429" y="433" type="line"/>
      <point x="446" y="520" type="line"/>
      <point x="550" y="520" type="line"/>
      <point x="447" y="4" type="line" smooth="yes"/>
      <point x="427" y="-100"/>
      <point x="310" y="-212"/>
    </contour>
    <contour>
      <point x="457" y="585" type="line"/>
      <point x="362" y="701" type="line"/>
      <point x="225" y="586" type="line"/>
      <point x="173" y="629" type="line"/>
      <point x="318" y="778" type="line"/>
      <point x="424" y="778" type="line"/>
      <point x="514" y="628" type="line"/>
    </contour>
  </outline>
</glyph>
<glyph name="Hbar" format="2">
  <advance width="698"/>
  <unicode hex="0126"/>
  <outline>
    <contour>
      <point x="553" y="517" type="line"/>
      <point x="248" y="517" type="line"/>
      <point x="225" y="400" type="line"/>
      <point x="531" y="400" type="line"/>
    </contour>
    <contour>
      <point x="450" y="0" type="line"/>
      <point x="512" y="304" type="line"/>
      <point x="206" y="304" type="line"/>
      <point x="144" y="0" type="line"/>
      <point x="36" y="0" type="line"/>
      <point x="139" y="517" type="line"/>
      <point x="70" y="517" type="line"/>
      <point x="87" y="599" type="line"/>
      <point x="156" y="599" type="line"/>
      <point x="176" y="698" type="line"/>
      <point x="284" y="698" type="line"/>
      <point x="264" y="599" type="line"/>
      <point x="570" y="599" type="line"/>
      <point x="590" y="698" type="line"/>
      <point x="698" y="698" type="line"/>
      <point x="678" y="599" type="line"/>
      <point x="746" y="599" type="line"/>
      <point x="730" y="517" type="line"/>
      <point x="661" y="517" type="line"/>
      <point x="558" y="0" type="line"/>
    </contour>
  </outline>
</glyph>
<glyph name="Itilde" format="2">
  <advance width="276"/>
  <unicode hex="0128"/>
  <outline>
    <contour>
      <point x="317" y="774" type="qcurve" smooth="yes"/>
      <point x="296" y="774"/>
      <point x="265" y="786"/>
      <point x="251" y="793" type="qcurve" smooth="yes"/>
      <point x="241" y="798" type="line"/>
      <point x="202" y="821"/>
      <point x="173" y="821" type="qcurve" smooth="yes"/>
      <point x="157" y="821"/>
      <point x="131" y="808"/>
      <point x="114" y="795" type="qcurve"/>
      <point x="80" y="847" type="line"/>
      <point x="123" y="904"/>
      <point x="186" y="904" type="qcurve" smooth="yes"/>
      <point x="209" y="904"/>
      <point x="244" y="890"/>
      <point x="262" y="880" type="qcurve" smooth="yes"/>
      <point x="302" y="857"/>
      <point x="330" y="857" type="qcurve" smooth="yes"/>
      <point x="347" y="857"/>
      <point x="372" y="870"/>
      <point x="389" y="883" type="qcurve"/>
      <point x="423" y="832" type="line"/>
      <point x="379" y="774"/>
    </contour>
    <contour>
      <point x="32" y="0" type="line"/>
      <point x="172" y="698" type="line"/>
      <point x="280" y="698" type="line"/>
      <point x="140" y="0" type="line"/>
    </contour>
  </outline>
</glyph>
<glyph name="itilde" format="2">
  <advance width="271"/>
  <unicode hex="0129"/>
  <outline>
    <contour>
      <point x="279" y="607" type="qcurve" smooth="yes"/>
      <point x="257" y="607"/>
      <point x="225" y="620"/>
      <point x="209" y="628" type="qcurve"/>
      <point x="204" y="631" type="line" smooth="yes"/>
      <point x="165" y="654"/>
      <point x="136" y="654" type="qcurve" smooth="yes"/>
      <point x="119" y="654"/>
      <point x="94" y="641"/>
      <point x="77" y="628" type="qcurve"/>
      <point x="42" y="679" type="line"/>
      <point x="62" y="704"/>
      <point x="113" y="736"/>
      <point x="148" y="736" type="qcurve" smooth="yes"/>
      <point x="171" y="736"/>
      <point x="206" y="722"/>
      <point x="223" y="713" type="qcurve"/>
      <point x="263" y="690"/>
      <point x="291" y="690" type="qcurve" smooth="yes"/>
      <point x="308" y="690"/>
      <point x="333" y="703"/>
      <point x="350" y="716" type="qcurve"/>
      <point x="385" y="664" type="line"/>
      <point x="365" y="639"/>
      <point x="314" y="607"/>
    </contour>
    <contour>
      <point x="121" y="0" type="line" smooth="yes"/>
      <point x="83" y="0"/>
      <point x="43" y="39"/>
      <point x="43" y="71" type="qcurve" smooth="yes"/>
      <point x="43" y="82"/>
      <point x="45" y="93" type="qcurve" smooth="yes"/>
      <point x="131" y="520" type="line"/>
      <point x="235" y="520" type="line"/>
      <point x="148" y="87" type="line"/>
      <point x="215" y="87" type="line"/>
      <point x="198" y="0" type="line"/>
    </contour>
  </outline>
</glyph>
<glyph name="Ibreve" format="2">
  <advance width="276"/>
  <unicode hex="012C"/>
  <outline>
    <contour>
      <point x="32" y="0" type="line"/>
      <point x="172" y="698" type="line"/>
      <point x="280" y="698" type="line"/>
      <point x="140" y="0" type="line"/>
    </contour>
    <contour>
      <point x="241" y="755" type="qcurve" smooth="yes"/>
      <point x="170" y="755"/>
      <point x="132" y="805" type="qcurve"/>
      <point x="99" y="852"/>
      <point x="93" y="905" type="qcurve"/>
      <point x="153" y="934" type="line"/>
      <point x="167" y="903" type="line" smooth="yes"/>
      <point x="181" y="870"/>
      <point x="215" y="833"/>
      <point x="245" y="833" type="qcurve" smooth="yes"/>
      <point x="299" y="833"/>
      <point x="344" y="904" type="qcurve"/>
      <point x="366" y="934" type="line"/>
      <point x="429" y="903" type="line"/>
      <point x="405" y="848"/>
      <point x="361" y="804" type="qcurve" smooth="yes"/>
      <point x="311" y="755"/>
    </contour>
  </outline>
</glyph>
<glyph name="ibreve" format="2">
  <advance width="271"/>
  <unicode hex="012D"/>
  <outline>
    <contour>
      <point x="201" y="589" type="qcurve" smooth="yes"/>
      <point x="130" y="589"/>
      <point x="93" y="639" type="qcurve"/>
      <point x="61" y="686"/>
      <point x="54" y="739" type="qcurve"/>
      <point x="114" y="768" type="line"/>
      <point x="128" y="739" type="line"/>
      <point x="142" y="705"/>
      <point x="176" y="668"/>
      <point x="206" y="668" type="qcurve" smooth="yes"/>
      <point x="233" y="668"/>
      <point x="277" y="702"/>
      <point x="305" y="740" type="qcurve"/>
      <point x="327" y="768" type="line"/>
      <point x="390" y="737" type="line"/>
      <point x="319" y="589"/>
    </contour>
    <contour>
      <point x="121" y="0" type="line" smooth="yes"/>
      <point x="83" y="0"/>
      <point x="43" y="39"/>
      <point x="43" y="71" type="qcurve" smooth="yes"/>
      <point x="43" y="82"/>
      <point x="45" y="93" type="qcurve" smooth="yes"/>
      <point x="131" y="520" type="line"/>
      <point x="235" y="520" type="line"/>
      <point x="148" y="87" type="line"/>
      <point x="215" y="87" type="line"/>
      <point x="198" y="0" type="line"/>
    </contour>
  </outline>
</glyph>
<glyph name="iogonek" format="2">
  <advance width="271"/>
  <unicode hex="012F"/>
  <outline>
    <contour>
      <point x="103" y="-209" type="qcurve" smooth="yes"/>
      <point x="61" y="-209"/>
      <point x="-3" y="-171"/>
      <point x="-3" y="-131" type="qcurve" smooth="yes"/>
      <point x="-3" y="-51"/>
      <point x="129" y="-5" type="qcurve"/>
      <point x="128" y="0" type="line"/>
      <point x="121" y="0" type="line" smooth="yes"/>
      <point x="83" y="0"/>
      <point x="43" y="39"/>
      <point x="43" y="70" type="qcurve" smooth="yes"/>
      <point x="43" y="80"/>
      <point x="131" y="520" type="qcurve"/>
      <point x="235" y="520" type="line"/>
      <point x="148" y="87" type="line"/>
      <point x="215" y="87" type="line"/>
      <point x="198" y="0" type="line"/>
      <point x="121" y="-51"/>
      <point x="99" y="-76" type="qcurve" smooth="yes"/>
      <point x="80" y="-98"/>
      <point x="80" y="-117" type="qcurve" smooth="yes"/>
      <point x="80" y="-147"/>
      <point x="114" y="-147" type="qcurve" smooth="yes"/>
      <point x="143" y="-147"/>
      <point x="168" y="-120" type="qcurve"/>
      <point x="211" y="-167" type="line"/>
      <point x="176" y="-209"/>
    </contour>
    <contour>
      <point x="204" y="613" type="qcurve" smooth="yes"/>
      <point x="175" y="613"/>
      <point x="149" y="637"/>
      <point x="149" y="655" type="qcurve" smooth="yes"/>
      <point x="149" y="665"/>
      <point x="160" y="712"/>
      <point x="175" y="729" type="qcurve"/>
      <point x="192" y="744"/>
      <point x="226" y="744" type="qcurve" smooth="yes"/>
      <point x="255" y="744"/>
      <point x="281" y="720"/>
      <point x="281" y="702" type="qcurve" smooth="yes"/>
      <point x="281" y="692"/>
      <point x="270" y="645"/>
      <point x="239" y="613"/>
    </contour>
  </outline>
</glyph>
<glyph name="Idotaccent" format="2">
  <advance width="276"/>
  <unicode hex="0130"/>
  <outline>
    <contour>
      <point x="241" y="772" type="qcurve" smooth="yes"/>
      <point x="185" y="772"/>
      <point x="185" y="817" type="qcurve" smooth="yes"/>
      <point x="185" y="822"/>
      <point x="187" y="831"/>
      <point x="188" y="841"/>
      <point x="190" y="848" type="qcurve"/>
      <point x="195" y="874"/>
      <point x="227" y="904"/>
      <point x="262" y="904" type="qcurve" smooth="yes"/>
      <point x="318" y="904"/>
      <point x="318" y="859" type="qcurve" smooth="yes"/>
      <point x="318" y="855"/>
      <point x="316" y="845"/>
      <point x="315" y="835"/>
      <point x="313" y="828" type="qcurve"/>
      <point x="308" y="802"/>
      <point x="276" y="772"/>
    </contour>
    <contour>
      <point x="32" y="0" type="line"/>
      <point x="172" y="698" type="line"/>
      <point x="280" y="698" type="line"/>
      <point x="140" y="0" type="line"/>
    </contour>
  </outline>
</glyph>
<glyph name="jcircumflex" format="2">
  <advance width="263"/>
  <unicode hex="0135"/>
  <outline>
    <contour>
      <point x="-91" y="-200" type="line"/>
      <point x="-74" y="-113" type="line"/>
      <point x="6" y="-113" type="line"/>
      <point x="133" y="520" type="line"/>
      <point x="237" y="520" type="line"/>
      <point x="115" y="-82" type="line"/>
      <point x="104" y="-142"/>
      <point x="42" y="-200"/>
      <point x="-19" y="-200" type="qcurve" smooth="yes"/>
    </contour>
    <contour>
      <point x="222" y="701" type="line"/>
      <point x="85" y="586" type="line"/>
      <point x="33" y="629" type="line"/>
      <point x="178" y="778" type="line"/>
      <point x="284" y="778" type="line"/>
      <point x="374" y="628" type="line"/>
      <point x="317" y="585" type="line"/>
    </contour>
  </outline>
</glyph>
<glyph name="Kcommaaccent" format="2">
  <advance width="633"/>
  <unicode hex="0136"/>
  <outline>
    <contour>
      <point x="161" y="-258" type="line"/>
      <point x="187" y="-236"/>
      <point x="216" y="-197"/>
      <point x="227" y="-172" type="qcurve"/>
      <point x="195" y="-165"/>
      <point x="195" y="-134" type="qcurve"/>
      <point x="198" y="-109" type="line"/>
      <point x="210" y="-56"/>
      <point x="264" y="-56" type="qcurve" smooth="yes"/>
      <point x="313" y="-56"/>
      <point x="313" y="-99" type="qcurve" smooth="yes"/>
      <point x="313" y="-108"/>
      <point x="311" y="-117"/>
      <point x="310" y="-124" type="qcurve"/>
      <point x="289" y="-206"/>
      <point x="229" y="-258" type="qcurve"/>
    </contour>
    <contour>
      <point x="450" y="0" type="line"/>
      <point x="303" y="324" type="line"/>
      <point x="182" y="208" type="line"/>
      <point x="140" y="0" type="line"/>
      <point x="32" y="0" type="line"/>
      <point x="172" y="698" type="line"/>
      <point x="281" y="698" type="line"/>
      <point x="211" y="351" type="line"/>
      <point x="217" y="351" type="line"/>
      <point x="332" y="473" type="line"/>
      <point x="555" y="698" type="line"/>
      <point x="689" y="698" type="line"/>
      <point x="387" y="396" type="line"/>
      <point x="569" y="0" type="line"/>
    </contour>
  </outline>
</glyph>
<glyph name="u0137" format="2">
  <advance width="532"/>
  <unicode hex="0137"/>
  <outline>
    <contour>
      <point x="131" y="-258" type="line"/>
      <point x="157" y="-236"/>
      <point x="186" y="-197"/>
      <point x="197" y="-172" type="qcurve"/>
      <point x="165" y="-165"/>
      <point x="165" y="-134" type="qcurve"/>
      <point x="168" y="-109" type="line"/>
      <point x="180" y="-56"/>
      <point x="234" y="-56" type="qcurve" smooth="yes"/>
      <point x="283" y="-56"/>
      <point x="283" y="-99" type="qcurve" smooth="yes"/>
      <point x="283" y="-108"/>
      <point x="281" y="-117"/>
      <point x="280" y="-124" type="qcurve"/>
      <point x="259" y="-206"/>
      <point x="199" y="-258" type="qcurve"/>
    </contour>
    <contour>
      <point x="411" y="0" type="line" smooth="yes"/>
      <point x="341" y="0"/>
      <point x="320" y="65" type="qcurve"/>
      <point x="249" y="243" type="line"/>
      <point x="163" y="162" type="line"/>
      <point x="131" y="0" type="line"/>
      <point x="27" y="0" type="line"/>
      <point x="175" y="740" type="line"/>
      <point x="279" y="740" type="line"/>
      <point x="189" y="289" type="line"/>
      <point x="195" y="289" type="line"/>
      <point x="278" y="377" type="line"/>
      <point x="431" y="520" type="line"/>
      <point x="554" y="520" type="line"/>
      <point x="331" y="310" type="line"/>
      <point x="422" y="87" type="line"/>
      <point x="485" y="87" type="line"/>
      <point x="468" y="0" type="line"/>
    </contour>
  </outline>
</glyph>
<glyph name="kgreenlandic" format="2">
  <advance width="543"/>
  <unicode hex="0138"/>
  <outline>
    <contour>
      <point x="411" y="0" type="line" smooth="yes"/>
      <point x="376" y="0"/>
      <point x="333" y="31"/>
      <point x="321" y="65" type="qcurve"/>
      <point x="254" y="234" type="line"/>
      <point x="160" y="149" type="line"/>
      <point x="130" y="0" type="line"/>
      <point x="27" y="0" type="line"/>
      <point x="131" y="520" type="line"/>
      <point x="235" y="520" type="line"/>
      <point x="185" y="272" type="line"/>
      <point x="191" y="272" type="line"/>
      <point x="284" y="367" type="line"/>
      <point x="450" y="520" type="line"/>
      <point x="573" y="520" type="line"/>
      <point x="338" y="300" type="line"/>
      <point x="422" y="87" type="line"/>
      <point x="486" y="87" type="line"/>
      <point x="469" y="0" type="line"/>
    </contour>
  </outline>
</glyph>
<glyph name="Lacute" format="2">
  <advance width="498"/>
  <unicode hex="0139"/>
  <outline>
    <contour>
      <point x="190" y="783" type="line"/>
      <point x="300" y="962" type="line"/>
      <point x="387" y="916" type="line"/>
      <point x="254" y="749" type="line"/>
    </contour>
    <contour>
      <point x="32" y="0" type="line"/>
      <point x="172" y="698" type="line"/>
      <point x="281" y="698" type="line"/>
      <point x="160" y="96" type="line"/>
      <point x="434" y="96" type="line"/>
      <point x="415" y="0" type="line"/>
    </contour>
  </outline>
</glyph>
<glyph name="lcaron" format="2">
  <advance width="303"/>
  <unicode hex="013E"/>
  <outline>
    <contour>
      <point x="299" y="542" type="line"/>
      <point x="341" y="740" type="line"/>
      <point x="461" y="740" type="line"/>
      <point x="371" y="542" type="line"/>
    </contour>
    <contour>
      <point x="120" y="0" type="line" smooth="yes"/>
      <point x="82" y="0"/>
      <point x="42" y="39"/>
      <point x="42" y="70" type="qcurve" smooth="yes"/>
      <point x="42" y="80"/>
      <point x="174" y="740" type="qcurve"/>
      <point x="278" y="740" type="line"/>
      <point x="147" y="87" type="line"/>
      <point x="219" y="87" type="line"/>
      <point x="202" y="0" type="line"/>
    </contour>
  </outline>
</glyph>
<glyph name="Nacute" format="2">
  <advance width="691"/>
  <unicode hex="0143"/>
  <outline>
    <contour>
      <point x="434" y="0" type="line"/>
      <point x="298" y="385" type="line"/>
      <point x="249" y="540" type="line"/>
      <point x="243" y="540" type="line"/>
      <point x="135" y="0" type="line"/>
      <point x="32" y="0" type="line"/>
      <point x="172" y="698" type="line"/>
      <point x="292" y="698" type="line"/>
      <point x="428" y="313" type="line"/>
      <point x="477" y="158" type="line"/>
      <point x="483" y="158" type="line"/>
      <point x="591" y="698" type="line"/>
      <point x="694" y="698" type="line"/>
      <point x="554" y="0" type="line"/>
    </contour>
    <contour>
      <point x="395" y="783" type="line"/>
      <point x="505" y="962" type="line"/>
      <point x="592" y="916" type="line"/>
      <point x="459" y="749" type="line"/>
    </contour>
  </outline>
</glyph>
<glyph name="u0145" format="2">
  <advance width="691"/>
  <unicode hex="0145"/>
  <outline>
    <contour>
      <point x="179" y="-258" type="line"/>
      <point x="205" y="-236"/>
      <point x="234" y="-197"/>
      <point x="245" y="-172" type="qcurve"/>
      <point x="213" y="-165"/>
      <point x="213" y="-134" type="qcurve"/>
      <point x="216" y="-109" type="line"/>
      <point x="228" y="-56"/>
      <point x="282" y="-56" type="qcurve" smooth="yes"/>
      <point x="331" y="-56"/>
      <point x="331" y="-99" type="qcurve" smooth="yes"/>
      <point x="331" y="-108"/>
      <point x="329" y="-117"/>
      <point x="328" y="-124" type="qcurve"/>
      <point x="307" y="-206"/>
      <point x="247" y="-258" type="qcurve"/>
    </contour>
    <contour>
      <point x="434" y="0" type="line"/>
      <point x="298" y="385" type="line"/>
      <point x="249" y="540" type="line"/>
      <point x="243" y="540" type="line"/>
      <point x="135" y="0" type="line"/>
      <point x="32" y="0" type="line"/>
      <point x="172" y="698" type="line"/>
      <point x="292" y="698" type="line"/>
      <point x="428" y="313" type="line"/>
      <point x="477" y="158" type="line"/>
      <point x="483" y="158" type="line"/>
      <point x="591" y="698" type="line"/>
      <point x="694" y="698" type="line"/>
      <point x="554" y="0" type="line"/>
    </contour>
  </outline>
</glyph>
<glyph name="Ncaron" format="2">
  <advance width="691"/>
  <unicode hex="0147"/>
  <outline>
    <contour>
      <point x="434" y="0" type="line"/>
      <point x="298" y="385" type="line"/>
      <point x="249" y="540" type="line"/>
      <point x="243" y="540" type="line"/>
      <point x="135" y="0" type="line"/>
      <point x="32" y="0" type="line"/>
      <point x="172" y="698" type="line"/>
      <point x="292" y="698" type="line"/>
      <point x="428" y="313" type="line"/>
      <point x="477" y="158" type="line"/>
      <point x="483" y="158" type="line"/>
      <point x="591" y="698" type="line"/>
      <point x="694" y="698" type="line"/>
      <point x="554" y="0" type="line"/>
    </contour>
    <contour>
      <point x="393" y="760" type="line"/>
      <point x="302" y="910" type="line"/>
      <point x="359" y="953" type="line"/>
      <point x="452" y="837" type="line"/>
      <point x="591" y="953" type="line"/>
      <point x="645" y="910" type="line"/>
      <point x="499" y="760" type="line"/>
    </contour>
  </outline>
</glyph>
<glyph name="eng" format="2">
  <advance width="573"/>
  <unicode hex="014B"/>
  <outline>
    <contour>
      <point x="218" y="-200" type="line"/>
      <point x="235" y="-114" type="line"/>
      <point x="315" y="-114" type="line"/>
      <point x="401" y="318" type="line"/>
      <point x="406" y="348"/>
      <point x="406" y="369" type="qcurve" smooth="yes"/>
      <point x="406" y="442"/>
      <point x="339" y="442" type="qcurve" smooth="yes"/>
      <point x="276" y="442"/>
      <point x="198" y="335"/>
      <point x="188" y="287" type="qcurve" smooth="yes"/>
      <point x="131" y="0" type="line"/>
      <point x="27" y="0" type="line"/>
      <point x="131" y="520" type="line"/>
      <point x="235" y="520" type="line"/>
      <point x="213" y="409" type="line"/>
      <point x="218" y="409" type="line"/>
      <point x="273" y="532"/>
      <point x="383" y="532" type="qcurve" smooth="yes"/>
      <point x="449" y="532"/>
      <point x="513" y="457"/>
      <point x="513" y="391" type="qcurve" smooth="yes"/>
      <point x="513" y="361"/>
      <point x="506" y="322" type="qcurve"/>
      <point x="425" y="-82" type="line"/>
      <point x="415" y="-142"/>
      <point x="352" y="-200"/>
      <point x="290" y="-200" type="qcurve" smooth="yes"/>
    </contour>
  </outline>
</glyph>
<glyph name="Obreve" format="2">
  <advance width="687"/>
  <unicode hex="014E"/>
  <outline>
    <contour>
      <point x="436" y="755" type="qcurve" smooth="yes"/>
      <point x="365" y="755"/>
      <point x="327" y="805" type="qcurve"/>
      <point x="294" y="852"/>
      <point x="288" y="905" type="qcurve"/>
      <point x="348" y="934" type="line"/>
      <point x="362" y="903" type="line" smooth="yes"/>
      <point x="376" y="870"/>
      <point x="410" y="833"/>
      <point x="440" y="833" type="qcurve" smooth="yes"/>
      <point x="494" y="833"/>
      <point x="539" y="904" type="qcurve"/>
      <point x="561" y="934" type="line"/>
      <point x="624" y="903" type="line"/>
      <point x="600" y="848"/>
      <point x="556" y="804" type="qcurve" smooth="yes"/>
      <point x="506" y="755"/>
    </contour>
    <contour>
      <point x="303" y="-12" type="qcurve" smooth="yes"/>
      <point x="201" y="-12"/>
      <point x="129" y="57" type="qcurve"/>
      <point x="56" y="131"/>
      <point x="56" y="265" type="qcurve" smooth="yes"/>
      <point x="56" y="441"/>
      <point x="153" y="576" type="qcurve"/>
      <point x="200" y="638"/>
      <point x="331" y="710"/>
      <point x="412" y="710" type="qcurve" smooth="yes"/>
      <point x="521" y="710"/>
      <point x="588" y="642" type="qcurve" smooth="yes"/>
      <point x="660" y="568"/>
      <point x="660" y="433" type="qcurve" smooth="yes"/>
      <point x="660" y="258"/>
      <point x="563" y="123" type="qcurve"/>
      <point x="516" y="61"/>
      <point x="384" y="-12"/>
    </contour>
    <contour>
      <point x="313" y="85" type="qcurve" smooth="yes"/>
      <point x="397" y="85"/>
      <point x="503" y="191"/>
      <point x="523" y="290" type="qcurve" smooth="yes"/>
      <point x="545" y="396" type="line"/>
      <point x="551" y="433"/>
      <point x="551" y="458" type="qcurve"/>
      <point x="547" y="613"/>
      <point x="404" y="613" type="qcurve" smooth="yes"/>
      <point x="238" y="613"/>
      <point x="192" y="406" type="qcurve"/>
      <point x="171" y="302" type="line"/>
      <point x="165" y="266"/>
      <point x="165" y="240" type="qcurve" smooth="yes"/>
      <point x="165" y="167"/>
      <point x="241" y="85"/>
    </contour>
  </outline>
</glyph>
<glyph name="Ohungarumlaut" format="2">
  <advance width="687"/>
  <unicode hex="0150"/>
  <outline>
    <contour>
      <point x="313" y="85" type="qcurve" smooth="yes"/>
      <point x="397" y="85"/>
      <point x="503" y="191"/>
      <point x="523" y="290" type="qcurve" smooth="yes"/>
      <point x="545" y="396" type="line"/>
      <point x="551" y="433"/>
      <point x="551" y="458" type="qcurve"/>
      <point x="547" y="613"/>
      <point x="404" y="613" type="qcurve" smooth="yes"/>
      <point x="238" y="613"/>
      <point x="192" y="406" type="qcurve"/>
      <point x="171" y="302" type="line"/>
      <point x="165" y="266"/>
      <point x="165" y="240" type="qcurve" smooth="yes"/>
      <point x="165" y="167"/>
      <point x="241" y="85"/>
    </contour>
    <contour>
      <point x="303" y="-12" type="qcurve" smooth="yes"/>
      <point x="201" y="-12"/>
      <point x="129" y="57" type="qcurve"/>
      <point x="56" y="131"/>
      <point x="56" y="265" type="qcurve" smooth="yes"/>
      <point x="56" y="441"/>
      <point x="153" y="576" type="qcurve"/>
      <point x="200" y="638"/>
      <point x="331" y="710"/>
      <point x="412" y="710" type="qcurve" smooth="yes"/>
      <point x="521" y="710"/>
      <point x="588" y="642" type="qcurve" smooth="yes"/>
      <point x="660" y="568"/>
      <point x="660" y="433" type="qcurve" smooth="yes"/>
      <point x="660" y="258"/>
      <point x="563" y="123" type="qcurve"/>
      <point x="516" y="61"/>
      <point x="384" y="-12"/>
    </contour>
    <contour>
      <point x="284" y="778" type="line"/>
      <point x="392" y="958" type="line"/>
      <point x="474" y="915" type="line"/>
      <point x="343" y="749" type="line"/>
    </contour>
    <contour>
      <point x="458" y="778" type="line"/>
      <point x="566" y="958" type="line"/>
      <point x="647" y="915" type="line"/>
      <point x="516" y="749" type="line"/>
    </contour>
  </outline>
</glyph>
<glyph name="OE" format="2">
  <advance width="947"/>
  <unicode hex="0152"/>
  <outline>
    <contour>
      <point x="300" y="-12" type="qcurve" smooth="yes"/>
      <point x="194" y="-12"/>
      <point x="56" y="133"/>
      <point x="56" y="271" type="qcurve" smooth="yes"/>
      <point x="56" y="359"/>
      <point x="106" y="518"/>
      <point x="201" y="640"/>
      <point x="336" y="710"/>
      <point x="420" y="710" type="qcurve" smooth="yes"/>
      <point x="489" y="710"/>
      <point x="550" y="698" type="qcurve"/>
      <point x="975" y="698" type="line"/>
      <point x="955" y="602" type="line"/>
      <point x="637" y="602" type="line"/>
      <point x="597" y="400" type="line"/>
      <point x="881" y="400" type="line"/>
      <point x="862" y="304" type="line"/>
      <point x="578" y="304" type="line"/>
      <point x="536" y="96" type="line"/>
      <point x="868" y="96" type="line"/>
      <point x="849" y="0" type="line"/>
      <point x="409" y="0" type="line"/>
      <point x="348" y="-12"/>
    </contour>
    <contour>
      <point x="324" y="85" type="qcurve" smooth="yes"/>
      <point x="371" y="85"/>
      <point x="428" y="99" type="qcurve"/>
      <point x="528" y="601" type="line"/>
      <point x="480" y="613"/>
      <point x="415" y="613" type="qcurve" smooth="yes"/>
      <point x="232" y="613"/>
      <point x="191" y="404" type="qcurve" smooth="yes"/>
      <point x="171" y="302" type="line" smooth="yes"/>
      <point x="165" y="270"/>
      <point x="165" y="241" type="qcurve" smooth="yes"/>
      <point x="165" y="169"/>
      <point x="242" y="85"/>
    </contour>
  </outline>
</glyph>
<glyph name="oe" format="2">
  <advance width="858"/>
  <unicode hex="0153"/>
  <outline>
    <contour>
      <point x="595" y="-12" type="qcurve" smooth="yes"/>
      <point x="469" y="-12"/>
      <point x="423" y="87" type="qcurve"/>
      <point x="417" y="87" type="line"/>
      <point x="350" y="-12"/>
      <point x="235" y="-12" type="qcurve" smooth="yes"/>
      <point x="151" y="-12"/>
      <point x="42" y="100"/>
      <point x="42" y="203" type="qcurve" smooth="yes"/>
      <point x="42" y="337"/>
      <point x="118" y="435" type="qcurve" smooth="yes"/>
      <point x="154" y="480"/>
      <point x="252" y="532"/>
      <point x="311" y="532" type="qcurve" smooth="yes"/>
      <point x="427" y="532"/>
      <point x="469" y="432" type="qcurve"/>
      <point x="475" y="432" type="line"/>
      <point x="548" y="532"/>
      <point x="664" y="532" type="qcurve" smooth="yes"/>
      <point x="730" y="532"/>
      <point x="784" y="498" type="qcurve"/>
      <point x="839" y="460"/>
      <point x="839" y="395" type="qcurve" smooth="yes"/>
      <point x="839" y="310"/>
      <point x="676" y="219"/>
      <point x="493" y="215" type="qcurve"/>
      <point x="491" y="204"/>
      <point x="491" y="197" type="qcurve" smooth="yes"/>
      <point x="491" y="180" type="line" smooth="yes"/>
      <point x="491" y="133"/>
      <point x="544" y="76"/>
      <point x="602" y="76" type="qcurve" smooth="yes"/>
      <point x="685" y="76"/>
      <point x="746" y="154" type="qcurve"/>
      <point x="811" y="99" type="line"/>
      <point x="722" y="-12"/>
    </contour>
    <contour>
      <point x="505" y="288" type="line"/>
      <point x="646" y="294"/>
      <point x="693" y="317" type="qcurve" smooth="yes"/>
      <point x="718" y="329"/>
      <point x="736" y="363"/>
      <point x="736" y="385" type="qcurve" smooth="yes"/>
      <point x="736" y="438"/>
      <point x="684" y="447" type="qcurve"/>
      <point x="670" y="449"/>
      <point x="655" y="449" type="qcurve" smooth="yes"/>
      <point x="601" y="449"/>
      <point x="523" y="377"/>
      <point x="510" y="314" type="qcurve" smooth="yes"/>
    </contour>
    <contour>
      <point x="246" y="76" type="qcurve" smooth="yes"/>
      <point x="295" y="76"/>
      <point x="367" y="148"/>
      <point x="382" y="217" type="qcurve" smooth="yes"/>
      <point x="399" y="300" type="line"/>
      <point x="403" y="317"/>
      <point x="403" y="339" type="qcurve" smooth="yes"/>
      <point x="403" y="387"/>
      <point x="352" y="444"/>
      <point x="302" y="444" type="qcurve" smooth="yes"/>
      <point x="253" y="444"/>
      <point x="181" y="372"/>
      <point x="166" y="303" type="qcurve" smooth="yes"/>
      <point x="149" y="220" type="line"/>
      <point x="145" y="204"/>
      <point x="145" y="181" type="qcurve" smooth="yes"/>
      <point x="145" y="133"/>
      <point x="196" y="76"/>
    </contour>
  </outline>
</glyph>
<glyph name="u0157" format="2">
  <advance width="377"/>
  <unicode hex="0157"/>
  <outline>
    <contour>
      <point x="-36" y="-258" type="line"/>
      <point x="-10" y="-236"/>
      <point x="19" y="-197"/>
      <point x="30" y="-172" type="qcurve"/>
      <point x="-2" y="-165"/>
      <point x="-2" y="-134" type="qcurve"/>
      <point x="1" y="-109" type="line"/>
      <point x="13" y="-56"/>
      <point x="67" y="-56" type="qcurve" smooth="yes"/>
      <point x="116" y="-56"/>
      <point x="116" y="-99" type="qcurve" smooth="yes"/>
      <point x="116" y="-108"/>
      <point x="114" y="-117"/>
      <point x="113" y="-124" type="qcurve"/>
      <point x="92" y="-206"/>
      <point x="32" y="-258" type="qcurve"/>
    </contour>
    <contour>
      <point x="27" y="0" type="line"/>
      <point x="131" y="520" type="line"/>
      <point x="235" y="520" type="line"/>
      <point x="213" y="409" type="line"/>
      <point x="219" y="409" type="line"/>
      <point x="237" y="452"/>
      <point x="274" y="485" type="qcurve"/>
      <point x="317" y="520"/>
      <point x="373" y="520" type="qcurve" smooth="yes"/>
      <point x="402" y="520" type="line"/>
      <point x="381" y="417" type="line"/>
      <point x="346" y="417" type="line" smooth="yes"/>
      <point x="213" y="417"/>
      <point x="190" y="294" type="qcurve" smooth="yes"/>
      <point x="131" y="0" type="line"/>
    </contour>
  </outline>
</glyph>
<glyph name="Rcaron" format="2">
  <advance width="638"/>
  <unicode hex="0158"/>
  <outline>
    <contour>
      <point x="385" y="375" type="line" smooth="yes"/>
      <point x="471" y="375"/>
      <point x="496" y="465" type="qcurve"/>
      <point x="508" y="514"/>
      <point x="508" y="533" type="qcurve" smooth="yes"/>
      <point x="508" y="602"/>
      <point x="426" y="602" type="qcurve" smooth="yes"/>
      <point x="261" y="602" type="line"/>
      <point x="216" y="375" type="line"/>
    </contour>
    <contour>
      <point x="420" y="0" type="line"/>
      <point x="336" y="283" type="line"/>
      <point x="197" y="283" type="line"/>
      <point x="140" y="0" type="line"/>
      <point x="32" y="0" type="line"/>
      <point x="172" y="698" type="line"/>
      <point x="431" y="698" type="line" smooth="yes"/>
      <point x="527" y="698"/>
      <point x="620" y="603"/>
      <point x="620" y="525" type="qcurve" smooth="yes"/>
      <point x="620" y="446"/>
      <point x="526" y="318"/>
      <point x="442" y="296" type="qcurve"/>
      <point x="536" y="0" type="line"/>
    </contour>
    <contour>
      <point x="349" y="760" type="line"/>
      <point x="258" y="910" type="line"/>
      <point x="315" y="953" type="line"/>
      <point x="408" y="837" type="line"/>
      <point x="547" y="953" type="line"/>
      <point x="601" y="910" type="line"/>
      <point x="455" y="760" type="line"/>
    </contour>
  </outline>
</glyph>
<glyph name="tbar" format="2">
  <advance width="339"/>
  <unicode hex="0167"/>
  <outline>
    <contour>
      <point x="160" y="0" type="line" smooth="yes"/>
      <point x="112" y="0"/>
      <point x="67" y="42"/>
      <point x="67" y="79" type="qcurve" smooth="yes"/>
      <point x="67" y="96"/>
      <point x="71" y="117" type="qcurve" smooth="yes"/>
      <point x="96" y="241" type="line"/>
      <point x="41" y="241" type="line"/>
      <point x="55" y="313" type="line"/>
      <point x="110" y="313" type="line"/>
      <point x="134" y="433" type="line"/>
      <point x="58" y="433" type="line"/>
      <point x="75" y="520" type="line"/>
      <point x="114" y="520" type="line" smooth="yes"/>
      <point x="143" y="520"/>
      <point x="165" y="544"/>
      <point x="169" y="571" type="qcurve"/>
      <point x="187" y="662" type="line"/>
      <point x="284" y="662" type="line"/>
      <point x="256" y="520" type="line"/>
      <point x="360" y="520" type="line"/>
      <point x="343" y="433" type="line"/>
      <point x="238" y="433" type="line"/>
      <point x="214" y="313" type="line"/>
      <point x="304" y="313" type="line"/>
      <point x="290" y="241" type="line"/>
      <point x="200" y="241" type="line"/>
      <point x="169" y="87" type="line"/>
      <point x="270" y="87" type="line"/>
      <point x="253" y="0" type="line"/>
    </contour>
  </outline>
</glyph>
<glyph name="Utilde" format="2">
  <advance width="665"/>
  <unicode hex="0168"/>
  <outline>
    <contour>
      <point x="506" y="774" type="qcurve" smooth="yes"/>
      <point x="485" y="774"/>
      <point x="454" y="786"/>
      <point x="440" y="793" type="qcurve" smooth="yes"/>
      <point x="430" y="798" type="line"/>
      <point x="391" y="821"/>
      <point x="362" y="821" type="qcurve" smooth="yes"/>
      <point x="346" y="821"/>
      <point x="320" y="808"/>
      <point x="303" y="795" type="qcurve"/>
      <point x="269" y="847" type="line"/>
      <point x="312" y="904"/>
      <point x="375" y="904" type="qcurve" smooth="yes"/>
      <point x="398" y="904"/>
      <point x="433" y="890"/>
      <point x="451" y="880" type="qcurve" smooth="yes"/>
      <point x="491" y="857"/>
      <point x="519" y="857" type="qcurve" smooth="yes"/>
      <point x="536" y="857"/>
      <point x="561" y="870"/>
      <point x="578" y="883" type="qcurve"/>
      <point x="612" y="832" type="line"/>
      <point x="568" y="774"/>
    </contour>
    <contour>
      <point x="292" y="-12" type="qcurve" smooth="yes"/>
      <point x="189" y="-12"/>
      <point x="78" y="97"/>
      <point x="78" y="200" type="qcurve" smooth="yes"/>
      <point x="78" y="244"/>
      <point x="88" y="298" type="qcurve" smooth="yes"/>
      <point x="168" y="698" type="line"/>
      <point x="276" y="698" type="line"/>
      <point x="192" y="275" type="line"/>
      <point x="183" y="239"/>
      <point x="183" y="207" type="qcurve"/>
      <point x="188" y="88"/>
      <point x="300" y="88" type="qcurve" smooth="yes"/>
      <point x="373" y="88"/>
      <point x="459" y="177"/>
      <point x="479" y="278" type="qcurve" smooth="yes"/>
      <point x="563" y="698" type="line"/>
      <point x="671" y="698" type="line"/>
      <point x="587" y="277" type="line" smooth="yes"/>
      <point x="557" y="123"/>
      <point x="418" y="-12"/>
    </contour>
  </outline>
</glyph>
<glyph name="ubreve" format="2">
  <advance width="570"/>
  <unicode hex="016D"/>
  <outline>
    <contour>
      <point x="182" y="-12" type="qcurve" smooth="yes"/>
      <point x="118" y="-12"/>
      <point x="53" y="62"/>
      <point x="53" y="128" type="qcurve" smooth="yes"/>
      <point x="53" y="163"/>
      <point x="61" y="199" type="qcurve"/>
      <point x="125" y="520" type="line"/>
      <point x="229" y="520" type="line"/>
      <point x="166" y="204" type="line" smooth="yes"/>
      <point x="160" y="174"/>
      <point x="160" y="151" type="qcurve" smooth="yes"/>
      <point x="160" y="116"/>
      <point x="190" y="78"/>
      <point x="225" y="78" type="qcurve" smooth="yes"/>
      <point x="284" y="78"/>
      <point x="325" y="135" type="qcurve" smooth="yes"/>
      <point x="363" y="186"/>
      <point x="374" y="242" type="qcurve" smooth="yes"/>
      <point x="430" y="520" type="line"/>
      <point x="534" y="520" type="line"/>
      <point x="447" y="87" type="line"/>
      <point x="514" y="87" type="line"/>
      <point x="497" y="0" type="line"/>
      <point x="417" y="0" type="line"/>
      <point x="343" y="5"/>
      <point x="343" y="69" type="qcurve" smooth="yes"/>
      <point x="343" y="81"/>
      <point x="348" y="111" type="qcurve"/>
      <point x="343" y="111" type="line"/>
      <point x="314" y="51"/>
      <point x="238" y="-12"/>
    </contour>
    <contour>
      <point x="345" y="589" type="qcurve" smooth="yes"/>
      <point x="274" y="589"/>
      <point x="237" y="639" type="qcurve"/>
      <point x="205" y="686"/>
      <point x="198" y="739" type="qcurve"/>
      <point x="258" y="768" type="line"/>
      <point x="272" y="739" type="line"/>
      <point x="286" y="705"/>
      <point x="320" y="668"/>
      <point x="350" y="668" type="qcurve" smooth="yes"/>
      <point x="377" y="668"/>
      <point x="421" y="702"/>
      <point x="449" y="740" type="qcurve"/>
      <point x="471" y="768" type="line"/>
      <point x="534" y="737" type="line"/>
      <point x="463" y="589"/>
    </contour>
  </outline>
</glyph>
<glyph name="uring" format="2">
  <advance width="570"/>
  <unicode hex="016F"/>
  <outline>
    <contour>
      <point x="342" y="568" type="qcurve" smooth="yes"/>
      <point x="292" y="568"/>
      <point x="230" y="630"/>
      <point x="230" y="677" type="qcurve" smooth="yes"/>
      <point x="230" y="743"/>
      <point x="314" y="822"/>
      <point x="375" y="822" type="qcurve" smooth="yes"/>
      <point x="425" y="822"/>
      <point x="487" y="761"/>
      <point x="487" y="713" type="qcurve" smooth="yes"/>
      <point x="487" y="647"/>
      <point x="404" y="568"/>
    </contour>
    <contour>
      <point x="348" y="627" type="qcurve" smooth="yes"/>
      <point x="398" y="627"/>
      <point x="409" y="680" type="qcurve" smooth="yes"/>
      <point x="415" y="708"/>
      <point x="415" y="723" type="qcurve" smooth="yes"/>
      <point x="415" y="763"/>
      <point x="369" y="763" type="qcurve" smooth="yes"/>
      <point x="343" y="763"/>
      <point x="313" y="735"/>
      <point x="302" y="686"/>
      <point x="302" y="669" type="qcurve" smooth="yes"/>
      <point x="302" y="627"/>
    </contour>
    <contour>
      <point x="182" y="-12" type="qcurve" smooth="yes"/>
      <point x="118" y="-12"/>
      <point x="53" y="62"/>
      <point x="53" y="128" type="qcurve" smooth="yes"/>
      <point x="53" y="163"/>
      <point x="61" y="199" type="qcurve"/>
      <point x="125" y="520" type="line"/>
      <point x="229" y="520" type="line"/>
      <point x="166" y="204" type="line" smooth="yes"/>
      <point x="160" y="174"/>
      <point x="160" y="151" type="qcurve" smooth="yes"/>
      <point x="160" y="116"/>
      <point x="190" y="78"/>
      <point x="225" y="78" type="qcurve" smooth="yes"/>
      <point x="284" y="78"/>
      <point x="325" y="135" type="qcurve" smooth="yes"/>
      <point x="363" y="186"/>
      <point x="374" y="242" type="qcurve" smooth="yes"/>
      <point x="430" y="520" type="line"/>
      <point x="534" y="520" type="line"/>
      <point x="447" y="87" type="line"/>
      <point x="514" y="87" type="line"/>
      <point x="497" y="0" type="line"/>
      <point x="417" y="0" type="line"/>
      <point x="343" y="5"/>
      <point x="343" y="69" type="qcurve" smooth="yes"/>
      <point x="343" y="81"/>
      <point x="348" y="111" type="qcurve"/>
      <point x="343" y="111" type="line"/>
      <point x="314" y="51"/>
      <point x="238" y="-12"/>
    </contour>
  </outline>
</glyph>
<glyph name="wcircumflex" format="2">
  <advance width="762"/>
  <unicode hex="0175"/>
  <outline>
    <contour>
      <point x="434" y="0" type="line"/>
      <point x="413" y="235" type="line"/>
      <point x="403" y="385" type="line"/>
      <point x="398" y="385" type="line"/>
      <point x="335" y="244" type="line"/>
      <point x="220" y="0" type="line"/>
      <point x="100" y="0" type="line"/>
      <point x="67" y="520" type="line"/>
      <point x="169" y="520" type="line"/>
      <point x="176" y="315"/>
      <point x="182" y="109" type="qcurve"/>
      <point x="187" y="109" type="line"/>
      <point x="280" y="315"/>
      <point x="375" y="520" type="qcurve"/>
      <point x="474" y="520" type="line"/>
      <point x="490" y="315"/>
      <point x="504" y="109" type="qcurve"/>
      <point x="509" y="109" type="line"/>
      <point x="596" y="315"/>
      <point x="685" y="520" type="qcurve"/>
      <point x="787" y="520" type="line"/>
      <point x="550" y="0" type="line"/>
    </contour>
    <contour>
      <point x="458" y="701" type="line"/>
      <point x="321" y="586" type="line"/>
      <point x="269" y="629" type="line"/>
      <point x="414" y="778" type="line"/>
      <point x="520" y="778" type="line"/>
      <point x="610" y="628" type="line"/>
      <point x="553" y="585" type="line"/>
    </contour>
  </outline>
</glyph>
<glyph name="ycircumflex" format="2">
  <advance width="495"/>
  <unicode hex="0177"/>
  <outline>
    <contour>
      <point x="-24" y="-200" type="line"/>
      <point x="-7" y="-114" type="line"/>
      <point x="88" y="-114" type="line"/>
      <point x="137" y="-22" type="line"/>
      <point x="58" y="520" type="line"/>
      <point x="160" y="520" type="line"/>
      <point x="191" y="289" type="line"/>
      <point x="210" y="98" type="line"/>
      <point x="215" y="98" type="line"/>
      <point x="306" y="289" type="line"/>
      <point x="425" y="520" type="line"/>
      <point x="536" y="520" type="line"/>
      <point x="198" y="-103" type="line"/>
      <point x="172" y="-154"/>
      <point x="109" y="-200"/>
      <point x="55" y="-200" type="qcurve" smooth="yes"/>
    </contour>
    <contour>
      <point x="323" y="701" type="line"/>
      <point x="186" y="586" type="line"/>
      <point x="134" y="629" type="line"/>
      <point x="279" y="778" type="line"/>
      <point x="385" y="778" type="line"/>
      <point x="475" y="628" type="line"/>
      <point x="418" y="585" type="line"/>
    </contour>
  </outline>
</glyph>
<glyph name="Zacute" format="2">
  <advance width="566"/>
  <unicode hex="0179"/>
  <outline>
    <contour>
      <point x="327" y="783" type="line"/>
      <point x="437" y="962" type="line"/>
      <point x="524" y="916" type="line"/>
      <point x="391" y="749" type="line"/>
    </contour>
    <contour>
      <point x="-13" y="0" type="line"/>
      <point x="7" y="99" type="line"/>
      <point x="463" y="602" type="line"/>
      <point x="119" y="602" type="line"/>
      <point x="138" y="698" type="line"/>
      <point x="611" y="698" type="line"/>
      <point x="591" y="599" type="line"/>
      <point x="135" y="96" type="line"/>
      <point x="497" y="96" type="line"/>
      <point x="478" y="0" type="line"/>
    </contour>
  </outline>
</glyph>
<glyph name="Zdot" format="2">
  <advance width="566"/>
  <unicode hex="017B"/>
  <outline>
    <contour>
      <point x="381" y="772" type="qcurve" smooth="yes"/>
      <point x="325" y="772"/>
      <point x="325" y="817" type="qcurve" smooth="yes"/>
      <point x="325" y="822"/>
      <point x="327" y="831"/>
      <point x="328" y="841"/>
      <point x="330" y="848" type="qcurve"/>
      <point x="335" y="874"/>
      <point x="367" y="904"/>
      <point x="402" y="904" type="qcurve" smooth="yes"/>
      <point x="458" y="904"/>
      <point x="458" y="859" type="qcurve" smooth="yes"/>
      <point x="458" y="855"/>
      <point x="456" y="845"/>
      <point x="455" y="835"/>
      <point x="453" y="828" type="qcurve"/>
      <point x="448" y="802"/>
      <point x="416" y="772"/>
    </contour>
    <contour>
      <point x="-13" y="0" type="line"/>
      <point x="7" y="99" type="line"/>
      <point x="463" y="602" type="line"/>
      <point x="119" y="602" type="line"/>
      <point x="138" y="698" type="line"/>
      <point x="611" y="698" type="line"/>
      <point x="591" y="599" type="line"/>
      <point x="135" y="96" type="line"/>
      <point x="497" y="96" type="line"/>
      <point x="478" y="0" type="line"/>
    </contour>
  </outline>
</glyph>
<glyph name="florin" format="2">
  <advance width="478"/>
  <unicode hex="0192"/>
  <outline>
    <contour>
      <point x="-65" y="-134" type="line"/>
      <point x="-47" y="-47" type="line"/>
      <point x="84" y="-47" type="line"/>
      <point x="173" y="281" type="line"/>
      <point x="60" y="281" type="line"/>
      <point x="78" y="371" type="line"/>
      <point x="199" y="371" type="line"/>
      <point x="254" y="573" type="line" smooth="yes"/>
      <point x="287" y="698"/>
      <point x="414" y="698" type="qcurve" smooth="yes"/>
      <point x="527" y="698" type="line"/>
      <point x="509" y="611" type="line"/>
      <point x="370" y="611" type="line"/>
      <point x="306" y="371" type="line"/>
      <point x="458" y="371" type="line"/>
      <point x="440" y="281" type="line"/>
      <point x="281" y="281" type="line"/>
      <point x="202" y="-10" type="line" smooth="yes"/>
      <point x="185" y="-71"/>
      <point x="107" y="-134"/>
      <point x="41" y="-134" type="qcurve" smooth="yes"/>
    </contour>
  </outline>
</glyph>
<glyph name="Ohorn" format="2">
  <advance width="687"/>
  <unicode hex="01A0"/>
  <outline>
    <contour>
      <point x="313" y="85" type="qcurve" smooth="yes"/>
      <point x="397" y="85"/>
      <point x="503" y="191"/>
      <point x="523" y="290" type="qcurve" smooth="yes"/>
      <point x="545" y="396" type="line"/>
      <point x="551" y="433"/>
      <point x="551" y="458" type="qcurve"/>
      <point x="547" y="613"/>
      <point x="404" y="613" type="qcurve" smooth="yes"/>
      <point x="238" y="613"/>
      <point x="192" y="406" type="qcurve"/>
      <point x="171" y="302" type="line"/>
      <point x="165" y="266"/>
      <point x="165" y="240" type="qcurve" smooth="yes"/>
      <point x="165" y="167"/>
      <point x="241" y="85"/>
    </contour>
    <contour>
      <point x="302" y="-12" type="qcurve" smooth="yes"/>
      <point x="200" y="-12"/>
      <point x="128" y="57" type="qcurve"/>
      <point x="56" y="130"/>
      <point x="56" y="265" type="qcurve" smooth="yes"/>
      <point x="56" y="441"/>
      <point x="153" y="576" type="qcurve"/>
      <point x="200" y="638"/>
      <point x="331" y="710"/>
      <point x="412" y="710" type="qcurve" smooth="yes"/>
      <point x="456" y="710"/>
      <point x="494" y="698" type="qcurve"/>
      <point x="637" y="698" type="line"/>
      <point x="659" y="807" type="line"/>
      <point x="751" y="807" type="line"/>
      <point x="731" y="706" type="line"/>
      <point x="725" y="671"/>
      <point x="687" y="632"/>
      <point x="640" y="632" type="qcurve" smooth="yes"/>
      <point x="595" y="632" type="line"/>
      <point x="659" y="558"/>
      <point x="659" y="433" type="qcurve" smooth="yes"/>
      <point x="659" y="258"/>
      <point x="562" y="123" type="qcurve"/>
      <point x="515" y="61"/>
      <point x="383" y="-12"/>
    </contour>
  </outline>
</glyph>
<glyph name="u021B" format="2">
  <advance width="333"/>
  <unicode hex="021B"/>
  <outline>
    <contour>
      <point x="34" y="-258" type="line"/>
      <point x="60" y="-236"/>
      <point x="89" y="-197"/>
      <point x="100" y="-172" type="qcurve"/>
      <point x="68" y="-165"/>
      <point x="68" y="-134" type="qcurve"/>
      <point x="71" y="-109" type="line"/>
      <point x="83" y="-56"/>
      <point x="137" y="-56" type="qcurve" smooth="yes"/>
      <point x="186" y="-56"/>
      <point x="186" y="-99" type="qcurve" smooth="yes"/>
      <point x="186" y="-108"/>
      <point x="184" y="-117"/>
      <point x="183" y="-124" type="qcurve"/>
      <point x="162" y="-206"/>
      <point x="102" y="-258" type="qcurve"/>
    </contour>
    <contour>
      <point x="158" y="0" type="line" smooth="yes"/>
      <point x="110" y="0"/>
      <point x="65" y="42"/>
      <point x="65" y="79" type="qcurve" smooth="yes"/>
      <point x="65" y="96"/>
      <point x="69" y="117" type="qcurve" smooth="yes"/>
      <point x="133" y="433" type="line"/>
      <point x="56" y="433" type="line"/>
      <point x="73" y="520" type="line"/>
      <point x="112" y="520" type="line" smooth="yes"/>
      <point x="141" y="520"/>
      <point x="163" y="544"/>
      <point x="167" y="571" type="qcurve"/>
      <point x="185" y="662" type="line"/>
      <point x="282" y="662" type="line"/>
      <point x="254" y="520" type="line"/>
      <point x="358" y="520" type="line"/>
      <point x="341" y="433" type="line"/>
      <point x="236" y="433" type="line"/>
      <point x="168" y="87" type="line"/>
      <point x="268" y="87" type="line"/>
      <point x="251" y="0" type="line"/>
    </contour>
  </outline>
</glyph>
<glyph name="dotlessj" format="2">
  <advance width="263"/>
  <unicode hex="0237"/>
  <outline>
    <contour>
      <point x="-91" y="-200" type="line"/>
      <point x="-74" y="-113" type="line"/>
      <point x="6" y="-113" type="line"/>
      <point x="133" y="520" type="line"/>
      <point x="237" y="520" type="line"/>
      <point x="115" y="-82" type="line"/>
      <point x="104" y="-142"/>
      <point x="42" y="-200"/>
      <point x="-19" y="-200" type="qcurve" smooth="yes"/>
    </contour>
  </outline>
</glyph>
<glyph name="u0259" format="2">
  <advance width="512"/>
  <unicode hex="0259"/>
  <outline>
    <contour>
      <point x="203" y="71" type="qcurve" smooth="yes"/>
      <point x="257" y="71"/>
      <point x="335" y="142"/>
      <point x="348" y="206" type="qcurve" smooth="yes"/>
      <point x="353" y="232" type="line"/>
      <point x="214" y="226"/>
      <point x="167" y="202" type="qcurve" smooth="yes"/>
      <point x="142" y="190"/>
      <point x="123" y="157"/>
      <point x="123" y="135" type="qcurve" smooth="yes"/>
      <point x="123" y="99"/>
      <point x="173" y="71"/>
    </contour>
    <contour>
      <point x="195" y="-12" type="qcurve" smooth="yes"/>
      <point x="124" y="-12"/>
      <point x="76" y="20" type="qcurve" smooth="yes"/>
      <point x="19" y="58"/>
      <point x="19" y="129" type="qcurve" smooth="yes"/>
      <point x="19" y="212"/>
      <point x="186" y="301"/>
      <point x="365" y="304" type="qcurve"/>
      <point x="368" y="325"/>
      <point x="368" y="338" type="qcurve" smooth="yes"/>
      <point x="368" y="386"/>
      <point x="314" y="444"/>
      <point x="257" y="444" type="qcurve" smooth="yes"/>
      <point x="175" y="444"/>
      <point x="112" y="366" type="qcurve"/>
      <point x="47" y="421" type="line"/>
      <point x="136" y="532"/>
      <point x="265" y="532" type="qcurve" smooth="yes"/>
      <point x="366" y="532"/>
      <point x="471" y="417"/>
      <point x="471" y="312" type="qcurve" smooth="yes"/>
      <point x="471" y="185"/>
      <point x="396" y="86" type="qcurve"/>
      <point x="360" y="41"/>
      <point x="258" y="-12"/>
    </contour>
  </outline>
</glyph>
<glyph name="u02BC" format="2">
  <advance width="591"/>
  <unicode hex="02BC"/>
  <outline>
    <contour>
      <point x="256" y="542" type="line"/>
      <point x="298" y="740" type="line"/>
      <point x="418" y="740" type="line"/>
      <point x="328" y="542" type="line"/>
    </contour>
  </outline>
</glyph>
<glyph name="circumflex" format="2">
  <advance width="590"/>
  <unicode hex="02C6"/>
  <outline>
    <contour>
      <point x="323" y="701" type="line"/>
      <point x="186" y="586" type="line"/>
      <point x="134" y="629" type="line"/>
      <point x="279" y="778" type="line"/>
      <point x="385" y="778" type="line"/>
      <point x="475" y="628" type="line"/>
      <point x="418" y="585" type="line"/>
    </contour>
  </outline>
</glyph>
<glyph name="gravecmb" format="2">
  <unicode hex="0300"/>
  <outline>
    <contour>
      <point x="-99" y="750" type="line"/>
      <point x="-6" y="794" type="line"/>
      <point x="58" y="611" type="line"/>
      <point x="-6" y="582" type="line"/>
    </contour>
  </outline>
</glyph>
<glyph name="acutecmb" format="2">
  <unicode hex="0301"/>
  <outline>
    <contour>
      <point x="-35" y="616" type="line"/>
      <point x="75" y="795" type="line"/>
      <point x="162" y="749" type="line"/>
      <point x="28" y="582" type="line"/>
    </contour>
  </outline>
</glyph>
<glyph name="tildecmb" format="2">
  <unicode hex="0303"/>
  <outline>
    <contour>
      <point x="93" y="607" type="qcurve" smooth="yes"/>
      <point x="71" y="607"/>
      <point x="39" y="620"/>
      <point x="23" y="628" type="qcurve"/>
      <point x="18" y="631" type="line" smooth="yes"/>
      <point x="-21" y="654"/>
      <point x="-50" y="654" type="qcurve" smooth="yes"/>
      <point x="-67" y="654"/>
      <point x="-92" y="641"/>
      <point x="-109" y="628" type="qcurve"/>
      <point x="-144" y="679" type="line"/>
      <point x="-124" y="704"/>
      <point x="-73" y="736"/>
      <point x="-38" y="736" type="qcurve" smooth="yes"/>
      <point x="-15" y="736"/>
      <point x="20" y="722"/>
      <point x="37" y="713" type="qcurve"/>
      <point x="77" y="690"/>
      <point x="105" y="690" type="qcurve" smooth="yes"/>
      <point x="122" y="690"/>
      <point x="147" y="703"/>
      <point x="164" y="716" type="qcurve"/>
      <point x="199" y="664" type="line"/>
      <point x="179" y="639"/>
      <point x="128" y="607"/>
    </contour>
  </outline>
</glyph>
<glyph name="macroncmb" format="2">
  <unicode hex="0304"/>
  <outline>
    <contour>
      <point x="-118" y="632" type="line"/>
      <point x="-101" y="714" type="line"/>
      <point x="174" y="714" type="line"/>
      <point x="157" y="632" type="line"/>
    </contour>
  </outline>
</glyph>
<glyph name="u0306" format="2">
  <unicode hex="0306"/>
  <outline>
    <contour>
      <point x="15" y="589" type="qcurve" smooth="yes"/>
      <point x="-56" y="589"/>
      <point x="-93" y="639" type="qcurve"/>
      <point x="-125" y="686"/>
      <point x="-132" y="739" type="qcurve"/>
      <point x="-72" y="768" type="line"/>
      <point x="-58" y="739" type="line"/>
      <point x="-44" y="705"/>
      <point x="-10" y="668"/>
      <point x="20" y="668" type="qcurve" smooth="yes"/>
      <point x="47" y="668"/>
      <point x="91" y="702"/>
      <point x="119" y="740" type="qcurve"/>
      <point x="141" y="768" type="line"/>
      <point x="204" y="737" type="line"/>
      <point x="133" y="589"/>
    </contour>
  </outline>
</glyph>
<glyph name="dotaccentcmb" format="2">
  <unicode hex="0307"/>
  <outline>
    <contour>
      <point x="18" y="605" type="qcurve" smooth="yes"/>
      <point x="-38" y="605"/>
      <point x="-38" y="650" type="qcurve" smooth="yes"/>
      <point x="-38" y="655"/>
      <point x="-36" y="664"/>
      <point x="-35" y="674"/>
      <point x="-33" y="681" type="qcurve"/>
      <point x="-28" y="707"/>
      <point x="4" y="737"/>
      <point x="39" y="737" type="qcurve" smooth="yes"/>
      <point x="95" y="737"/>
      <point x="95" y="692" type="qcurve" smooth="yes"/>
      <point x="95" y="688"/>
      <point x="93" y="678"/>
      <point x="92" y="668"/>
      <point x="90" y="661" type="qcurve"/>
      <point x="85" y="635"/>
      <point x="53" y="605"/>
    </contour>
  </outline>
</glyph>
<glyph name="hookabovecomb" format="2">
  <advance width="0"/>
  <unicode hex="0309"/>
  <outline>
    <contour>
      <point x="-13" y="602" type="line"/>
      <point x="48" y="703" type="line"/>
      <point x="-69" y="703" type="line"/>
      <point x="-55" y="781" type="line"/>
      <point x="68" y="781" type="line" smooth="yes"/>
      <point x="106" y="781"/>
      <point x="137" y="749"/>
      <point x="137" y="729" type="qcurve" smooth="yes"/>
      <point x="137" y="701"/>
      <point x="105" y="649"/>
      <point x="80" y="620" type="qcurve" smooth="yes"/>
      <point x="40" y="574" type="line"/>
    </contour>
  </outline>
</glyph>
<glyph name="u030A" format="2">
  <advance width="0"/>
  <unicode hex="030A"/>
  <outline>
    <contour>
      <point x="18" y="627" type="qcurve" smooth="yes"/>
      <point x="68" y="627"/>
      <point x="79" y="680" type="qcurve" smooth="yes"/>
      <point x="85" y="708"/>
      <point x="85" y="723" type="qcurve" smooth="yes"/>
      <point x="85" y="763"/>
      <point x="39" y="763" type="qcurve" smooth="yes"/>
      <point x="13" y="763"/>
      <point x="-17" y="735"/>
      <point x="-28" y="686"/>
      <point x="-28" y="669" type="qcurve" smooth="yes"/>
      <point x="-28" y="627"/>
    </contour>
    <contour>
      <point x="12" y="568" type="qcurve" smooth="yes"/>
      <point x="-38" y="568"/>
      <point x="-100" y="630"/>
      <point x="-100" y="677" type="qcurve" smooth="yes"/>
      <point x="-100" y="743"/>
      <point x="-16" y="822"/>
      <point x="45" y="822" type="qcurve" smooth="yes"/>
      <point x="95" y="822"/>
      <point x="157" y="761"/>
      <point x="157" y="713" type="qcurve" smooth="yes"/>
      <point x="157" y="647"/>
      <point x="74" y="568"/>
    </contour>
  </outline>
</glyph>
<glyph name="u030B" format="2">
  <unicode hex="030B"/>
  <outline>
    <contour>
      <point x="54" y="612" type="line"/>
      <point x="162" y="793" type="line"/>
      <point x="243" y="749" type="line"/>
      <point x="112" y="583" type="line"/>
    </contour>
    <contour>
      <point x="-120" y="612" type="line"/>
      <point x="-11" y="793" type="line"/>
      <point x="70" y="749" type="line"/>
      <point x="-61" y="583" type="line"/>
    </contour>
  </outline>
</glyph>
<glyph name="u030C" format="2">
  <unicode hex="030C"/>
  <outline>
    <contour>
      <point x="-39" y="594" type="line"/>
      <point x="-129" y="744" type="line"/>
      <point x="-72" y="786" type="line"/>
      <point x="20" y="670" type="line"/>
      <point x="159" y="786" type="line"/>
      <point x="213" y="744" type="line"/>
      <point x="68" y="594" type="line"/>
    </contour>
  </outline>
</glyph>
<glyph name="commaturnedabovecmb" format="2">
  <unicode hex="0312"/>
  <outline>
    <contour>
      <point x="13" y="587" type="qcurve"/>
      <point x="-38" y="589"/>
      <point x="-38" y="629" type="qcurve" smooth="yes"/>
      <point x="-38" y="640"/>
      <point x="-35" y="655" type="qcurve"/>
      <point x="-14" y="737"/>
      <point x="46" y="789" type="qcurve"/>
      <point x="114" y="789" type="line"/>
      <point x="88" y="766"/>
      <point x="59" y="727"/>
      <point x="48" y="703" type="qcurve"/>
      <point x="80" y="697"/>
      <point x="80" y="665" type="qcurve" smooth="yes"/>
      <point x="80" y="657" type="line"/>
      <point x="77" y="640" type="line"/>
      <point x="66" y="587"/>
    </contour>
  </outline>
</glyph>
<glyph name="u0326" format="2">
  <unicode hex="0326"/>
  <outline>
    <contour>
      <point x="-114" y="-258" type="line"/>
      <point x="-88" y="-236"/>
      <point x="-59" y="-197"/>
      <point x="-48" y="-172" type="qcurve"/>
      <point x="-80" y="-165"/>
      <point x="-80" y="-134" type="qcurve"/>
      <point x="-77" y="-109" type="line"/>
      <point x="-65" y="-56"/>
      <point x="-11" y="-56" type="qcurve" smooth="yes"/>
      <point x="38" y="-56"/>
      <point x="38" y="-99" type="qcurve" smooth="yes"/>
      <point x="38" y="-108"/>
      <point x="36" y="-117"/>
      <point x="35" y="-124" type="qcurve"/>
      <point x="14" y="-206"/>
      <point x="-46" y="-258" type="qcurve"/>
    </contour>
  </outline>
</glyph>
<glyph name="u0327" format="2">
  <advance width="0"/>
  <unicode hex="0327"/>
  <outline>
    <contour>
      <point x="-16" y="-209" type="qcurve" smooth="yes"/>
      <point x="-55" y="-209"/>
      <point x="-109" y="-186"/>
      <point x="-121" y="-168" type="qcurve"/>
      <point x="-76" y="-123" type="line"/>
      <point x="-69" y="-132"/>
      <point x="-39" y="-149"/>
      <point x="-17" y="-149" type="qcurve"/>
      <point x="31" y="-145"/>
      <point x="31" y="-115" type="qcurve" smooth="yes"/>
      <point x="31" y="-82"/>
      <point x="-29" y="-77" type="qcurve" smooth="yes"/>
      <point x="-53" y="-75" type="line"/>
      <point x="-18" y="24" type="line"/>
      <point x="39" y="24" type="line"/>
      <point x="9" y="-59" type="line"/>
      <point x="11" y="-62" type="line"/>
      <point x="26" y="-57"/>
      <point x="48" y="-57" type="qcurve" smooth="yes"/>
      <point x="73" y="-57"/>
      <point x="108" y="-84"/>
      <point x="108" y="-113" type="qcurve" smooth="yes"/>
      <point x="108" y="-159"/>
      <point x="38" y="-209"/>
    </contour>
  </outline>
</glyph>
<glyph name="u0328" format="2">
  <unicode hex="0328"/>
  <outline>
    <contour>
      <point x="-94" y="-209" type="qcurve" smooth="yes"/>
      <point x="-136" y="-209"/>
      <point x="-200" y="-171"/>
      <point x="-200" y="-131" type="qcurve" smooth="yes"/>
      <point x="-200" y="-51"/>
      <point x="-69" y="-5" type="qcurve"/>
      <point x="-72" y="12" type="line"/>
      <point x="-14" y="18" type="line"/>
      <point x="1" y="0" type="line"/>
      <point x="-76" y="-51"/>
      <point x="-98" y="-76" type="qcurve" smooth="yes"/>
      <point x="-117" y="-98"/>
      <point x="-117" y="-117" type="qcurve" smooth="yes"/>
      <point x="-117" y="-147"/>
      <point x="-83" y="-147" type="qcurve" smooth="yes"/>
      <point x="-54" y="-147"/>
      <point x="-29" y="-120" type="qcurve"/>
      <point x="14" y="-167" type="line"/>
      <point x="-21" y="-209"/>
    </contour>
  </outline>
</glyph>
<glyph name="u037E" format="2">
  <advance width="301"/>
  <unicode hex="037E"/>
  <outline>
    <contour>
      <point x="120" y="130" type="qcurve" smooth="yes"/>
      <point x="173" y="130"/>
      <point x="176" y="89" type="qcurve"/>
      <point x="177" y="86"/>
      <point x="177" y="83" type="qcurve" smooth="yes"/>
      <point x="177" y="82"/>
      <point x="176" y="77"/>
      <point x="176" y="72" type="qcurve"/>
      <point x="174" y="50"/>
      <point x="157" y="-4"/>
      <point x="126" y="-60"/>
      <point x="80" y="-115"/>
      <point x="50" y="-137" type="qcurve"/>
      <point x="-25" y="-137" type="line"/>
      <point x="13" y="-104"/>
      <point x="62" y="-43"/>
      <point x="80" y="-7" type="qcurve"/>
      <point x="42" y="3"/>
      <point x="42" y="35" type="qcurve" smooth="yes"/>
      <point x="42" y="47"/>
      <point x="47" y="79"/>
      <point x="63" y="109"/>
      <point x="94" y="130"/>
    </contour>
    <contour>
      <point x="180" y="384" type="line" smooth="yes"/>
      <point x="123" y="384"/>
      <point x="123" y="429" type="qcurve" smooth="yes"/>
      <point x="123" y="443"/>
      <point x="128" y="477"/>
      <point x="145" y="506"/>
      <point x="175" y="526"/>
      <point x="200" y="526" type="qcurve" smooth="yes"/>
      <point x="229" y="526"/>
      <point x="258" y="501"/>
      <point x="258" y="481" type="qcurve" smooth="yes"/>
      <point x="258" y="438"/>
      <point x="221" y="385"/>
      <point x="183" y="384" type="qcurve"/>
    </contour>
  </outline>
</glyph>
<glyph name="Etatonos" format="2">
  <advance width="740"/>
  <unicode hex="0389"/>
  <outline>
    <contour>
      <point x="565" y="311" type="line"/>
      <point x="246" y="311" type="line"/>
      <point x="184" y="0" type="line"/>
      <point x="87" y="0" type="line"/>
      <point x="227" y="698" type="line"/>
      <point x="324" y="698" type="line"/>
      <point x="264" y="397" type="line"/>
      <point x="583" y="397" type="line"/>
      <point x="644" y="698" type="line"/>
      <point x="741" y="698" type="line"/>
      <point x="601" y="0" type="line"/>
      <point x="504" y="0" type="line"/>
    </contour>
    <contour>
      <point x="117" y="583" type="line"/>
      <point x="56" y="600" type="line"/>
      <point x="121" y="789" type="line"/>
      <point x="208" y="767" type="line"/>
    </contour>
  </outline>
</glyph>
<glyph name="Iotatonos" format="2">
  <advance width="476"/>
  <unicode hex="038A"/>
  <outline>
    <contour>
      <point x="184" y="0" type="line"/>
      <point x="324" y="698" type="line"/>
      <point x="432" y="698" type="line"/>
      <point x="292" y="0" type="line"/>
    </contour>
    <contour>
      <point x="278" y="767" type="line"/>
      <point x="187" y="583" type="line"/>
      <point x="126" y="600" type="line"/>
      <point x="191" y="789" type="line"/>
    </contour>
  </outline>
</glyph>
<glyph name="Rho" format="2">
  <advance width="609"/>
  <unicode hex="03A1"/>
  <outline>
    <contour>
      <point x="32" y="0" type="line"/>
      <point x="172" y="698" type="line"/>
      <point x="424" y="698" type="line" smooth="yes"/>
      <point x="517" y="698"/>
      <point x="609" y="605"/>
      <point x="609" y="526" type="qcurve" smooth="yes"/>
      <point x="609" y="476"/>
      <point x="575" y="388"/>
      <point x="512" y="324"/>
      <point x="422" y="287"/>
      <point x="366" y="287" type="qcurve" smooth="yes"/>
      <point x="186" y="287" type="line"/>
      <point x="129" y="0" type="line"/>
    </contour>
    <contour>
      <point x="204" y="373" type="line"/>
      <point x="373" y="373" type="line" smooth="yes"/>
      <point x="420" y="373"/>
      <point x="486" y="416"/>
      <point x="497" y="467" type="qcurve"/>
      <point x="505" y="510" type="line" smooth="yes"/>
      <point x="508" y="525"/>
      <point x="508" y="538" type="qcurve" smooth="yes"/>
      <point x="508" y="570"/>
      <point x="470" y="612"/>
      <point x="421" y="612" type="qcurve" smooth="yes"/>
      <point x="251" y="612" type="line"/>
    </contour>
  </outline>
</glyph>
<glyph name="etatonos" format="2">
  <advance width="579"/>
  <unicode hex="03AE"/>
  <outline>
    <contour>
      <point x="387" y="583" type="line"/>
      <point x="326" y="600" type="line"/>
      <point x="391" y="789" type="line"/>
      <point x="478" y="767" type="line"/>
    </contour>
    <contour>
      <point x="43" y="0" type="line"/>
      <point x="131" y="439" type="line"/>
      <point x="61" y="439" type="line"/>
      <point x="77" y="518" type="line"/>
      <point x="145" y="518" type="line" smooth="yes"/>
      <point x="179" y="518"/>
      <point x="224" y="486"/>
      <point x="224" y="452" type="qcurve" smooth="yes"/>
      <point x="224" y="446"/>
      <point x="222" y="430"/>
      <point x="220" y="422" type="qcurve"/>
      <point x="218" y="411" type="line"/>
      <point x="223" y="411" type="line"/>
      <point x="251" y="469"/>
      <point x="325" y="530"/>
      <point x="385" y="530" type="qcurve" smooth="yes"/>
      <point x="451" y="530"/>
      <point x="516" y="455"/>
      <point x="516" y="389" type="qcurve" smooth="yes"/>
      <point x="516" y="372"/>
      <point x="512" y="337"/>
      <point x="509" y="320" type="qcurve" smooth="yes"/>
      <point x="405" y="-200" type="line"/>
      <point x="312" y="-200" type="line"/>
      <point x="412" y="301" type="line"/>
      <point x="416" y="318"/>
      <point x="421" y="356"/>
      <point x="421" y="370" type="qcurve" smooth="yes"/>
      <point x="421" y="408"/>
      <point x="387" y="448"/>
      <point x="348" y="448" type="qcurve" smooth="yes"/>
      <point x="319" y="448"/>
      <point x="268" y="419"/>
      <point x="227" y="373"/>
      <point x="198" y="313"/>
      <point x="192" y="283" type="qcurve" smooth="yes"/>
      <point x="135" y="0" type="line"/>
    </contour>
  </outline>
</glyph>
<glyph name="beta" format="2">
  <advance width="558"/>
  <unicode hex="03B2"/>
  <outline>
    <contour>
      <point x="134" y="514" type="line" smooth="yes"/>
      <point x="156" y="626"/>
      <point x="277" y="752"/>
      <point x="376" y="752" type="qcurve" smooth="yes"/>
      <point x="455" y="752"/>
      <point x="545" y="668"/>
      <point x="545" y="593" type="qcurve" smooth="yes"/>
      <point x="545" y="549"/>
      <point x="519" y="482"/>
      <point x="475" y="435"/>
      <point x="417" y="407"/>
      <point x="386" y="401" type="qcurve"/>
      <point x="386" y="400" type="line"/>
      <point x="385" y="398" type="line"/>
      <point x="385" y="398"/>
      <point x="385" y="398" type="qcurve"/>
      <point x="385" y="398"/>
      <point x="385" y="398" type="qcurve"/>
      <point x="385" y="398"/>
      <point x="385" y="398" type="qcurve"/>
      <point x="385" y="398"/>
      <point x="385" y="398" type="qcurve"/>
      <point x="385" y="398"/>
      <point x="385" y="397" type="qcurve"/>
      <point x="385" y="397"/>
      <point x="385" y="397" type="qcurve"/>
      <point x="446" y="384"/>
      <point x="509" y="302"/>
      <point x="509" y="228" type="qcurve" smooth="yes"/>
      <point x="509" y="180"/>
      <point x="480" y="98"/>
      <point x="429" y="36"/>
      <point x="358" y="-3"/>
      <point x="317" y="-9" type="qcurve"/>
      <point x="306" y="-11"/>
      <point x="291" y="-12"/>
      <point x="287" y="-12" type="qcurve" smooth="yes"/>
      <point x="279" y="-12"/>
      <point x="271" y="-11" type="qcurve"/>
      <point x="222" y="-9"/>
      <point x="154" y="42"/>
      <point x="144" y="86" type="qcurve"/>
      <point x="140" y="86" type="line"/>
      <point x="83" y="-200" type="line"/>
      <point x="-10" y="-200" type="line"/>
    </contour>
    <contour>
      <point x="279" y="436" type="line"/>
      <point x="312" y="436" type="line" smooth="yes"/>
      <point x="348" y="436"/>
      <point x="395" y="453"/>
      <point x="426" y="486"/>
      <point x="443" y="536"/>
      <point x="449" y="569" type="qcurve"/>
      <point x="450" y="576"/>
      <point x="451" y="588"/>
      <point x="451" y="594" type="qcurve" smooth="yes"/>
      <point x="451" y="629"/>
      <point x="410" y="671"/>
      <point x="365" y="671" type="qcurve" smooth="yes"/>
      <point x="317" y="671"/>
      <point x="244" y="601"/>
      <point x="228" y="523" type="qcurve" smooth="yes"/>
      <point x="161" y="189" type="line"/>
      <point x="159" y="176"/>
      <point x="157" y="159"/>
      <point x="157" y="155" type="qcurve" smooth="yes"/>
      <point x="157" y="147"/>
      <point x="159" y="140" type="qcurve"/>
      <point x="163" y="107"/>
      <point x="217" y="69"/>
      <point x="266" y="69" type="qcurve" smooth="yes"/>
      <point x="296" y="69"/>
      <point x="350" y="87"/>
      <point x="391" y="126"/>
      <point x="415" y="190"/>
      <point x="415" y="236" type="qcurve" smooth="yes"/>
      <point x="415" y="253" type="line"/>
      <point x="413" y="357"/>
      <point x="301" y="357" type="qcurve" smooth="yes"/>
      <point x="263" y="357" type="line"/>
    </contour>
  </outline>
</glyph>
<glyph name="delta" format="2">
  <advance width="548"/>
  <unicode hex="03B4"/>
  <outline>
    <contour>
      <point x="351" y="661" type="line"/>
      <point x="265" y="667" type="line"/>
      <point x="265" y="666" type="line"/>
      <point x="264" y="664" type="line"/>
      <point x="264" y="663" type="line"/>
      <point x="357" y="581" type="line" smooth="yes"/>
      <point x="397" y="547"/>
      <point x="452" y="487"/>
      <point x="487" y="425"/>
      <point x="503" y="359"/>
      <point x="503" y="319" type="qcurve" smooth="yes"/>
      <point x="503" y="254"/>
      <point x="465" y="134"/>
      <point x="395" y="42"/>
      <point x="296" y="-12"/>
      <point x="236" y="-12" type="qcurve" smooth="yes"/>
      <point x="147" y="-12"/>
      <point x="44" y="98"/>
      <point x="44" y="202" type="qcurve" smooth="yes"/>
      <point x="44" y="263"/>
      <point x="83" y="375"/>
      <point x="153" y="460"/>
      <point x="249" y="510"/>
      <point x="305" y="510" type="qcurve"/>
      <point x="305" y="512"/>
      <point x="306" y="513"/>
      <point x="306" y="515" type="qcurve"/>
      <point x="178" y="637" type="line"/>
      <point x="198" y="740" type="line"/>
      <point x="560" y="740" type="line"/>
      <point x="544" y="661" type="line"/>
    </contour>
    <contour>
      <point x="409" y="333" type="qcurve" smooth="yes"/>
      <point x="409" y="352"/>
      <point x="403" y="386"/>
      <point x="389" y="419"/>
      <point x="364" y="455"/>
      <point x="346" y="476" type="qcurve"/>
      <point x="298" y="469"/>
      <point x="228" y="429"/>
      <point x="180" y="364"/>
      <point x="150" y="277"/>
      <point x="141" y="222" type="qcurve"/>
      <point x="138" y="208"/>
      <point x="136" y="187"/>
      <point x="136" y="179" type="qcurve" smooth="yes"/>
      <point x="136" y="129"/>
      <point x="190" y="68"/>
      <point x="245" y="68" type="qcurve" smooth="yes"/>
      <point x="280" y="68"/>
      <point x="332" y="97"/>
      <point x="369" y="150"/>
      <point x="395" y="226"/>
      <point x="403" y="273" type="qcurve" smooth="yes"/>
      <point x="406" y="293"/>
      <point x="409" y="321"/>
    </contour>
  </outline>
</glyph>
<glyph name="theta" format="2">
  <advance width="572"/>
  <unicode hex="03B8"/>
  <outline>
    <contour>
      <point x="114" y="391" type="line" smooth="yes"/>
      <point x="148" y="391"/>
      <point x="186" y="354"/>
      <point x="186" y="325" type="qcurve" smooth="yes"/>
      <point x="186" y="319"/>
      <point x="184" y="305"/>
      <point x="182" y="296" type="qcurve" smooth="yes"/>
      <point x="170" y="237" type="line"/>
      <point x="165" y="217"/>
      <point x="162" y="180"/>
      <point x="162" y="166" type="qcurve" smooth="yes"/>
      <point x="162" y="68"/>
      <point x="256" y="68" type="qcurve" smooth="yes"/>
      <point x="288" y="68"/>
      <point x="338" y="93"/>
      <point x="376" y="146"/>
      <point x="404" y="228"/>
      <point x="415" y="286" type="qcurve" smooth="yes"/>
      <point x="431" y="371" type="line"/>
      <point x="342" y="371" type="line" smooth="yes"/>
      <point x="288" y="371"/>
      <point x="216" y="397"/>
      <point x="172" y="441"/>
      <point x="153" y="500"/>
      <point x="153" y="533" type="qcurve" smooth="yes"/>
      <point x="153" y="571"/>
      <point x="181" y="649"/>
      <point x="237" y="712"/>
      <point x="321" y="752"/>
      <point x="376" y="752" type="qcurve" smooth="yes"/>
      <point x="460" y="752"/>
      <point x="548" y="651"/>
      <point x="551" y="567" type="qcurve"/>
      <point x="552" y="562"/>
      <point x="552" y="556" type="qcurve" smooth="yes"/>
      <point x="552" y="553"/>
      <point x="551" y="542"/>
      <point x="551" y="533" type="qcurve"/>
      <point x="549" y="473"/>
      <point x="526" y="329"/>
      <point x="488" y="194"/>
      <point x="438" y="81"/>
      <point x="409" y="52" type="qcurve" smooth="yes"/>
      <point x="373" y="17"/>
      <point x="298" y="-12"/>
      <point x="247" y="-12" type="qcurve" smooth="yes"/>
      <point x="200" y="-12"/>
      <point x="133" y="19"/>
      <point x="91" y="72"/>
      <point x="71" y="144"/>
      <point x="71" y="186" type="qcurve" smooth="yes"/>
      <point x="71" y="199"/>
      <point x="78" y="234"/>
      <point x="83" y="260" type="qcurve" smooth="yes"/>
      <point x="93" y="312" type="line"/>
      <point x="31" y="312" type="line"/>
      <point x="46" y="391" type="line"/>
    </contour>
    <contour>
      <point x="245" y="528" type="line" smooth="yes"/>
      <point x="245" y="486"/>
      <point x="292" y="450"/>
      <point x="354" y="450" type="qcurve" smooth="yes"/>
      <point x="448" y="450" type="line"/>
      <point x="452" y="472" type="line" smooth="yes"/>
      <point x="456" y="494"/>
      <point x="460" y="543"/>
      <point x="460" y="574" type="qcurve" smooth="yes"/>
      <point x="460" y="672"/>
      <point x="367" y="672" type="qcurve" smooth="yes"/>
      <point x="336" y="672"/>
      <point x="290" y="650"/>
      <point x="260" y="611"/>
      <point x="245" y="559"/>
      <point x="245" y="530" type="qcurve" smooth="yes"/>
    </contour>
  </outline>
</glyph>
<glyph name="rho" format="2">
  <advance width="548"/>
  <unicode hex="03C1"/>
  <outline>
    <contour>
      <point x="65" y="282" type="line" smooth="yes"/>
      <point x="88" y="398"/>
      <point x="212" y="530"/>
      <point x="312" y="530" type="qcurve" smooth="yes"/>
      <point x="400" y="530"/>
      <point x="502" y="425"/>
      <point x="502" y="322" type="qcurve" smooth="yes"/>
      <point x="502" y="261"/>
      <point x="468" y="141"/>
      <point x="405" y="47"/>
      <point x="314" y="-12"/>
      <point x="256" y="-12" type="qcurve" smooth="yes"/>
      <point x="202" y="-12"/>
      <point x="132" y="43"/>
      <point x="123" y="86" type="qcurve"/>
      <point x="118" y="86" type="line"/>
      <point x="61" y="-200" type="line"/>
      <point x="-32" y="-200" type="line"/>
    </contour>
    <contour>
      <point x="241" y="69" type="qcurve" smooth="yes"/>
      <point x="301" y="69"/>
      <point x="375" y="143"/>
      <point x="389" y="214" type="qcurve" smooth="yes"/>
      <point x="392" y="231"/>
      <point x="398" y="263"/>
      <point x="402" y="280" type="qcurve"/>
      <point x="405" y="306" type="line"/>
      <point x="408" y="321"/>
      <point x="408" y="341" type="qcurve" smooth="yes"/>
      <point x="408" y="389"/>
      <point x="354" y="449"/>
      <point x="303" y="449" type="qcurve" smooth="yes"/>
      <point x="252" y="449"/>
      <point x="176" y="373"/>
      <point x="162" y="301" type="qcurve" smooth="yes"/>
      <point x="138" y="184" type="line" smooth="yes"/>
      <point x="136" y="173"/>
      <point x="135" y="159"/>
      <point x="135" y="157" type="qcurve" smooth="yes"/>
      <point x="135" y="148"/>
      <point x="137" y="139" type="qcurve"/>
      <point x="142" y="106"/>
      <point x="195" y="69"/>
    </contour>
  </outline>
</glyph>
<glyph name="upsilontonos" format="2">
  <advance width="558"/>
  <unicode hex="03CD"/>
  <outline>
    <contour>
      <point x="368" y="583" type="line"/>
      <point x="307" y="600" type="line"/>
      <point x="372" y="789" type="line"/>
      <point x="459" y="767" type="line"/>
    </contour>
    <contour>
      <point x="166" y="245" type="line"/>
      <point x="160" y="219"/>
      <point x="155" y="178"/>
      <point x="155" y="157" type="qcurve" smooth="yes"/>
      <point x="155" y="109"/>
      <point x="200" y="68"/>
      <point x="247" y="68" type="qcurve" smooth="yes"/>
      <point x="273" y="68"/>
      <point x="315" y="83"/>
      <point x="349" y="124"/>
      <point x="376" y="196"/>
      <point x="388" y="254" type="qcurve" smooth="yes"/>
      <point x="399" y="304"/>
      <point x="408" y="353" type="qcurve" smooth="yes"/>
      <point x="420" y="419" type="line" smooth="yes"/>
      <point x="430" y="469"/>
      <point x="440" y="518" type="qcurve"/>
      <point x="533" y="518" type="line"/>
      <point x="477" y="239" type="line" smooth="yes"/>
      <point x="450" y="107"/>
      <point x="335" y="-12"/>
      <point x="238" y="-12" type="qcurve" smooth="yes"/>
      <point x="197" y="-12"/>
      <point x="133" y="13"/>
      <point x="88" y="59"/>
      <point x="64" y="122"/>
      <point x="64" y="161" type="qcurve" smooth="yes"/>
      <point x="64" y="180"/>
      <point x="69" y="226"/>
      <point x="75" y="255" type="qcurve" smooth="yes"/>
      <point x="128" y="518" type="line"/>
      <point x="220" y="518" type="line"/>
    </contour>
  </outline>
</glyph>
<glyph name="Iegravecyr" format="2">
  <advance width="571"/>
  <unicode hex="0400"/>
  <outline>
    <contour>
      <point x="32" y="0" type="line"/>
      <point x="172" y="698" type="line"/>
      <point x="599" y="698" type="line"/>
      <point x="579" y="602" type="line"/>
      <point x="261" y="602" type="line"/>
      <point x="221" y="400" type="line"/>
      <point x="505" y="400" type="line"/>
      <point x="486" y="304" type="line"/>
      <point x="202" y="304" type="line"/>
      <point x="160" y="96" type="line"/>
      <point x="492" y="96" type="line"/>
      <point x="473" y="0" type="line"/>
    </contour>
    <contour>
      <point x="286" y="918" type="line"/>
      <point x="378" y="961" type="line"/>
      <point x="443" y="778" type="line"/>
      <point x="379" y="749" type="line"/>
    </contour>
  </outline>
</glyph>
<glyph name="Iocyr" format="2">
  <advance width="571"/>
  <unicode hex="0401"/>
  <outline>
    <contour>
      <point x="32" y="0" type="line"/>
      <point x="172" y="698" type="line"/>
      <point x="599" y="698" type="line"/>
      <point x="579" y="602" type="line"/>
      <point x="261" y="602" type="line"/>
      <point x="221" y="400" type="line"/>
      <point x="505" y="400" type="line"/>
      <point x="486" y="304" type="line"/>
      <point x="202" y="304" type="line"/>
      <point x="160" y="96" type="line"/>
      <point x="492" y="96" type="line"/>
      <point x="473" y="0" type="line"/>
    </contour>
    <contour>
      <point x="301" y="776" type="qcurve" smooth="yes"/>
      <point x="275" y="776"/>
      <point x="250" y="798"/>
      <point x="250" y="816" type="qcurve" smooth="yes"/>
      <point x="250" y="826"/>
      <point x="260" y="871"/>
      <point x="275" y="887" type="qcurve"/>
      <point x="292" y="902"/>
      <point x="325" y="902" type="qcurve" smooth="yes"/>
      <point x="374" y="902"/>
      <point x="374" y="862" type="qcurve" smooth="yes"/>
      <point x="374" y="852"/>
      <point x="365" y="806"/>
      <point x="333" y="776"/>
    </contour>
    <contour>
      <point x="490" y="776" type="qcurve" smooth="yes"/>
      <point x="464" y="776"/>
      <point x="439" y="798"/>
      <point x="439" y="816" type="qcurve" smooth="yes"/>
      <point x="439" y="826"/>
      <point x="449" y="871"/>
      <point x="464" y="887" type="qcurve"/>
      <point x="481" y="902"/>
      <point x="514" y="902" type="qcurve" smooth="yes"/>
      <point x="563" y="902"/>
      <point x="563" y="862" type="qcurve" smooth="yes"/>
      <point x="563" y="852"/>
      <point x="554" y="806"/>
      <point x="522" y="776"/>
    </contour>
  </outline>
</glyph>
<glyph name="u0402" format="2">
  <advance width="770"/>
  <unicode hex="0402"/>
  <outline>
    <contour>
      <point x="392" y="-173" type="line"/>
      <point x="412" y="-74" type="line"/>
      <point x="501" y="-74" type="line"/>
      <point x="547" y="-31"/>
      <point x="569" y="75" type="qcurve" smooth="yes"/>
      <point x="589" y="174" type="line"/>
      <point x="599" y="217"/>
      <point x="599" y="250" type="qcurve" smooth="yes"/>
      <point x="599" y="346"/>
      <point x="485" y="346" type="qcurve" smooth="yes"/>
      <point x="404" y="346"/>
      <point x="347" y="323" type="qcurve"/>
      <point x="282" y="0" type="line"/>
      <point x="174" y="0" type="line"/>
      <point x="294" y="602" type="line"/>
      <point x="94" y="602" type="line"/>
      <point x="113" y="698" type="line"/>
      <point x="622" y="698" type="line"/>
      <point x="603" y="602" type="line"/>
      <point x="403" y="602" type="line"/>
      <point x="366" y="415" type="line"/>
      <point x="371" y="415" type="line"/>
      <point x="433" y="442"/>
      <point x="511" y="442" type="qcurve" smooth="yes"/>
      <point x="608" y="442"/>
      <point x="707" y="349"/>
      <point x="707" y="262" type="qcurve" smooth="yes"/>
      <point x="707" y="226"/>
      <point x="686" y="119"/>
      <point x="675" y="67" type="qcurve" smooth="yes"/>
      <point x="651" y="-51"/>
      <point x="536" y="-173"/>
      <point x="439" y="-173" type="qcurve" smooth="yes"/>
    </contour>
  </outline>
</glyph>
<glyph name="afii10052" format="2">
  <advance width="490"/>
  <unicode hex="0403"/>
  <outline>
    <contour>
      <point x="316" y="783" type="line"/>
      <point x="426" y="962" type="line"/>
      <point x="513" y="916" type="line"/>
      <point x="380" y="749" type="line"/>
    </contour>
    <contour>
      <point x="32" y="0" type="line"/>
      <point x="172" y="698" type="line"/>
      <point x="550" y="698" type="line"/>
      <point x="531" y="602" type="line"/>
      <point x="261" y="602" type="line"/>
      <point x="140" y="0" type="line"/>
    </contour>
  </outline>
</glyph>
<glyph name="afii10053" format="2">
  <advance width="630"/>
  <unicode hex="0404"/>
  <outline>
    <contour>
      <point x="304" y="-12" type="qcurve" smooth="yes"/>
      <point x="192" y="-12"/>
      <point x="56" y="131"/>
      <point x="56" y="269" type="qcurve" smooth="yes"/>
      <point x="56" y="451"/>
      <point x="153" y="581" type="qcurve" smooth="yes"/>
      <point x="199" y="642"/>
      <point x="329" y="710"/>
      <point x="408" y="710" type="qcurve" smooth="yes"/>
      <point x="503" y="710"/>
      <point x="617" y="631"/>
      <point x="644" y="550" type="qcurve"/>
      <point x="549" y="506" type="line"/>
      <point x="534" y="557"/>
      <point x="467" y="613"/>
      <point x="399" y="613" type="qcurve" smooth="yes"/>
      <point x="316" y="613"/>
      <point x="213" y="510"/>
      <point x="193" y="420" type="qcurve" smooth="yes"/>
      <point x="189" y="402" type="line"/>
      <point x="450" y="402" type="line"/>
      <point x="432" y="306" type="line"/>
      <point x="170" y="306" type="line"/>
      <point x="164" y="272"/>
      <point x="164" y="246" type="qcurve" smooth="yes"/>
      <point x="164" y="171"/>
      <point x="237" y="85"/>
      <point x="312" y="85" type="qcurve" smooth="yes"/>
      <point x="384" y="85"/>
      <point x="465" y="146"/>
      <point x="495" y="202" type="qcurve"/>
      <point x="585" y="157" type="line"/>
      <point x="536" y="70"/>
      <point x="402" y="-12"/>
    </contour>
  </outline>
</glyph>
<glyph name="u0407" format="2">
  <advance width="276"/>
  <unicode hex="0407"/>
  <outline>
    <contour>
      <point x="32" y="0" type="line"/>
      <point x="172" y="698" type="line"/>
      <point x="280" y="698" type="line"/>
      <point x="140" y="0" type="line"/>
    </contour>
    <contour>
      <point x="145" y="776" type="qcurve" smooth="yes"/>
      <point x="119" y="776"/>
      <point x="94" y="798"/>
      <point x="94" y="816" type="qcurve" smooth="yes"/>
      <point x="94" y="826"/>
      <point x="104" y="871"/>
      <point x="119" y="887" type="qcurve"/>
      <point x="136" y="902"/>
      <point x="169" y="902" type="qcurve" smooth="yes"/>
      <point x="218" y="902"/>
      <point x="218" y="862" type="qcurve" smooth="yes"/>
      <point x="218" y="852"/>
      <point x="209" y="806"/>
      <point x="177" y="776"/>
    </contour>
    <contour>
      <point x="334" y="776" type="qcurve" smooth="yes"/>
      <point x="308" y="776"/>
      <point x="283" y="798"/>
      <point x="283" y="816" type="qcurve" smooth="yes"/>
      <point x="283" y="826"/>
      <point x="293" y="871"/>
      <point x="308" y="887" type="qcurve"/>
      <point x="325" y="902"/>
      <point x="358" y="902" type="qcurve" smooth="yes"/>
      <point x="407" y="902"/>
      <point x="407" y="862" type="qcurve" smooth="yes"/>
      <point x="407" y="852"/>
      <point x="398" y="806"/>
      <point x="366" y="776"/>
    </contour>
  </outline>
</glyph>
<glyph name="uni040D" format="2">
  <advance width="691"/>
  <unicode hex="040D"/>
  <outline>
    <contour>
      <point x="337" y="918" type="line"/>
      <point x="429" y="961" type="line"/>
      <point x="494" y="778" type="line"/>
      <point x="430" y="749" type="line"/>
    </contour>
    <contour>
      <point x="449" y="0" type="line"/>
      <point x="529" y="399" type="line"/>
      <point x="570" y="541" type="line"/>
      <point x="567" y="541" type="line"/>
      <point x="475" y="412" type="line"/>
      <point x="129" y="0" type="line"/>
      <point x="32" y="0" type="line"/>
      <point x="172" y="698" type="line"/>
      <point x="277" y="698" type="line"/>
      <point x="197" y="299" type="line"/>
      <point x="156" y="157" type="line"/>
      <point x="159" y="157" type="line"/>
      <point x="251" y="286" type="line"/>
      <point x="597" y="698" type="line"/>
      <point x="694" y="698" type="line"/>
      <point x="554" y="0" type="line"/>
    </contour>
  </outline>
</glyph>
<glyph name="afii10018" format="2">
  <advance width="618"/>
  <unicode hex="0411"/>
  <outline>
    <contour>
      <point x="32" y="0" type="line"/>
      <point x="172" y="698" type="line"/>
      <point x="600" y="698" type="line"/>
      <point x="581" y="602" type="line"/>
      <point x="261" y="602" type="line"/>
      <point x="225" y="423" type="line"/>
      <point x="374" y="423" type="line" smooth="yes"/>
      <point x="472" y="423"/>
      <point x="566" y="326"/>
      <point x="566" y="245" type="qcurve" smooth="yes"/>
      <point x="566" y="139"/>
      <point x="431" y="0"/>
      <point x="318" y="0" type="qcurve" smooth="yes"/>
    </contour>
    <contour>
      <point x="333" y="96" type="line" smooth="yes"/>
      <point x="375" y="96"/>
      <point x="433" y="139"/>
      <point x="442" y="182" type="qcurve" smooth="yes"/>
      <point x="454" y="238"/>
      <point x="454" y="260" type="qcurve" smooth="yes"/>
      <point x="454" y="327"/>
      <point x="374" y="327" type="qcurve" smooth="yes"/>
      <point x="206" y="327" type="line"/>
      <point x="160" y="96" type="line"/>
    </contour>
  </outline>
</glyph>
<glyph name="u0418" format="2">
  <advance width="691"/>
  <unicode hex="0418"/>
  <outline>
    <contour>
      <point x="449" y="0" type="line"/>
      <point x="529" y="399" type="line"/>
      <point x="570" y="541" type="line"/>
      <point x="567" y="541" type="line"/>
      <point x="475" y="412" type="line"/>
      <point x="129" y="0" type="line"/>
      <point x="32" y="0" type="line"/>
      <point x="172" y="698" type="line"/>
      <point x="277" y="698" type="line"/>
      <point x="197" y="299" type="line"/>
      <point x="156" y="157" type="line"/>
      <point x="159" y="157" type="line"/>
      <point x="251" y="286" type="line"/>
      <point x="597" y="698" type="line"/>
      <point x="694" y="698" type="line"/>
      <point x="554" y="0" type="line"/>
    </contour>
  </outline>
</glyph>
<glyph name="Ishortcyr" format="2">
  <advance width="691"/>
  <unicode hex="0419"/>
  <outline>
    <contour>
      <point x="449" y="0" type="line"/>
      <point x="529" y="399" type="line"/>
      <point x="570" y="541" type="line"/>
      <point x="567" y="541" type="line"/>
      <point x="475" y="412" type="line"/>
      <point x="129" y="0" type="line"/>
      <point x="32" y="0" type="line"/>
      <point x="172" y="698" type="line"/>
      <point x="277" y="698" type="line"/>
      <point x="197" y="299" type="line"/>
      <point x="156" y="157" type="line"/>
      <point x="159" y="157" type="line"/>
      <point x="251" y="286" type="line"/>
      <point x="597" y="698" type="line"/>
      <point x="694" y="698" type="line"/>
      <point x="554" y="0" type="line"/>
    </contour>
    <contour>
      <point x="446" y="755" type="qcurve" smooth="yes"/>
      <point x="397" y="755"/>
      <point x="333" y="797"/>
      <point x="316" y="847" type="qcurve" smooth="yes"/>
      <point x="301" y="893" type="line"/>
      <point x="388" y="927" type="line"/>
      <point x="407" y="837" type="line"/>
      <point x="430" y="830"/>
      <point x="455" y="830" type="qcurve" smooth="yes"/>
      <point x="481" y="830"/>
      <point x="499" y="837" type="qcurve"/>
      <point x="549" y="927" type="line"/>
      <point x="631" y="889" type="line"/>
      <point x="604" y="847" type="line" smooth="yes"/>
      <point x="547" y="755"/>
    </contour>
  </outline>
</glyph>
<glyph name="u041B" format="2">
  <advance width="687"/>
  <unicode hex="041B"/>
  <outline>
    <contour>
      <point x="-35" y="-3" type="line"/>
      <point x="-16" y="96" type="line"/>
      <point x="58" y="96" type="line"/>
      <point x="99" y="128"/>
      <point x="170" y="290"/>
      <point x="207" y="475" type="qcurve" smooth="yes"/>
      <point x="252" y="698" type="line"/>
      <point x="690" y="698" type="line"/>
      <point x="550" y="0" type="line"/>
      <point x="442" y="0" type="line"/>
      <point x="563" y="602" type="line"/>
      <point x="337" y="602" type="line"/>
      <point x="312" y="472" type="line" smooth="yes"/>
      <point x="271" y="273"/>
      <point x="196" y="94"/>
      <point x="158" y="58" type="qcurve"/>
      <point x="99" y="-3"/>
      <point x="7" y="-3" type="qcurve" smooth="yes"/>
    </contour>
  </outline>
</glyph>
<glyph name="Pecyr" format="2">
  <advance width="675"/>
  <unicode hex="041F"/>
  <outline>
    <contour>
      <point x="430" y="0" type="line"/>
      <point x="551" y="602" type="line"/>
      <point x="261" y="602" type="line"/>
      <point x="140" y="0" type="line"/>
      <point x="32" y="0" type="line"/>
      <point x="172" y="698" type="line"/>
      <point x="678" y="698" type="line"/>
      <point x="538" y="0" type="line"/>
    </contour>
  </outline>
</glyph>
<glyph name="afii10034" format="2">
  <advance width="609"/>
  <unicode hex="0420"/>
  <outline>
    <contour>
      <point x="32" y="0" type="line"/>
      <point x="172" y="698" type="line"/>
      <point x="427" y="698" type="line" smooth="yes"/>
      <point x="525" y="698"/>
      <point x="620" y="602"/>
      <point x="620" y="522" type="qcurve" smooth="yes"/>
      <point x="620" y="419"/>
      <point x="483" y="279"/>
      <point x="370" y="279" type="qcurve" smooth="yes"/>
      <point x="196" y="279" type="line"/>
      <point x="140" y="0" type="line"/>
    </contour>
    <contour>
      <point x="385" y="375" type="line" smooth="yes"/>
      <point x="471" y="375"/>
      <point x="496" y="465" type="qcurve"/>
      <point x="508" y="514"/>
      <point x="508" y="533" type="qcurve" smooth="yes"/>
      <point x="508" y="602"/>
      <point x="426" y="602" type="qcurve" smooth="yes"/>
      <point x="261" y="602" type="line"/>
      <point x="216" y="375" type="line"/>
    </contour>
  </outline>
</glyph>
<glyph name="afii10038" format="2">
  <advance width="823"/>
  <unicode hex="0424"/>
  <outline>
    <contour>
      <point x="299" y="-35" type="line"/>
      <point x="317" y="55" type="line"/>
      <point x="287" y="55" type="line" smooth="yes"/>
      <point x="172" y="55"/>
      <point x="47" y="192"/>
      <point x="47" y="288" type="qcurve" smooth="yes"/>
      <point x="47" y="358"/>
      <point x="94" y="486"/>
      <point x="185" y="584"/>
      <point x="317" y="641"/>
      <point x="402" y="641" type="qcurve" smooth="yes"/>
      <point x="434" y="641" type="line"/>
      <point x="452" y="731" type="line"/>
      <point x="560" y="731" type="line"/>
      <point x="542" y="641" type="line"/>
      <point x="572" y="641" type="line" smooth="yes"/>
      <point x="687" y="641"/>
      <point x="812" y="504"/>
      <point x="812" y="408" type="qcurve" smooth="yes"/>
      <point x="812" y="266"/>
      <point x="720" y="161" type="qcurve"/>
      <point x="674" y="112"/>
      <point x="542" y="55"/>
      <point x="457" y="55" type="qcurve" smooth="yes"/>
      <point x="425" y="55" type="line"/>
      <point x="407" y="-35" type="line"/>
    </contour>
    <contour>
      <point x="418" y="552" type="line"/>
      <point x="384" y="552" type="line" smooth="yes"/>
      <point x="299" y="552"/>
      <point x="186" y="453"/>
      <point x="171" y="378" type="qcurve" smooth="yes"/>
      <point x="166" y="351"/>
      <point x="155" y="298"/>
      <point x="155" y="275" type="qcurve" smooth="yes"/>
      <point x="155" y="221"/>
      <point x="230" y="144"/>
      <point x="306" y="144" type="qcurve" smooth="yes"/>
      <point x="337" y="144" type="line"/>
    </contour>
    <contour>
      <point x="475" y="144" type="line" smooth="yes"/>
      <point x="561" y="144"/>
      <point x="673" y="243"/>
      <point x="688" y="318" type="qcurve" smooth="yes"/>
      <point x="694" y="345"/>
      <point x="704" y="399"/>
      <point x="704" y="421" type="qcurve" smooth="yes"/>
      <point x="704" y="475"/>
      <point x="630" y="552"/>
      <point x="553" y="552" type="qcurve" smooth="yes"/>
      <point x="522" y="552" type="line"/>
      <point x="441" y="144" type="line"/>
    </contour>
  </outline>
</glyph>
<glyph name="Tsecyr" format="2">
  <advance width="720"/>
  <unicode hex="0426"/>
  <outline>
    <contour>
      <point x="511" y="-150" type="line"/>
      <point x="541" y="0" type="line"/>
      <point x="32" y="0" type="line"/>
      <point x="172" y="698" type="line"/>
      <point x="280" y="698" type="line"/>
      <point x="159" y="96" type="line"/>
      <point x="449" y="96" type="line"/>
      <point x="570" y="698" type="line"/>
      <point x="678" y="698" type="line"/>
      <point x="557" y="96" type="line"/>
      <point x="661" y="96" type="line"/>
      <point x="611" y="-150" type="line"/>
    </contour>
  </outline>
</glyph>
<glyph name="u0427" format="2">
  <advance width="638"/>
  <unicode hex="0427"/>
  <outline>
    <contour>
      <point x="393" y="0" type="line"/>
      <point x="447" y="266" type="line"/>
      <point x="442" y="266" type="line"/>
      <point x="382" y="239"/>
      <point x="296" y="239" type="qcurve" smooth="yes"/>
      <point x="196" y="239"/>
      <point x="95" y="332"/>
      <point x="95" y="419" type="qcurve" smooth="yes"/>
      <point x="95" y="466"/>
      <point x="108" y="524" type="qcurve"/>
      <point x="143" y="698" type="line"/>
      <point x="251" y="698" type="line"/>
      <point x="213" y="508" type="line"/>
      <point x="203" y="464"/>
      <point x="203" y="435" type="qcurve" smooth="yes"/>
      <point x="203" y="384"/>
      <point x="260" y="336"/>
      <point x="322" y="336" type="qcurve" smooth="yes"/>
      <point x="412" y="336"/>
      <point x="465" y="358" type="qcurve"/>
      <point x="533" y="698" type="line"/>
      <point x="641" y="698" type="line"/>
      <point x="501" y="0" type="line"/>
    </contour>
  </outline>
</glyph>
<glyph name="Shchacyr" format="2">
  <advance width="996"/>
  <unicode hex="0429"/>
  <outline>
    <contour>
      <point x="787" y="-150" type="line"/>
      <point x="817" y="0" type="line"/>
      <point x="32" y="0" type="line"/>
      <point x="172" y="698" type="line"/>
      <point x="280" y="698" type="line"/>
      <point x="160" y="96" type="line"/>
      <point x="389" y="96" type="line"/>
      <point x="509" y="698" type="line"/>
      <point x="617" y="698" type="line"/>
      <point x="497" y="96" type="line"/>
      <point x="726" y="96" type="line"/>
      <point x="847" y="698" type="line"/>
      <point x="955" y="698" type="line"/>
      <point x="834" y="96" type="line"/>
      <point x="937" y="96" type="line"/>
      <point x="887" y="-150" type="line"/>
    </contour>
  </outline>
</glyph>
<glyph name="u042A" format="2">
  <advance width="716"/>
  <unicode hex="042A"/>
  <outline>
    <contour>
      <point x="441" y="96" type="line" smooth="yes"/>
      <point x="483" y="96"/>
      <point x="542" y="140"/>
      <point x="552" y="185" type="qcurve" smooth="yes"/>
      <point x="564" y="241"/>
      <point x="564" y="265" type="qcurve" smooth="yes"/>
      <point x="564" y="333"/>
      <point x="483" y="333" type="qcurve" smooth="yes"/>
      <point x="306" y="333" type="line"/>
      <point x="259" y="96" type="line"/>
    </contour>
    <contour>
      <point x="131" y="0" type="line"/>
      <point x="252" y="602" type="line"/>
      <point x="89" y="602" type="line"/>
      <point x="108" y="698" type="line"/>
      <point x="379" y="698" type="line"/>
      <point x="326" y="429" type="line"/>
      <point x="484" y="429" type="line" smooth="yes"/>
      <point x="582" y="429"/>
      <point x="676" y="333"/>
      <point x="676" y="249" type="qcurve" smooth="yes"/>
      <point x="676" y="137"/>
      <point x="539" y="0"/>
      <point x="426" y="0" type="qcurve" smooth="yes"/>
    </contour>
  </outline>
</glyph>
<glyph name="u042C" format="2">
  <advance width="617"/>
  <unicode hex="042C"/>
  <outline>
    <contour>
      <point x="342" y="96" type="line" smooth="yes"/>
      <point x="384" y="96"/>
      <point x="443" y="140"/>
      <point x="453" y="185" type="qcurve" smooth="yes"/>
      <point x="465" y="241"/>
      <point x="465" y="265" type="qcurve" smooth="yes"/>
      <point x="465" y="333"/>
      <point x="384" y="333" type="qcurve" smooth="yes"/>
      <point x="207" y="333" type="line"/>
      <point x="160" y="96" type="line"/>
    </contour>
    <contour>
      <point x="32" y="0" type="line"/>
      <point x="172" y="698" type="line"/>
      <point x="280" y="698" type="line"/>
      <point x="227" y="429" type="line"/>
      <point x="385" y="429" type="line" smooth="yes"/>
      <point x="483" y="429"/>
      <point x="577" y="333"/>
      <point x="577" y="249" type="qcurve" smooth="yes"/>
      <point x="577" y="137"/>
      <point x="440" y="0"/>
      <point x="327" y="0" type="qcurve" smooth="yes"/>
    </contour>
  </outline>
</glyph>
<glyph name="u042D" format="2">
  <advance width="630"/>
  <unicode hex="042D"/>
  <outline>
    <contour>
      <point x="252" y="-12" type="qcurve" smooth="yes"/>
      <point x="157" y="-12"/>
      <point x="42" y="69"/>
      <point x="13" y="156" type="qcurve"/>
      <point x="107" y="201" type="line"/>
      <point x="126" y="141"/>
      <point x="198" y="85"/>
      <point x="261" y="85" type="qcurve" smooth="yes"/>
      <point x="339" y="85"/>
      <point x="447" y="186"/>
      <point x="466" y="280" type="qcurve" smooth="yes"/>
      <point x="471" y="306" type="line"/>
      <point x="210" y="306" type="line"/>
      <point x="229" y="402" type="line"/>
      <point x="490" y="402" type="line"/>
      <point x="495" y="430"/>
      <point x="495" y="452" type="qcurve" smooth="yes"/>
      <point x="495" y="527"/>
      <point x="421" y="613"/>
      <point x="346" y="613" type="qcurve" smooth="yes"/>
      <point x="282" y="613"/>
      <point x="200" y="556"/>
      <point x="169" y="502" type="qcurve"/>
      <point x="79" y="546" type="line"/>
      <point x="124" y="626"/>
      <point x="256" y="710"/>
      <point x="352" y="710" type="qcurve" smooth="yes"/>
      <point x="462" y="710"/>
      <point x="533" y="641" type="qcurve"/>
      <point x="603" y="570"/>
      <point x="603" y="430" type="qcurve" smooth="yes"/>
      <point x="603" y="243"/>
      <point x="506" y="116" type="qcurve" smooth="yes"/>
      <point x="459" y="56"/>
      <point x="330" y="-12"/>
    </contour>
  </outline>
</glyph>
<glyph name="u042E" format="2">
  <advance width="952"/>
  <unicode hex="042E"/>
  <outline>
    <contour>
      <point x="586" y="85" type="qcurve" smooth="yes"/>
      <point x="662" y="85"/>
      <point x="768" y="194"/>
      <point x="789" y="294" type="qcurve" smooth="yes"/>
      <point x="810" y="396" type="line"/>
      <point x="816" y="430"/>
      <point x="816" y="458" type="qcurve"/>
      <point x="813" y="613"/>
      <point x="679" y="613" type="qcurve" smooth="yes"/>
      <point x="603" y="613"/>
      <point x="497" y="504"/>
      <point x="476" y="404" type="qcurve" smooth="yes"/>
      <point x="455" y="302" type="line"/>
      <point x="449" y="267"/>
      <point x="449" y="240" type="qcurve"/>
      <point x="453" y="85"/>
    </contour>
    <contour>
      <point x="578" y="-12" type="qcurve" smooth="yes"/>
      <point x="476" y="-12"/>
      <point x="408" y="57" type="qcurve"/>
      <point x="340" y="131"/>
      <point x="340" y="265" type="qcurve" smooth="yes"/>
      <point x="340" y="293"/>
      <point x="341" y="304" type="qcurve"/>
      <point x="202" y="304" type="line"/>
      <point x="140" y="0" type="line"/>
      <point x="32" y="0" type="line"/>
      <point x="172" y="698" type="line"/>
      <point x="280" y="698" type="line"/>
      <point x="221" y="400" type="line"/>
      <point x="356" y="400" type="line"/>
      <point x="390" y="537"/>
      <point x="569" y="710"/>
      <point x="688" y="710" type="qcurve" smooth="yes"/>
      <point x="795" y="710"/>
      <point x="858" y="642" type="qcurve" smooth="yes"/>
      <point x="925" y="569"/>
      <point x="925" y="433" type="qcurve" smooth="yes"/>
      <point x="925" y="255"/>
      <point x="829" y="122" type="qcurve" smooth="yes"/>
      <point x="783" y="60"/>
      <point x="655" y="-12"/>
    </contour>
  </outline>
</glyph>
<glyph name="vecyr" format="2">
  <advance width="543"/>
  <unicode hex="0432"/>
  <outline>
    <contour>
      <point x="281" y="82" type="line" smooth="yes"/>
      <point x="353" y="82"/>
      <point x="368" y="143" type="qcurve" smooth="yes"/>
      <point x="373" y="165"/>
      <point x="373" y="180" type="qcurve"/>
      <point x="370" y="230"/>
      <point x="311" y="230" type="qcurve" smooth="yes"/>
      <point x="175" y="230" type="line"/>
      <point x="145" y="82" type="line"/>
    </contour>
    <contour>
      <point x="316" y="303" type="line" smooth="yes"/>
      <point x="347" y="303"/>
      <point x="393" y="334"/>
      <point x="400" y="366" type="qcurve" smooth="yes"/>
      <point x="404" y="385"/>
      <point x="404" y="397" type="qcurve" smooth="yes"/>
      <point x="404" y="417"/>
      <point x="372" y="438"/>
      <point x="345" y="438" type="qcurve" smooth="yes"/>
      <point x="217" y="438" type="line"/>
      <point x="190" y="303" type="line"/>
    </contour>
    <contour>
      <point x="27" y="0" type="line"/>
      <point x="131" y="520" type="line"/>
      <point x="374" y="520" type="line" smooth="yes"/>
      <point x="436" y="520"/>
      <point x="506" y="459"/>
      <point x="506" y="406" type="qcurve" smooth="yes"/>
      <point x="506" y="303"/>
      <point x="386" y="274" type="qcurve"/>
      <point x="385" y="270" type="line"/>
      <point x="431" y="261"/>
      <point x="475" y="210"/>
      <point x="475" y="173" type="qcurve" smooth="yes"/>
      <point x="475" y="103"/>
      <point x="378" y="0"/>
      <point x="298" y="0" type="qcurve" smooth="yes"/>
    </contour>
  </outline>
</glyph>
<glyph name="afii10069" format="2">
  <advance width="556"/>
  <unicode hex="0434"/>
  <outline>
    <contour>
      <point x="235" y="-12" type="qcurve" smooth="yes"/>
      <point x="151" y="-12"/>
      <point x="42" y="100"/>
      <point x="42" y="203" type="qcurve" smooth="yes"/>
      <point x="42" y="334"/>
      <point x="180" y="520"/>
      <point x="280" y="520" type="qcurve" smooth="yes"/>
      <point x="329" y="520"/>
      <point x="392" y="470"/>
      <point x="404" y="430" type="qcurve"/>
      <point x="409" y="430" type="line"/>
      <point x="409" y="459" type="line" smooth="yes"/>
      <point x="409" y="575"/>
      <point x="367" y="613" type="qcurve" smooth="yes"/>
      <point x="320" y="657"/>
      <point x="252" y="657" type="qcurve" smooth="yes"/>
      <point x="203" y="657"/>
      <point x="172" y="650" type="qcurve"/>
      <point x="191" y="746" type="line"/>
      <point x="218" y="752"/>
      <point x="260" y="752" type="qcurve" smooth="yes"/>
      <point x="323" y="752"/>
      <point x="410" y="719"/>
      <point x="442" y="688" type="qcurve" smooth="yes"/>
      <point x="478" y="653"/>
      <point x="514" y="538"/>
      <point x="514" y="442" type="qcurve" smooth="yes"/>
      <point x="514" y="238"/>
      <point x="445" y="118" type="qcurve" smooth="yes"/>
      <point x="370" y="-12"/>
    </contour>
    <contour>
      <point x="242" y="76" type="qcurve" smooth="yes"/>
      <point x="294" y="76"/>
      <point x="363" y="151"/>
      <point x="380" y="234" type="qcurve" smooth="yes"/>
      <point x="389" y="278" type="line"/>
      <point x="397" y="310"/>
      <point x="397" y="332" type="qcurve" smooth="yes"/>
      <point x="397" y="377"/>
      <point x="348" y="432"/>
      <point x="300" y="432" type="qcurve" smooth="yes"/>
      <point x="253" y="432"/>
      <point x="179" y="361"/>
      <point x="164" y="291" type="qcurve" smooth="yes"/>
      <point x="149" y="220" type="line"/>
      <point x="145" y="204"/>
      <point x="145" y="181" type="qcurve" smooth="yes"/>
      <point x="145" y="133"/>
      <point x="195" y="76"/>
    </contour>
  </outline>
</glyph>
<glyph name="afii10072" format="2">
  <advance width="789"/>
  <unicode hex="0436"/>
  <outline>
    <contour>
      <point x="644" y="0" type="line" smooth="yes"/>
      <point x="585" y="0"/>
      <point x="527" y="68"/>
      <point x="527" y="152" type="qcurve" smooth="yes"/>
      <point x="527" y="193"/>
      <point x="533" y="226" type="qcurve"/>
      <point x="437" y="226" type="line"/>
      <point x="392" y="0" type="line"/>
      <point x="292" y="0" type="line"/>
      <point x="337" y="226" type="line"/>
      <point x="243" y="226" type="line"/>
      <point x="216" y="102"/>
      <point x="127" y="0"/>
      <point x="56" y="0" type="qcurve" smooth="yes"/>
      <point x="-10" y="0" type="line"/>
      <point x="7" y="87" type="line"/>
      <point x="98" y="87" type="line"/>
      <point x="129" y="118"/>
      <point x="155" y="241" type="qcurve"/>
      <point x="171" y="325"/>
      <point x="171" y="368" type="qcurve" smooth="yes"/>
      <point x="171" y="412"/>
      <point x="161" y="433" type="qcurve"/>
      <point x="87" y="433" type="line"/>
      <point x="105" y="520" type="line"/>
      <point x="145" y="520" type="line" smooth="yes"/>
      <point x="203" y="520"/>
      <point x="262" y="452"/>
      <point x="262" y="368" type="qcurve" smooth="yes"/>
      <point x="262" y="344"/>
      <point x="257" y="308" type="qcurve"/>
      <point x="354" y="308" type="line"/>
      <point x="396" y="520" type="line"/>
      <point x="496" y="520" type="line"/>
      <point x="454" y="308" type="line"/>
      <point x="548" y="308" type="line"/>
      <point x="576" y="423"/>
      <point x="663" y="520"/>
      <point x="733" y="520" type="qcurve" smooth="yes"/>
      <point x="789" y="520" type="line"/>
      <point x="771" y="433" type="line"/>
      <point x="691" y="433" type="line"/>
      <point x="661" y="403"/>
      <point x="633" y="279" type="qcurve"/>
      <point x="618" y="193"/>
      <point x="618" y="152" type="qcurve" smooth="yes"/>
      <point x="618" y="109"/>
      <point x="627" y="87" type="qcurve"/>
      <point x="712" y="87" type="line"/>
      <point x="694" y="0" type="line"/>
    </contour>
  </outline>
</glyph>
<glyph name="kacyr" format="2">
  <advance width="549"/>
  <unicode hex="043A"/>
  <outline>
    <contour>
      <point x="413" y="0" type="line" smooth="yes"/>
      <point x="377" y="0"/>
      <point x="334" y="37"/>
      <point x="319" y="75" type="qcurve" smooth="yes"/>
      <point x="260" y="224" type="line"/>
      <point x="176" y="224" type="line"/>
      <point x="131" y="0" type="line"/>
      <point x="27" y="0" type="line"/>
      <point x="131" y="520" type="line"/>
      <point x="235" y="520" type="line"/>
      <point x="193" y="309" type="line"/>
      <point x="277" y="309" type="line"/>
      <point x="400" y="469" type="line"/>
      <point x="421" y="498"/>
      <point x="465" y="520"/>
      <point x="500" y="520" type="qcurve" smooth="yes"/>
      <point x="553" y="520" type="line"/>
      <point x="535" y="433" type="line"/>
      <point x="482" y="433" type="line"/>
      <point x="387" y="310" type="line" smooth="yes"/>
      <point x="372" y="290"/>
      <point x="343" y="273"/>
      <point x="325" y="270" type="qcurve"/>
      <point x="324" y="265" type="line"/>
      <point x="341" y="260"/>
      <point x="365" y="238"/>
      <point x="374" y="212" type="qcurve"/>
      <point x="424" y="87" type="line"/>
      <point x="477" y="87" type="line"/>
      <point x="460" y="0" type="line"/>
    </contour>
  </outline>
</glyph>
<glyph name="u043B" format="2">
  <advance width="560"/>
  <unicode hex="043B"/>
  <outline>
    <contour>
      <point x="-43" y="-3" type="line"/>
      <point x="-25" y="87" type="line"/>
      <point x="40" y="87" type="line"/>
      <point x="100" y="160"/>
      <point x="144" y="370" type="qcurve" smooth="yes"/>
      <point x="174" y="520" type="line"/>
      <point x="534" y="520" type="line"/>
      <point x="430" y="0" type="line"/>
      <point x="326" y="0" type="line"/>
      <point x="413" y="433" type="line"/>
      <point x="255" y="433" type="line"/>
      <point x="243" y="374" type="line" smooth="yes"/>
      <point x="213" y="222"/>
      <point x="152" y="73"/>
      <point x="94" y="18"/>
      <point x="32" y="-3"/>
      <point x="-6" y="-3" type="qcurve" smooth="yes"/>
    </contour>
  </outline>
</glyph>
<glyph name="u043C" format="2">
  <advance width="689"/>
  <unicode hex="043C"/>
  <outline>
    <contour>
      <point x="459" y="0" type="line"/>
      <point x="537" y="388" type="line"/>
      <point x="532" y="388" type="line"/>
      <point x="485" y="324" type="line"/>
      <point x="313" y="102" type="line"/>
      <point x="210" y="388" type="line"/>
      <point x="205" y="388" type="line"/>
      <point x="127" y="0" type="line"/>
      <point x="27" y="0" type="line"/>
      <point x="131" y="520" type="line"/>
      <point x="251" y="520" type="line"/>
      <point x="343" y="268" type="line"/>
      <point x="345" y="268" type="line"/>
      <point x="540" y="520" type="line"/>
      <point x="663" y="520" type="line"/>
      <point x="559" y="0" type="line"/>
    </contour>
  </outline>
</glyph>
<glyph name="tsecyr" format="2">
  <advance width="594"/>
  <unicode hex="0446"/>
  <outline>
    <contour>
      <point x="396" y="-140" type="line"/>
      <point x="424" y="0" type="line"/>
      <point x="417" y="0" type="line"/>
      <point x="343" y="5"/>
      <point x="343" y="69" type="qcurve" smooth="yes"/>
      <point x="343" y="81"/>
      <point x="348" y="111" type="qcurve"/>
      <point x="343" y="111" type="line"/>
      <point x="314" y="51"/>
      <point x="238" y="-12"/>
      <point x="182" y="-12" type="qcurve" smooth="yes"/>
      <point x="118" y="-12"/>
      <point x="53" y="62"/>
      <point x="53" y="128" type="qcurve" smooth="yes"/>
      <point x="53" y="163"/>
      <point x="61" y="199" type="qcurve"/>
      <point x="125" y="520" type="line"/>
      <point x="229" y="520" type="line"/>
      <point x="166" y="204" type="line" smooth="yes"/>
      <point x="160" y="174"/>
      <point x="160" y="151" type="qcurve" smooth="yes"/>
      <point x="160" y="116"/>
      <point x="190" y="78"/>
      <point x="225" y="78" type="qcurve" smooth="yes"/>
      <point x="284" y="78"/>
      <point x="325" y="135" type="qcurve" smooth="yes"/>
      <point x="363" y="186"/>
      <point x="374" y="242" type="qcurve" smooth="yes"/>
      <point x="430" y="520" type="line"/>
      <point x="534" y="520" type="line"/>
      <point x="447" y="87" type="line"/>
      <point x="535" y="87" type="line"/>
      <point x="489" y="-140" type="line"/>
    </contour>
  </outline>
</glyph>
<glyph name="u044A" format="2">
  <advance width="589"/>
  <unicode hex="044A"/>
  <outline>
    <contour>
      <point x="327" y="83" type="line" smooth="yes"/>
      <point x="410" y="83"/>
      <point x="431" y="164" type="qcurve" smooth="yes"/>
      <point x="435" y="179"/>
      <point x="435" y="205" type="qcurve" smooth="yes"/>
      <point x="435" y="232"/>
      <point x="400" y="264"/>
      <point x="363" y="264" type="qcurve" smooth="yes"/>
      <point x="251" y="264" type="line"/>
      <point x="215" y="83" type="line"/>
    </contour>
    <contour>
      <point x="95" y="0" type="line"/>
      <point x="182" y="433" type="line"/>
      <point x="55" y="433" type="line"/>
      <point x="72" y="520" type="line"/>
      <point x="303" y="520" type="line"/>
      <point x="268" y="346" type="line"/>
      <point x="393" y="346" type="line" smooth="yes"/>
      <point x="467" y="346"/>
      <point x="539" y="273"/>
      <point x="539" y="208" type="qcurve" smooth="yes"/>
      <point x="539" y="111"/>
      <point x="420" y="0"/>
      <point x="334" y="0" type="qcurve" smooth="yes"/>
    </contour>
  </outline>
</glyph>
<glyph name="afii10093" format="2">
  <advance width="732"/>
  <unicode hex="044B"/>
  <outline>
    <contour>
      <point x="27" y="0" type="line"/>
      <point x="131" y="520" type="line"/>
      <point x="235" y="520" type="line"/>
      <point x="200" y="346" type="line"/>
      <point x="316" y="346" type="line" smooth="yes"/>
      <point x="390" y="346"/>
      <point x="462" y="273"/>
      <point x="462" y="208" type="qcurve" smooth="yes"/>
      <point x="462" y="111"/>
      <point x="343" y="0"/>
      <point x="257" y="0" type="qcurve" smooth="yes"/>
    </contour>
    <contour>
      <point x="497" y="0" type="line"/>
      <point x="601" y="520" type="line"/>
      <point x="705" y="520" type="line"/>
      <point x="601" y="0" type="line"/>
    </contour>
    <contour>
      <point x="250" y="83" type="line" smooth="yes"/>
      <point x="333" y="83"/>
      <point x="353" y="164" type="qcurve" smooth="yes"/>
      <point x="358" y="183"/>
      <point x="358" y="205" type="qcurve" smooth="yes"/>
      <point x="358" y="232"/>
      <point x="323" y="264"/>
      <point x="286" y="264" type="qcurve" smooth="yes"/>
      <point x="183" y="264" type="line"/>
      <point x="147" y="83" type="line"/>
    </contour>
  </outline>
</glyph>
<glyph name="u044C" format="2">
  <advance width="521"/>
  <unicode hex="044C"/>
  <outline>
    <contour>
      <point x="259" y="83" type="line" smooth="yes"/>
      <point x="342" y="83"/>
      <point x="363" y="164" type="qcurve"/>
      <point x="367" y="184"/>
      <point x="367" y="205" type="qcurve" smooth="yes"/>
      <point x="367" y="264"/>
      <point x="295" y="264" type="qcurve" smooth="yes"/>
      <point x="183" y="264" type="line"/>
      <point x="147" y="83" type="line"/>
    </contour>
    <contour>
      <point x="27" y="0" type="line"/>
      <point x="131" y="520" type="line"/>
      <point x="235" y="520" type="line"/>
      <point x="200" y="346" type="line"/>
      <point x="326" y="346" type="line" smooth="yes"/>
      <point x="399" y="346"/>
      <point x="471" y="273"/>
      <point x="471" y="208" type="qcurve" smooth="yes"/>
      <point x="471" y="111"/>
      <point x="352" y="0"/>
      <point x="266" y="0" type="qcurve" smooth="yes"/>
    </contour>
  </outline>
</glyph>
<glyph name="afii10096" format="2">
  <advance width="775"/>
  <unicode hex="044E"/>
  <outline>
    <contour>
      <point x="469" y="-12" type="qcurve" smooth="yes"/>
      <point x="381" y="-12"/>
      <point x="279" y="97"/>
      <point x="279" y="203" type="qcurve" smooth="yes"/>
      <point x="279" y="223" type="line"/>
      <point x="175" y="223" type="line"/>
      <point x="131" y="0" type="line"/>
      <point x="27" y="0" type="line"/>
      <point x="131" y="520" type="line"/>
      <point x="235" y="520" type="line"/>
      <point x="193" y="310" type="line"/>
      <point x="291" y="310" type="line"/>
      <point x="316" y="408"/>
      <point x="448" y="532"/>
      <point x="542" y="532" type="qcurve" smooth="yes"/>
      <point x="630" y="532"/>
      <point x="732" y="423"/>
      <point x="732" y="317" type="qcurve" smooth="yes"/>
      <point x="732" y="181"/>
      <point x="660" y="85" type="qcurve" smooth="yes"/>
      <point x="625" y="40"/>
      <point x="528" y="-12"/>
    </contour>
    <contour>
      <point x="477" y="76" type="qcurve" smooth="yes"/>
      <point x="526" y="76"/>
      <point x="594" y="148"/>
      <point x="609" y="217" type="qcurve"/>
      <point x="625" y="300" type="line" smooth="yes"/>
      <point x="629" y="321"/>
      <point x="629" y="343" type="qcurve" smooth="yes"/>
      <point x="629" y="388"/>
      <point x="582" y="444"/>
      <point x="534" y="444" type="qcurve" smooth="yes"/>
      <point x="485" y="444"/>
      <point x="417" y="372"/>
      <point x="402" y="303" type="qcurve"/>
      <point x="386" y="220" type="line" smooth="yes"/>
      <point x="382" y="200"/>
      <point x="382" y="177" type="qcurve" smooth="yes"/>
      <point x="382" y="132"/>
      <point x="429" y="76"/>
    </contour>
  </outline>
</glyph>
<glyph name="u0451" format="2">
  <advance width="512"/>
  <unicode hex="0451"/>
  <outline>
    <contour>
      <point x="160" y="288" type="line"/>
      <point x="299" y="294"/>
      <point x="347" y="317" type="qcurve" smooth="yes"/>
      <point x="372" y="329"/>
      <point x="390" y="363"/>
      <point x="390" y="385" type="qcurve" smooth="yes"/>
      <point x="390" y="423"/>
      <point x="365" y="437" type="qcurve"/>
      <point x="340" y="449"/>
      <point x="310" y="449" type="qcurve" smooth="yes"/>
      <point x="256" y="449"/>
      <point x="178" y="377"/>
      <point x="165" y="314" type="qcurve" smooth="yes"/>
    </contour>
    <contour>
      <point x="248" y="-12" type="qcurve" smooth="yes"/>
      <point x="147" y="-12"/>
      <point x="42" y="103"/>
      <point x="42" y="208" type="qcurve" smooth="yes"/>
      <point x="42" y="336"/>
      <point x="117" y="434" type="qcurve" smooth="yes"/>
      <point x="153" y="480"/>
      <point x="255" y="532"/>
      <point x="318" y="532" type="qcurve" smooth="yes"/>
      <point x="388" y="532"/>
      <point x="437" y="499" type="qcurve" smooth="yes"/>
      <point x="493" y="461"/>
      <point x="493" y="390" type="qcurve" smooth="yes"/>
      <point x="493" y="308"/>
      <point x="326" y="220"/>
      <point x="148" y="215" type="qcurve"/>
      <point x="145" y="196"/>
      <point x="145" y="182" type="qcurve" smooth="yes"/>
      <point x="145" y="134"/>
      <point x="198" y="76"/>
      <point x="255" y="76" type="qcurve" smooth="yes"/>
      <point x="341" y="76"/>
      <point x="400" y="154" type="qcurve"/>
      <point x="466" y="99" type="line"/>
      <point x="417" y="39"/>
      <point x="309" y="-12"/>
    </contour>
    <contour>
      <point x="243" y="610" type="qcurve" smooth="yes"/>
      <point x="217" y="610"/>
      <point x="192" y="632"/>
      <point x="192" y="650" type="qcurve" smooth="yes"/>
      <point x="192" y="658"/>
      <point x="202" y="703"/>
      <point x="217" y="719" type="qcurve"/>
      <point x="234" y="734"/>
      <point x="267" y="734" type="qcurve" smooth="yes"/>
      <point x="316" y="734"/>
      <point x="316" y="694" type="qcurve" smooth="yes"/>
      <point x="316" y="688"/>
      <point x="312" y="664" type="qcurve"/>
      <point x="301" y="610"/>
    </contour>
    <contour>
      <point x="432" y="610" type="qcurve" smooth="yes"/>
      <point x="406" y="610"/>
      <point x="381" y="632"/>
      <point x="381" y="650" type="qcurve" smooth="yes"/>
      <point x="381" y="658"/>
      <point x="391" y="703"/>
      <point x="406" y="719" type="qcurve"/>
      <point x="423" y="734"/>
      <point x="456" y="734" type="qcurve" smooth="yes"/>
      <point x="505" y="734"/>
      <point x="505" y="694" type="qcurve" smooth="yes"/>
      <point x="505" y="688"/>
      <point x="501" y="664" type="qcurve"/>
      <point x="490" y="610"/>
    </contour>
  </outline>
</glyph>
<glyph name="gjecyr" format="2">
  <advance width="423"/>
  <unicode hex="0453"/>
  <outline>
    <contour>
      <point x="27" y="0" type="line"/>
      <point x="131" y="520" type="line"/>
      <point x="454" y="520" type="line"/>
      <point x="437" y="433" type="line"/>
      <point x="218" y="433" type="line"/>
      <point x="131" y="0" type="line"/>
    </contour>
    <contour>
      <point x="246" y="616" type="line"/>
      <point x="356" y="795" type="line"/>
      <point x="443" y="749" type="line"/>
      <point x="309" y="582" type="line"/>
    </contour>
  </outline>
</glyph>
<glyph name="u0457" format="2">
  <advance width="271"/>
  <unicode hex="0457"/>
  <outline>
    <contour>
      <point x="121" y="0" type="line" smooth="yes"/>
      <point x="83" y="0"/>
      <point x="43" y="39"/>
      <point x="43" y="71" type="qcurve" smooth="yes"/>
      <point x="43" y="82"/>
      <point x="45" y="93" type="qcurve" smooth="yes"/>
      <point x="131" y="520" type="line"/>
      <point x="235" y="520" type="line"/>
      <point x="148" y="87" type="line"/>
      <point x="215" y="87" type="line"/>
      <point x="198" y="0" type="line"/>
    </contour>
    <contour>
      <point x="108" y="610" type="qcurve" smooth="yes"/>
      <point x="82" y="610"/>
      <point x="57" y="632"/>
      <point x="57" y="650" type="qcurve" smooth="yes"/>
      <point x="57" y="658"/>
      <point x="67" y="703"/>
      <point x="82" y="719" type="qcurve"/>
      <point x="99" y="734"/>
      <point x="132" y="734" type="qcurve" smooth="yes"/>
      <point x="181" y="734"/>
      <point x="181" y="694" type="qcurve" smooth="yes"/>
      <point x="181" y="688"/>
      <point x="177" y="664" type="qcurve"/>
      <point x="166" y="610"/>
    </contour>
    <contour>
      <point x="297" y="610" type="qcurve" smooth="yes"/>
      <point x="271" y="610"/>
      <point x="246" y="632"/>
      <point x="246" y="650" type="qcurve" smooth="yes"/>
      <point x="246" y="658"/>
      <point x="256" y="703"/>
      <point x="271" y="719" type="qcurve"/>
      <point x="288" y="734"/>
      <point x="321" y="734" type="qcurve" smooth="yes"/>
      <point x="370" y="734"/>
      <point x="370" y="694" type="qcurve" smooth="yes"/>
      <point x="370" y="688"/>
      <point x="366" y="664" type="qcurve"/>
      <point x="355" y="610"/>
    </contour>
  </outline>
</glyph>
<glyph name="afii10105" format="2">
  <advance width="263"/>
  <unicode hex="0458"/>
  <outline>
    <contour>
      <point x="206" y="613" type="qcurve" smooth="yes"/>
      <point x="177" y="613"/>
      <point x="151" y="637"/>
      <point x="151" y="655" type="qcurve" smooth="yes"/>
      <point x="151" y="665"/>
      <point x="162" y="712"/>
      <point x="177" y="729" type="qcurve"/>
      <point x="194" y="744"/>
      <point x="228" y="744" type="qcurve" smooth="yes"/>
      <point x="257" y="744"/>
      <point x="283" y="720"/>
      <point x="283" y="702" type="qcurve" smooth="yes"/>
      <point x="283" y="692"/>
      <point x="272" y="645"/>
      <point x="241" y="613"/>
    </contour>
    <contour>
      <point x="-91" y="-200" type="line"/>
      <point x="-74" y="-114" type="line"/>
      <point x="6" y="-114" type="line"/>
      <point x="133" y="520" type="line"/>
      <point x="237" y="520" type="line"/>
      <point x="116" y="-83" type="line" smooth="yes"/>
      <point x="105" y="-142"/>
      <point x="43" y="-200"/>
      <point x="-19" y="-200" type="qcurve" smooth="yes"/>
    </contour>
  </outline>
</glyph>
<glyph name="afii10106" format="2">
  <advance width="797"/>
  <unicode hex="0459"/>
  <outline>
    <contour>
      <point x="-43" y="-3" type="line"/>
      <point x="-25" y="87" type="line"/>
      <point x="40" y="87" type="line"/>
      <point x="100" y="160"/>
      <point x="144" y="370" type="qcurve" smooth="yes"/>
      <point x="174" y="520" type="line"/>
      <point x="518" y="520" type="line"/>
      <point x="483" y="346" type="line"/>
      <point x="600" y="346" type="line" smooth="yes"/>
      <point x="675" y="346"/>
      <point x="747" y="273"/>
      <point x="747" y="208" type="qcurve" smooth="yes"/>
      <point x="747" y="111"/>
      <point x="628" y="0"/>
      <point x="542" y="0" type="qcurve" smooth="yes"/>
      <point x="310" y="0" type="line"/>
      <point x="397" y="433" type="line"/>
      <point x="255" y="433" type="line"/>
      <point x="243" y="374" type="line" smooth="yes"/>
      <point x="213" y="222"/>
      <point x="152" y="73"/>
      <point x="94" y="18"/>
      <point x="32" y="-3"/>
      <point x="-6" y="-3" type="qcurve" smooth="yes"/>
    </contour>
    <contour>
      <point x="535" y="83" type="line" smooth="yes"/>
      <point x="618" y="83"/>
      <point x="639" y="164" type="qcurve" smooth="yes"/>
      <point x="643" y="179"/>
      <point x="643" y="205" type="qcurve" smooth="yes"/>
      <point x="643" y="264"/>
      <point x="570" y="264" type="qcurve" smooth="yes"/>
      <point x="466" y="264" type="line"/>
      <point x="430" y="83" type="line"/>
    </contour>
  </outline>
</glyph>
<glyph name="afii10110" format="2">
  <advance width="495"/>
  <unicode hex="045E"/>
  <outline>
    <contour>
      <point x="305" y="589" type="qcurve" smooth="yes"/>
      <point x="256" y="589"/>
      <point x="192" y="631"/>
      <point x="175" y="681" type="qcurve" smooth="yes"/>
      <point x="160" y="727" type="line"/>
      <point x="247" y="761" type="line"/>
      <point x="266" y="671" type="line"/>
      <point x="289" y="664"/>
      <point x="314" y="664" type="qcurve" smooth="yes"/>
      <point x="340" y="664"/>
      <point x="358" y="671" type="qcurve"/>
      <point x="408" y="761" type="line"/>
      <point x="490" y="723" type="line"/>
      <point x="463" y="681" type="line" smooth="yes"/>
      <point x="406" y="589"/>
    </contour>
    <contour>
      <point x="-24" y="-200" type="line"/>
      <point x="-7" y="-114" type="line"/>
      <point x="88" y="-114" type="line"/>
      <point x="137" y="-22" type="line"/>
      <point x="58" y="520" type="line"/>
      <point x="160" y="520" type="line"/>
      <point x="191" y="289" type="line"/>
      <point x="210" y="98" type="line"/>
      <point x="215" y="98" type="line"/>
      <point x="306" y="289" type="line"/>
      <point x="425" y="520" type="line"/>
      <point x="536" y="520" type="line"/>
      <point x="198" y="-103" type="line"/>
      <point x="172" y="-154"/>
      <point x="109" y="-200"/>
      <point x="55" y="-200" type="qcurve" smooth="yes"/>
    </contour>
  </outline>
</glyph>
<glyph name="ghemiddlehookcyrillic" format="2">
  <advance width="536"/>
  <unicode hex="0495"/>
  <outline>
    <contour>
      <point x="178" y="-200" type="line"/>
      <point x="196" y="-112" type="line"/>
      <point x="280" y="-112" type="line"/>
      <point x="315" y="-80"/>
      <point x="333" y="5" type="qcurve" smooth="yes"/>
      <point x="355" y="111" type="line"/>
      <point x="359" y="138"/>
      <point x="359" y="157" type="qcurve"/>
      <point x="358" y="214"/>
      <point x="290" y="214" type="qcurve" smooth="yes"/>
      <point x="232" y="214"/>
      <point x="160" y="152"/>
      <point x="152" y="107" type="qcurve" smooth="yes"/>
      <point x="131" y="0" type="line"/>
      <point x="27" y="0" type="line"/>
      <point x="130" y="520" type="line"/>
      <point x="454" y="520" type="line"/>
      <point x="437" y="433" type="line"/>
      <point x="218" y="433" type="line"/>
      <point x="173" y="213" type="line"/>
      <point x="179" y="213" type="line"/>
      <point x="207" y="258"/>
      <point x="279" y="305"/>
      <point x="333" y="305" type="qcurve" smooth="yes"/>
      <point x="398" y="305"/>
      <point x="466" y="234"/>
      <point x="466" y="184" type="qcurve" smooth="yes"/>
      <point x="466" y="150"/>
      <point x="459" y="114" type="qcurve" smooth="yes"/>
      <point x="435" y="-5" type="line" smooth="yes"/>
      <point x="413" y="-108"/>
      <point x="311" y="-200"/>
      <point x="234" y="-200" type="qcurve" smooth="yes"/>
    </contour>
  </outline>
</glyph>
<glyph name="u0498" format="2">
  <advance width="586"/>
  <unicode hex="0498"/>
  <outline>
    <contour>
      <point x="151" y="-150" type="line"/>
      <point x="179" y="-6" type="line"/>
      <point x="65" y="15"/>
      <point x="5" y="111" type="qcurve"/>
      <point x="89" y="176" type="line"/>
      <point x="146" y="85"/>
      <point x="248" y="85" type="qcurve" smooth="yes"/>
      <point x="374" y="85"/>
      <point x="397" y="187" type="qcurve" smooth="yes"/>
      <point x="402" y="210"/>
      <point x="402" y="233" type="qcurve" smooth="yes"/>
      <point x="402" y="308"/>
      <point x="291" y="308" type="qcurve" smooth="yes"/>
      <point x="194" y="308" type="line"/>
      <point x="214" y="404" type="line"/>
      <point x="302" y="404" type="line" smooth="yes"/>
      <point x="426" y="404"/>
      <point x="445" y="494" type="qcurve" smooth="yes"/>
      <point x="450" y="517"/>
      <point x="450" y="536" type="qcurve" smooth="yes"/>
      <point x="450" y="571"/>
      <point x="397" y="613"/>
      <point x="343" y="613" type="qcurve" smooth="yes"/>
      <point x="235" y="613"/>
      <point x="174" y="538" type="qcurve"/>
      <point x="107" y="609" type="line"/>
      <point x="202" y="710"/>
      <point x="354" y="710" type="qcurve" smooth="yes"/>
      <point x="457" y="710"/>
      <point x="565" y="624"/>
      <point x="565" y="548" type="qcurve" smooth="yes"/>
      <point x="565" y="404"/>
      <point x="413" y="362" type="qcurve"/>
      <point x="412" y="357" type="line"/>
      <point x="515" y="332"/>
      <point x="515" y="227" type="qcurve" smooth="yes"/>
      <point x="515" y="130"/>
      <point x="386" y="1"/>
      <point x="280" y="-11" type="qcurve"/>
      <point x="251" y="-150" type="line"/>
    </contour>
  </outline>
</glyph>
<glyph name="Katailcyr" format="2">
  <advance width="660"/>
  <unicode hex="049A"/>
  <outline>
    <contour>
      <point x="465" y="-150" type="line"/>
      <point x="494" y="0" type="line"/>
      <point x="465" y="0"/>
      <point x="425" y="31"/>
      <point x="408" y="72" type="qcurve" smooth="yes"/>
      <point x="313" y="305" type="line"/>
      <point x="202" y="305" type="line"/>
      <point x="140" y="0" type="line"/>
      <point x="32" y="0" type="line"/>
      <point x="172" y="698" type="line"/>
      <point x="280" y="698" type="line"/>
      <point x="221" y="400" type="line"/>
      <point x="332" y="400" type="line"/>
      <point x="505" y="632" type="line" smooth="yes"/>
      <point x="532" y="668"/>
      <point x="582" y="698"/>
      <point x="617" y="698" type="qcurve" smooth="yes"/>
      <point x="673" y="698" type="line"/>
      <point x="654" y="602" type="line"/>
      <point x="599" y="602" type="line"/>
      <point x="456" y="410" type="line"/>
      <point x="438" y="384"/>
      <point x="403" y="363"/>
      <point x="379" y="358" type="qcurve"/>
      <point x="378" y="353" type="line"/>
      <point x="396" y="347"/>
      <point x="420" y="321"/>
      <point x="431" y="295" type="qcurve" smooth="yes"/>
      <point x="512" y="96" type="line"/>
      <point x="615" y="96" type="line"/>
      <point x="565" y="-150" type="line"/>
    </contour>
  </outline>
</glyph>
<glyph name="Kaverticalstrokecyrillic" format="2">
  <advance width="697"/>
  <unicode hex="049C"/>
  <outline>
    <contour>
      <point x="554" y="0" type="line" smooth="yes"/>
      <point x="516" y="0"/>
      <point x="474" y="33"/>
      <point x="460" y="74" type="qcurve"/>
      <point x="375" y="305" type="line"/>
      <point x="333" y="305" type="line"/>
      <point x="304" y="158" type="line"/>
      <point x="224" y="158" type="line"/>
      <point x="253" y="305" type="line"/>
      <point x="202" y="305" type="line"/>
      <point x="140" y="0" type="line"/>
      <point x="32" y="0" type="line"/>
      <point x="172" y="698" type="line"/>
      <point x="280" y="698" type="line"/>
      <point x="221" y="400" type="line"/>
      <point x="273" y="400" type="line"/>
      <point x="302" y="547" type="line"/>
      <point x="382" y="547" type="line"/>
      <point x="353" y="400" type="line"/>
      <point x="394" y="400" type="line"/>
      <point x="558" y="633" type="line"/>
      <point x="583" y="671"/>
      <point x="633" y="698"/>
      <point x="669" y="698" type="qcurve" smooth="yes"/>
      <point x="724" y="698" type="line"/>
      <point x="705" y="602" type="line"/>
      <point x="650" y="602" type="line"/>
      <point x="516" y="412" type="line"/>
      <point x="499" y="386"/>
      <point x="465" y="363"/>
      <point x="441" y="358" type="qcurve"/>
      <point x="440" y="353" type="line"/>
      <point x="458" y="345"/>
      <point x="482" y="318"/>
      <point x="493" y="289" type="qcurve" smooth="yes"/>
      <point x="564" y="96" type="line"/>
      <point x="621" y="96" type="line"/>
      <point x="602" y="0" type="line"/>
    </contour>
  </outline>
</glyph>
<glyph name="kabashkcyr" format="2">
  <advance width="617"/>
  <unicode hex="04A1"/>
  <outline>
    <contour>
      <point x="481" y="0" type="line" smooth="yes"/>
      <point x="445" y="0"/>
      <point x="402" y="37"/>
      <point x="387" y="75" type="qcurve" smooth="yes"/>
      <point x="328" y="224" type="line"/>
      <point x="244" y="224" type="line"/>
      <point x="199" y="0" type="line"/>
      <point x="95" y="0" type="line"/>
      <point x="182" y="433" type="line"/>
      <point x="54" y="433" type="line"/>
      <point x="72" y="520" type="line"/>
      <point x="303" y="520" type="line"/>
      <point x="261" y="309" type="line"/>
      <point x="345" y="309" type="line"/>
      <point x="468" y="469" type="line" smooth="yes"/>
      <point x="489" y="496"/>
      <point x="534" y="520"/>
      <point x="569" y="520" type="qcurve" smooth="yes"/>
      <point x="621" y="520" type="line"/>
      <point x="603" y="433" type="line"/>
      <point x="550" y="433" type="line"/>
      <point x="455" y="310" type="line" smooth="yes"/>
      <point x="440" y="290"/>
      <point x="411" y="273"/>
      <point x="393" y="270" type="qcurve"/>
      <point x="392" y="265" type="line"/>
      <point x="409" y="260"/>
      <point x="431" y="238"/>
      <point x="442" y="212" type="qcurve" smooth="yes"/>
      <point x="492" y="87" type="line"/>
      <point x="545" y="87" type="line"/>
      <point x="528" y="0" type="line"/>
    </contour>
  </outline>
</glyph>
<glyph name="u04A2" format="2">
  <advance width="735"/>
  <unicode hex="04A2"/>
  <outline>
    <contour>
      <point x="526" y="-150" type="line"/>
      <point x="556" y="0" type="line"/>
      <point x="446" y="0" type="line"/>
      <point x="508" y="304" type="line"/>
      <point x="202" y="304" type="line"/>
      <point x="140" y="0" type="line"/>
      <point x="32" y="0" type="line"/>
      <point x="172" y="698" type="line"/>
      <point x="280" y="698" type="line"/>
      <point x="221" y="400" type="line"/>
      <point x="527" y="400" type="line"/>
      <point x="586" y="698" type="line"/>
      <point x="694" y="698" type="line"/>
      <point x="573" y="96" type="line"/>
      <point x="676" y="96" type="line"/>
      <point x="626" y="-150" type="line"/>
    </contour>
  </outline>
</glyph>
